%TF.GenerationSoftware,KiCad,Pcbnew,9.0.7*%
%TF.CreationDate,2026-01-05T14:29:03+01:00*%
%TF.ProjectId,display-Schematic,64697370-6c61-4792-9d53-6368656d6174,rev?*%
%TF.SameCoordinates,Original*%
%TF.FileFunction,Legend,Top*%
%TF.FilePolarity,Positive*%
%FSLAX46Y46*%
G04 Gerber Fmt 4.6, Leading zero omitted, Abs format (unit mm)*
G04 Created by KiCad (PCBNEW 9.0.7) date 2026-01-05 14:29:03*
%MOMM*%
%LPD*%
G01*
G04 APERTURE LIST*
%ADD10C,0.150000*%
%ADD11C,0.100000*%
%ADD12C,0.120000*%
G04 APERTURE END LIST*
D10*
X119991905Y-101994819D02*
X119991905Y-100994819D01*
X119991905Y-100994819D02*
X120230000Y-100994819D01*
X120230000Y-100994819D02*
X120372857Y-101042438D01*
X120372857Y-101042438D02*
X120468095Y-101137676D01*
X120468095Y-101137676D02*
X120515714Y-101232914D01*
X120515714Y-101232914D02*
X120563333Y-101423390D01*
X120563333Y-101423390D02*
X120563333Y-101566247D01*
X120563333Y-101566247D02*
X120515714Y-101756723D01*
X120515714Y-101756723D02*
X120468095Y-101851961D01*
X120468095Y-101851961D02*
X120372857Y-101947200D01*
X120372857Y-101947200D02*
X120230000Y-101994819D01*
X120230000Y-101994819D02*
X119991905Y-101994819D01*
X120944286Y-101090057D02*
X120991905Y-101042438D01*
X120991905Y-101042438D02*
X121087143Y-100994819D01*
X121087143Y-100994819D02*
X121325238Y-100994819D01*
X121325238Y-100994819D02*
X121420476Y-101042438D01*
X121420476Y-101042438D02*
X121468095Y-101090057D01*
X121468095Y-101090057D02*
X121515714Y-101185295D01*
X121515714Y-101185295D02*
X121515714Y-101280533D01*
X121515714Y-101280533D02*
X121468095Y-101423390D01*
X121468095Y-101423390D02*
X120896667Y-101994819D01*
X120896667Y-101994819D02*
X121515714Y-101994819D01*
D11*
X138938095Y-74582419D02*
X138938095Y-75391942D01*
X138938095Y-75391942D02*
X138985714Y-75487180D01*
X138985714Y-75487180D02*
X139033333Y-75534800D01*
X139033333Y-75534800D02*
X139128571Y-75582419D01*
X139128571Y-75582419D02*
X139319047Y-75582419D01*
X139319047Y-75582419D02*
X139414285Y-75534800D01*
X139414285Y-75534800D02*
X139461904Y-75487180D01*
X139461904Y-75487180D02*
X139509523Y-75391942D01*
X139509523Y-75391942D02*
X139509523Y-74582419D01*
X139890476Y-74582419D02*
X140557142Y-74582419D01*
X140557142Y-74582419D02*
X140128571Y-75582419D01*
D10*
X137152380Y-100979819D02*
X136580952Y-100979819D01*
X136866666Y-100979819D02*
X136866666Y-99979819D01*
X136866666Y-99979819D02*
X136771428Y-100122676D01*
X136771428Y-100122676D02*
X136676190Y-100217914D01*
X136676190Y-100217914D02*
X136580952Y-100265533D01*
X137533333Y-100075057D02*
X137580952Y-100027438D01*
X137580952Y-100027438D02*
X137676190Y-99979819D01*
X137676190Y-99979819D02*
X137914285Y-99979819D01*
X137914285Y-99979819D02*
X138009523Y-100027438D01*
X138009523Y-100027438D02*
X138057142Y-100075057D01*
X138057142Y-100075057D02*
X138104761Y-100170295D01*
X138104761Y-100170295D02*
X138104761Y-100265533D01*
X138104761Y-100265533D02*
X138057142Y-100408390D01*
X138057142Y-100408390D02*
X137485714Y-100979819D01*
X137485714Y-100979819D02*
X138104761Y-100979819D01*
X139057142Y-100979819D02*
X138485714Y-100979819D01*
X138771428Y-100979819D02*
X138771428Y-99979819D01*
X138771428Y-99979819D02*
X138676190Y-100122676D01*
X138676190Y-100122676D02*
X138580952Y-100217914D01*
X138580952Y-100217914D02*
X138485714Y-100265533D01*
X139676190Y-99979819D02*
X139771428Y-99979819D01*
X139771428Y-99979819D02*
X139866666Y-100027438D01*
X139866666Y-100027438D02*
X139914285Y-100075057D01*
X139914285Y-100075057D02*
X139961904Y-100170295D01*
X139961904Y-100170295D02*
X140009523Y-100360771D01*
X140009523Y-100360771D02*
X140009523Y-100598866D01*
X140009523Y-100598866D02*
X139961904Y-100789342D01*
X139961904Y-100789342D02*
X139914285Y-100884580D01*
X139914285Y-100884580D02*
X139866666Y-100932200D01*
X139866666Y-100932200D02*
X139771428Y-100979819D01*
X139771428Y-100979819D02*
X139676190Y-100979819D01*
X139676190Y-100979819D02*
X139580952Y-100932200D01*
X139580952Y-100932200D02*
X139533333Y-100884580D01*
X139533333Y-100884580D02*
X139485714Y-100789342D01*
X139485714Y-100789342D02*
X139438095Y-100598866D01*
X139438095Y-100598866D02*
X139438095Y-100360771D01*
X139438095Y-100360771D02*
X139485714Y-100170295D01*
X139485714Y-100170295D02*
X139533333Y-100075057D01*
X139533333Y-100075057D02*
X139580952Y-100027438D01*
X139580952Y-100027438D02*
X139676190Y-99979819D01*
X140961904Y-100979819D02*
X140390476Y-100979819D01*
X140676190Y-100979819D02*
X140676190Y-99979819D01*
X140676190Y-99979819D02*
X140580952Y-100122676D01*
X140580952Y-100122676D02*
X140485714Y-100217914D01*
X140485714Y-100217914D02*
X140390476Y-100265533D01*
X141342857Y-100694104D02*
X141819047Y-100694104D01*
X141247619Y-100979819D02*
X141580952Y-99979819D01*
X141580952Y-99979819D02*
X141914285Y-100979819D01*
X142819047Y-100979819D02*
X142485714Y-100503628D01*
X142247619Y-100979819D02*
X142247619Y-99979819D01*
X142247619Y-99979819D02*
X142628571Y-99979819D01*
X142628571Y-99979819D02*
X142723809Y-100027438D01*
X142723809Y-100027438D02*
X142771428Y-100075057D01*
X142771428Y-100075057D02*
X142819047Y-100170295D01*
X142819047Y-100170295D02*
X142819047Y-100313152D01*
X142819047Y-100313152D02*
X142771428Y-100408390D01*
X142771428Y-100408390D02*
X142723809Y-100456009D01*
X142723809Y-100456009D02*
X142628571Y-100503628D01*
X142628571Y-100503628D02*
X142247619Y-100503628D01*
X191531905Y-114494819D02*
X191531905Y-113494819D01*
X191531905Y-113494819D02*
X191770000Y-113494819D01*
X191770000Y-113494819D02*
X191912857Y-113542438D01*
X191912857Y-113542438D02*
X192008095Y-113637676D01*
X192008095Y-113637676D02*
X192055714Y-113732914D01*
X192055714Y-113732914D02*
X192103333Y-113923390D01*
X192103333Y-113923390D02*
X192103333Y-114066247D01*
X192103333Y-114066247D02*
X192055714Y-114256723D01*
X192055714Y-114256723D02*
X192008095Y-114351961D01*
X192008095Y-114351961D02*
X191912857Y-114447200D01*
X191912857Y-114447200D02*
X191770000Y-114494819D01*
X191770000Y-114494819D02*
X191531905Y-114494819D01*
X192436667Y-113494819D02*
X193055714Y-113494819D01*
X193055714Y-113494819D02*
X192722381Y-113875771D01*
X192722381Y-113875771D02*
X192865238Y-113875771D01*
X192865238Y-113875771D02*
X192960476Y-113923390D01*
X192960476Y-113923390D02*
X193008095Y-113971009D01*
X193008095Y-113971009D02*
X193055714Y-114066247D01*
X193055714Y-114066247D02*
X193055714Y-114304342D01*
X193055714Y-114304342D02*
X193008095Y-114399580D01*
X193008095Y-114399580D02*
X192960476Y-114447200D01*
X192960476Y-114447200D02*
X192865238Y-114494819D01*
X192865238Y-114494819D02*
X192579524Y-114494819D01*
X192579524Y-114494819D02*
X192484286Y-114447200D01*
X192484286Y-114447200D02*
X192436667Y-114399580D01*
D11*
X101228095Y-74582419D02*
X101228095Y-75391942D01*
X101228095Y-75391942D02*
X101275714Y-75487180D01*
X101275714Y-75487180D02*
X101323333Y-75534800D01*
X101323333Y-75534800D02*
X101418571Y-75582419D01*
X101418571Y-75582419D02*
X101609047Y-75582419D01*
X101609047Y-75582419D02*
X101704285Y-75534800D01*
X101704285Y-75534800D02*
X101751904Y-75487180D01*
X101751904Y-75487180D02*
X101799523Y-75391942D01*
X101799523Y-75391942D02*
X101799523Y-74582419D01*
X102704285Y-74582419D02*
X102513809Y-74582419D01*
X102513809Y-74582419D02*
X102418571Y-74630038D01*
X102418571Y-74630038D02*
X102370952Y-74677657D01*
X102370952Y-74677657D02*
X102275714Y-74820514D01*
X102275714Y-74820514D02*
X102228095Y-75010990D01*
X102228095Y-75010990D02*
X102228095Y-75391942D01*
X102228095Y-75391942D02*
X102275714Y-75487180D01*
X102275714Y-75487180D02*
X102323333Y-75534800D01*
X102323333Y-75534800D02*
X102418571Y-75582419D01*
X102418571Y-75582419D02*
X102609047Y-75582419D01*
X102609047Y-75582419D02*
X102704285Y-75534800D01*
X102704285Y-75534800D02*
X102751904Y-75487180D01*
X102751904Y-75487180D02*
X102799523Y-75391942D01*
X102799523Y-75391942D02*
X102799523Y-75153847D01*
X102799523Y-75153847D02*
X102751904Y-75058609D01*
X102751904Y-75058609D02*
X102704285Y-75010990D01*
X102704285Y-75010990D02*
X102609047Y-74963371D01*
X102609047Y-74963371D02*
X102418571Y-74963371D01*
X102418571Y-74963371D02*
X102323333Y-75010990D01*
X102323333Y-75010990D02*
X102275714Y-75058609D01*
X102275714Y-75058609D02*
X102228095Y-75153847D01*
D10*
X99442380Y-100979819D02*
X98870952Y-100979819D01*
X99156666Y-100979819D02*
X99156666Y-99979819D01*
X99156666Y-99979819D02*
X99061428Y-100122676D01*
X99061428Y-100122676D02*
X98966190Y-100217914D01*
X98966190Y-100217914D02*
X98870952Y-100265533D01*
X99823333Y-100075057D02*
X99870952Y-100027438D01*
X99870952Y-100027438D02*
X99966190Y-99979819D01*
X99966190Y-99979819D02*
X100204285Y-99979819D01*
X100204285Y-99979819D02*
X100299523Y-100027438D01*
X100299523Y-100027438D02*
X100347142Y-100075057D01*
X100347142Y-100075057D02*
X100394761Y-100170295D01*
X100394761Y-100170295D02*
X100394761Y-100265533D01*
X100394761Y-100265533D02*
X100347142Y-100408390D01*
X100347142Y-100408390D02*
X99775714Y-100979819D01*
X99775714Y-100979819D02*
X100394761Y-100979819D01*
X101347142Y-100979819D02*
X100775714Y-100979819D01*
X101061428Y-100979819D02*
X101061428Y-99979819D01*
X101061428Y-99979819D02*
X100966190Y-100122676D01*
X100966190Y-100122676D02*
X100870952Y-100217914D01*
X100870952Y-100217914D02*
X100775714Y-100265533D01*
X101966190Y-99979819D02*
X102061428Y-99979819D01*
X102061428Y-99979819D02*
X102156666Y-100027438D01*
X102156666Y-100027438D02*
X102204285Y-100075057D01*
X102204285Y-100075057D02*
X102251904Y-100170295D01*
X102251904Y-100170295D02*
X102299523Y-100360771D01*
X102299523Y-100360771D02*
X102299523Y-100598866D01*
X102299523Y-100598866D02*
X102251904Y-100789342D01*
X102251904Y-100789342D02*
X102204285Y-100884580D01*
X102204285Y-100884580D02*
X102156666Y-100932200D01*
X102156666Y-100932200D02*
X102061428Y-100979819D01*
X102061428Y-100979819D02*
X101966190Y-100979819D01*
X101966190Y-100979819D02*
X101870952Y-100932200D01*
X101870952Y-100932200D02*
X101823333Y-100884580D01*
X101823333Y-100884580D02*
X101775714Y-100789342D01*
X101775714Y-100789342D02*
X101728095Y-100598866D01*
X101728095Y-100598866D02*
X101728095Y-100360771D01*
X101728095Y-100360771D02*
X101775714Y-100170295D01*
X101775714Y-100170295D02*
X101823333Y-100075057D01*
X101823333Y-100075057D02*
X101870952Y-100027438D01*
X101870952Y-100027438D02*
X101966190Y-99979819D01*
X103251904Y-100979819D02*
X102680476Y-100979819D01*
X102966190Y-100979819D02*
X102966190Y-99979819D01*
X102966190Y-99979819D02*
X102870952Y-100122676D01*
X102870952Y-100122676D02*
X102775714Y-100217914D01*
X102775714Y-100217914D02*
X102680476Y-100265533D01*
X103632857Y-100694104D02*
X104109047Y-100694104D01*
X103537619Y-100979819D02*
X103870952Y-99979819D01*
X103870952Y-99979819D02*
X104204285Y-100979819D01*
X105109047Y-100979819D02*
X104775714Y-100503628D01*
X104537619Y-100979819D02*
X104537619Y-99979819D01*
X104537619Y-99979819D02*
X104918571Y-99979819D01*
X104918571Y-99979819D02*
X105013809Y-100027438D01*
X105013809Y-100027438D02*
X105061428Y-100075057D01*
X105061428Y-100075057D02*
X105109047Y-100170295D01*
X105109047Y-100170295D02*
X105109047Y-100313152D01*
X105109047Y-100313152D02*
X105061428Y-100408390D01*
X105061428Y-100408390D02*
X105013809Y-100456009D01*
X105013809Y-100456009D02*
X104918571Y-100503628D01*
X104918571Y-100503628D02*
X104537619Y-100503628D01*
X205166667Y-81907200D02*
X205309524Y-81954819D01*
X205309524Y-81954819D02*
X205547619Y-81954819D01*
X205547619Y-81954819D02*
X205642857Y-81907200D01*
X205642857Y-81907200D02*
X205690476Y-81859580D01*
X205690476Y-81859580D02*
X205738095Y-81764342D01*
X205738095Y-81764342D02*
X205738095Y-81669104D01*
X205738095Y-81669104D02*
X205690476Y-81573866D01*
X205690476Y-81573866D02*
X205642857Y-81526247D01*
X205642857Y-81526247D02*
X205547619Y-81478628D01*
X205547619Y-81478628D02*
X205357143Y-81431009D01*
X205357143Y-81431009D02*
X205261905Y-81383390D01*
X205261905Y-81383390D02*
X205214286Y-81335771D01*
X205214286Y-81335771D02*
X205166667Y-81240533D01*
X205166667Y-81240533D02*
X205166667Y-81145295D01*
X205166667Y-81145295D02*
X205214286Y-81050057D01*
X205214286Y-81050057D02*
X205261905Y-81002438D01*
X205261905Y-81002438D02*
X205357143Y-80954819D01*
X205357143Y-80954819D02*
X205595238Y-80954819D01*
X205595238Y-80954819D02*
X205738095Y-81002438D01*
X206071429Y-80954819D02*
X206309524Y-81954819D01*
X206309524Y-81954819D02*
X206500000Y-81240533D01*
X206500000Y-81240533D02*
X206690476Y-81954819D01*
X206690476Y-81954819D02*
X206928572Y-80954819D01*
X207261905Y-81050057D02*
X207309524Y-81002438D01*
X207309524Y-81002438D02*
X207404762Y-80954819D01*
X207404762Y-80954819D02*
X207642857Y-80954819D01*
X207642857Y-80954819D02*
X207738095Y-81002438D01*
X207738095Y-81002438D02*
X207785714Y-81050057D01*
X207785714Y-81050057D02*
X207833333Y-81145295D01*
X207833333Y-81145295D02*
X207833333Y-81240533D01*
X207833333Y-81240533D02*
X207785714Y-81383390D01*
X207785714Y-81383390D02*
X207214286Y-81954819D01*
X207214286Y-81954819D02*
X207833333Y-81954819D01*
X213531905Y-114494819D02*
X213531905Y-113494819D01*
X213531905Y-113494819D02*
X213770000Y-113494819D01*
X213770000Y-113494819D02*
X213912857Y-113542438D01*
X213912857Y-113542438D02*
X214008095Y-113637676D01*
X214008095Y-113637676D02*
X214055714Y-113732914D01*
X214055714Y-113732914D02*
X214103333Y-113923390D01*
X214103333Y-113923390D02*
X214103333Y-114066247D01*
X214103333Y-114066247D02*
X214055714Y-114256723D01*
X214055714Y-114256723D02*
X214008095Y-114351961D01*
X214008095Y-114351961D02*
X213912857Y-114447200D01*
X213912857Y-114447200D02*
X213770000Y-114494819D01*
X213770000Y-114494819D02*
X213531905Y-114494819D01*
X214960476Y-113494819D02*
X214770000Y-113494819D01*
X214770000Y-113494819D02*
X214674762Y-113542438D01*
X214674762Y-113542438D02*
X214627143Y-113590057D01*
X214627143Y-113590057D02*
X214531905Y-113732914D01*
X214531905Y-113732914D02*
X214484286Y-113923390D01*
X214484286Y-113923390D02*
X214484286Y-114304342D01*
X214484286Y-114304342D02*
X214531905Y-114399580D01*
X214531905Y-114399580D02*
X214579524Y-114447200D01*
X214579524Y-114447200D02*
X214674762Y-114494819D01*
X214674762Y-114494819D02*
X214865238Y-114494819D01*
X214865238Y-114494819D02*
X214960476Y-114447200D01*
X214960476Y-114447200D02*
X215008095Y-114399580D01*
X215008095Y-114399580D02*
X215055714Y-114304342D01*
X215055714Y-114304342D02*
X215055714Y-114066247D01*
X215055714Y-114066247D02*
X215008095Y-113971009D01*
X215008095Y-113971009D02*
X214960476Y-113923390D01*
X214960476Y-113923390D02*
X214865238Y-113875771D01*
X214865238Y-113875771D02*
X214674762Y-113875771D01*
X214674762Y-113875771D02*
X214579524Y-113923390D01*
X214579524Y-113923390D02*
X214531905Y-113971009D01*
X214531905Y-113971009D02*
X214484286Y-114066247D01*
D11*
X169238095Y-74582419D02*
X169238095Y-75391942D01*
X169238095Y-75391942D02*
X169285714Y-75487180D01*
X169285714Y-75487180D02*
X169333333Y-75534800D01*
X169333333Y-75534800D02*
X169428571Y-75582419D01*
X169428571Y-75582419D02*
X169619047Y-75582419D01*
X169619047Y-75582419D02*
X169714285Y-75534800D01*
X169714285Y-75534800D02*
X169761904Y-75487180D01*
X169761904Y-75487180D02*
X169809523Y-75391942D01*
X169809523Y-75391942D02*
X169809523Y-74582419D01*
X170428571Y-75010990D02*
X170333333Y-74963371D01*
X170333333Y-74963371D02*
X170285714Y-74915752D01*
X170285714Y-74915752D02*
X170238095Y-74820514D01*
X170238095Y-74820514D02*
X170238095Y-74772895D01*
X170238095Y-74772895D02*
X170285714Y-74677657D01*
X170285714Y-74677657D02*
X170333333Y-74630038D01*
X170333333Y-74630038D02*
X170428571Y-74582419D01*
X170428571Y-74582419D02*
X170619047Y-74582419D01*
X170619047Y-74582419D02*
X170714285Y-74630038D01*
X170714285Y-74630038D02*
X170761904Y-74677657D01*
X170761904Y-74677657D02*
X170809523Y-74772895D01*
X170809523Y-74772895D02*
X170809523Y-74820514D01*
X170809523Y-74820514D02*
X170761904Y-74915752D01*
X170761904Y-74915752D02*
X170714285Y-74963371D01*
X170714285Y-74963371D02*
X170619047Y-75010990D01*
X170619047Y-75010990D02*
X170428571Y-75010990D01*
X170428571Y-75010990D02*
X170333333Y-75058609D01*
X170333333Y-75058609D02*
X170285714Y-75106228D01*
X170285714Y-75106228D02*
X170238095Y-75201466D01*
X170238095Y-75201466D02*
X170238095Y-75391942D01*
X170238095Y-75391942D02*
X170285714Y-75487180D01*
X170285714Y-75487180D02*
X170333333Y-75534800D01*
X170333333Y-75534800D02*
X170428571Y-75582419D01*
X170428571Y-75582419D02*
X170619047Y-75582419D01*
X170619047Y-75582419D02*
X170714285Y-75534800D01*
X170714285Y-75534800D02*
X170761904Y-75487180D01*
X170761904Y-75487180D02*
X170809523Y-75391942D01*
X170809523Y-75391942D02*
X170809523Y-75201466D01*
X170809523Y-75201466D02*
X170761904Y-75106228D01*
X170761904Y-75106228D02*
X170714285Y-75058609D01*
X170714285Y-75058609D02*
X170619047Y-75010990D01*
D10*
X167452380Y-100979819D02*
X166880952Y-100979819D01*
X167166666Y-100979819D02*
X167166666Y-99979819D01*
X167166666Y-99979819D02*
X167071428Y-100122676D01*
X167071428Y-100122676D02*
X166976190Y-100217914D01*
X166976190Y-100217914D02*
X166880952Y-100265533D01*
X167833333Y-100075057D02*
X167880952Y-100027438D01*
X167880952Y-100027438D02*
X167976190Y-99979819D01*
X167976190Y-99979819D02*
X168214285Y-99979819D01*
X168214285Y-99979819D02*
X168309523Y-100027438D01*
X168309523Y-100027438D02*
X168357142Y-100075057D01*
X168357142Y-100075057D02*
X168404761Y-100170295D01*
X168404761Y-100170295D02*
X168404761Y-100265533D01*
X168404761Y-100265533D02*
X168357142Y-100408390D01*
X168357142Y-100408390D02*
X167785714Y-100979819D01*
X167785714Y-100979819D02*
X168404761Y-100979819D01*
X169357142Y-100979819D02*
X168785714Y-100979819D01*
X169071428Y-100979819D02*
X169071428Y-99979819D01*
X169071428Y-99979819D02*
X168976190Y-100122676D01*
X168976190Y-100122676D02*
X168880952Y-100217914D01*
X168880952Y-100217914D02*
X168785714Y-100265533D01*
X169976190Y-99979819D02*
X170071428Y-99979819D01*
X170071428Y-99979819D02*
X170166666Y-100027438D01*
X170166666Y-100027438D02*
X170214285Y-100075057D01*
X170214285Y-100075057D02*
X170261904Y-100170295D01*
X170261904Y-100170295D02*
X170309523Y-100360771D01*
X170309523Y-100360771D02*
X170309523Y-100598866D01*
X170309523Y-100598866D02*
X170261904Y-100789342D01*
X170261904Y-100789342D02*
X170214285Y-100884580D01*
X170214285Y-100884580D02*
X170166666Y-100932200D01*
X170166666Y-100932200D02*
X170071428Y-100979819D01*
X170071428Y-100979819D02*
X169976190Y-100979819D01*
X169976190Y-100979819D02*
X169880952Y-100932200D01*
X169880952Y-100932200D02*
X169833333Y-100884580D01*
X169833333Y-100884580D02*
X169785714Y-100789342D01*
X169785714Y-100789342D02*
X169738095Y-100598866D01*
X169738095Y-100598866D02*
X169738095Y-100360771D01*
X169738095Y-100360771D02*
X169785714Y-100170295D01*
X169785714Y-100170295D02*
X169833333Y-100075057D01*
X169833333Y-100075057D02*
X169880952Y-100027438D01*
X169880952Y-100027438D02*
X169976190Y-99979819D01*
X171261904Y-100979819D02*
X170690476Y-100979819D01*
X170976190Y-100979819D02*
X170976190Y-99979819D01*
X170976190Y-99979819D02*
X170880952Y-100122676D01*
X170880952Y-100122676D02*
X170785714Y-100217914D01*
X170785714Y-100217914D02*
X170690476Y-100265533D01*
X171642857Y-100694104D02*
X172119047Y-100694104D01*
X171547619Y-100979819D02*
X171880952Y-99979819D01*
X171880952Y-99979819D02*
X172214285Y-100979819D01*
X173119047Y-100979819D02*
X172785714Y-100503628D01*
X172547619Y-100979819D02*
X172547619Y-99979819D01*
X172547619Y-99979819D02*
X172928571Y-99979819D01*
X172928571Y-99979819D02*
X173023809Y-100027438D01*
X173023809Y-100027438D02*
X173071428Y-100075057D01*
X173071428Y-100075057D02*
X173119047Y-100170295D01*
X173119047Y-100170295D02*
X173119047Y-100313152D01*
X173119047Y-100313152D02*
X173071428Y-100408390D01*
X173071428Y-100408390D02*
X173023809Y-100456009D01*
X173023809Y-100456009D02*
X172928571Y-100503628D01*
X172928571Y-100503628D02*
X172547619Y-100503628D01*
X215166667Y-78157200D02*
X215309524Y-78204819D01*
X215309524Y-78204819D02*
X215547619Y-78204819D01*
X215547619Y-78204819D02*
X215642857Y-78157200D01*
X215642857Y-78157200D02*
X215690476Y-78109580D01*
X215690476Y-78109580D02*
X215738095Y-78014342D01*
X215738095Y-78014342D02*
X215738095Y-77919104D01*
X215738095Y-77919104D02*
X215690476Y-77823866D01*
X215690476Y-77823866D02*
X215642857Y-77776247D01*
X215642857Y-77776247D02*
X215547619Y-77728628D01*
X215547619Y-77728628D02*
X215357143Y-77681009D01*
X215357143Y-77681009D02*
X215261905Y-77633390D01*
X215261905Y-77633390D02*
X215214286Y-77585771D01*
X215214286Y-77585771D02*
X215166667Y-77490533D01*
X215166667Y-77490533D02*
X215166667Y-77395295D01*
X215166667Y-77395295D02*
X215214286Y-77300057D01*
X215214286Y-77300057D02*
X215261905Y-77252438D01*
X215261905Y-77252438D02*
X215357143Y-77204819D01*
X215357143Y-77204819D02*
X215595238Y-77204819D01*
X215595238Y-77204819D02*
X215738095Y-77252438D01*
X216071429Y-77204819D02*
X216309524Y-78204819D01*
X216309524Y-78204819D02*
X216500000Y-77490533D01*
X216500000Y-77490533D02*
X216690476Y-78204819D01*
X216690476Y-78204819D02*
X216928572Y-77204819D01*
X217833333Y-78204819D02*
X217261905Y-78204819D01*
X217547619Y-78204819D02*
X217547619Y-77204819D01*
X217547619Y-77204819D02*
X217452381Y-77347676D01*
X217452381Y-77347676D02*
X217357143Y-77442914D01*
X217357143Y-77442914D02*
X217261905Y-77490533D01*
D11*
X70928095Y-74582419D02*
X70928095Y-75391942D01*
X70928095Y-75391942D02*
X70975714Y-75487180D01*
X70975714Y-75487180D02*
X71023333Y-75534800D01*
X71023333Y-75534800D02*
X71118571Y-75582419D01*
X71118571Y-75582419D02*
X71309047Y-75582419D01*
X71309047Y-75582419D02*
X71404285Y-75534800D01*
X71404285Y-75534800D02*
X71451904Y-75487180D01*
X71451904Y-75487180D02*
X71499523Y-75391942D01*
X71499523Y-75391942D02*
X71499523Y-74582419D01*
X72451904Y-74582419D02*
X71975714Y-74582419D01*
X71975714Y-74582419D02*
X71928095Y-75058609D01*
X71928095Y-75058609D02*
X71975714Y-75010990D01*
X71975714Y-75010990D02*
X72070952Y-74963371D01*
X72070952Y-74963371D02*
X72309047Y-74963371D01*
X72309047Y-74963371D02*
X72404285Y-75010990D01*
X72404285Y-75010990D02*
X72451904Y-75058609D01*
X72451904Y-75058609D02*
X72499523Y-75153847D01*
X72499523Y-75153847D02*
X72499523Y-75391942D01*
X72499523Y-75391942D02*
X72451904Y-75487180D01*
X72451904Y-75487180D02*
X72404285Y-75534800D01*
X72404285Y-75534800D02*
X72309047Y-75582419D01*
X72309047Y-75582419D02*
X72070952Y-75582419D01*
X72070952Y-75582419D02*
X71975714Y-75534800D01*
X71975714Y-75534800D02*
X71928095Y-75487180D01*
D10*
X69142380Y-100979819D02*
X68570952Y-100979819D01*
X68856666Y-100979819D02*
X68856666Y-99979819D01*
X68856666Y-99979819D02*
X68761428Y-100122676D01*
X68761428Y-100122676D02*
X68666190Y-100217914D01*
X68666190Y-100217914D02*
X68570952Y-100265533D01*
X69523333Y-100075057D02*
X69570952Y-100027438D01*
X69570952Y-100027438D02*
X69666190Y-99979819D01*
X69666190Y-99979819D02*
X69904285Y-99979819D01*
X69904285Y-99979819D02*
X69999523Y-100027438D01*
X69999523Y-100027438D02*
X70047142Y-100075057D01*
X70047142Y-100075057D02*
X70094761Y-100170295D01*
X70094761Y-100170295D02*
X70094761Y-100265533D01*
X70094761Y-100265533D02*
X70047142Y-100408390D01*
X70047142Y-100408390D02*
X69475714Y-100979819D01*
X69475714Y-100979819D02*
X70094761Y-100979819D01*
X71047142Y-100979819D02*
X70475714Y-100979819D01*
X70761428Y-100979819D02*
X70761428Y-99979819D01*
X70761428Y-99979819D02*
X70666190Y-100122676D01*
X70666190Y-100122676D02*
X70570952Y-100217914D01*
X70570952Y-100217914D02*
X70475714Y-100265533D01*
X71666190Y-99979819D02*
X71761428Y-99979819D01*
X71761428Y-99979819D02*
X71856666Y-100027438D01*
X71856666Y-100027438D02*
X71904285Y-100075057D01*
X71904285Y-100075057D02*
X71951904Y-100170295D01*
X71951904Y-100170295D02*
X71999523Y-100360771D01*
X71999523Y-100360771D02*
X71999523Y-100598866D01*
X71999523Y-100598866D02*
X71951904Y-100789342D01*
X71951904Y-100789342D02*
X71904285Y-100884580D01*
X71904285Y-100884580D02*
X71856666Y-100932200D01*
X71856666Y-100932200D02*
X71761428Y-100979819D01*
X71761428Y-100979819D02*
X71666190Y-100979819D01*
X71666190Y-100979819D02*
X71570952Y-100932200D01*
X71570952Y-100932200D02*
X71523333Y-100884580D01*
X71523333Y-100884580D02*
X71475714Y-100789342D01*
X71475714Y-100789342D02*
X71428095Y-100598866D01*
X71428095Y-100598866D02*
X71428095Y-100360771D01*
X71428095Y-100360771D02*
X71475714Y-100170295D01*
X71475714Y-100170295D02*
X71523333Y-100075057D01*
X71523333Y-100075057D02*
X71570952Y-100027438D01*
X71570952Y-100027438D02*
X71666190Y-99979819D01*
X72951904Y-100979819D02*
X72380476Y-100979819D01*
X72666190Y-100979819D02*
X72666190Y-99979819D01*
X72666190Y-99979819D02*
X72570952Y-100122676D01*
X72570952Y-100122676D02*
X72475714Y-100217914D01*
X72475714Y-100217914D02*
X72380476Y-100265533D01*
X73332857Y-100694104D02*
X73809047Y-100694104D01*
X73237619Y-100979819D02*
X73570952Y-99979819D01*
X73570952Y-99979819D02*
X73904285Y-100979819D01*
X74809047Y-100979819D02*
X74475714Y-100503628D01*
X74237619Y-100979819D02*
X74237619Y-99979819D01*
X74237619Y-99979819D02*
X74618571Y-99979819D01*
X74618571Y-99979819D02*
X74713809Y-100027438D01*
X74713809Y-100027438D02*
X74761428Y-100075057D01*
X74761428Y-100075057D02*
X74809047Y-100170295D01*
X74809047Y-100170295D02*
X74809047Y-100313152D01*
X74809047Y-100313152D02*
X74761428Y-100408390D01*
X74761428Y-100408390D02*
X74713809Y-100456009D01*
X74713809Y-100456009D02*
X74618571Y-100503628D01*
X74618571Y-100503628D02*
X74237619Y-100503628D01*
X225166667Y-81907200D02*
X225309524Y-81954819D01*
X225309524Y-81954819D02*
X225547619Y-81954819D01*
X225547619Y-81954819D02*
X225642857Y-81907200D01*
X225642857Y-81907200D02*
X225690476Y-81859580D01*
X225690476Y-81859580D02*
X225738095Y-81764342D01*
X225738095Y-81764342D02*
X225738095Y-81669104D01*
X225738095Y-81669104D02*
X225690476Y-81573866D01*
X225690476Y-81573866D02*
X225642857Y-81526247D01*
X225642857Y-81526247D02*
X225547619Y-81478628D01*
X225547619Y-81478628D02*
X225357143Y-81431009D01*
X225357143Y-81431009D02*
X225261905Y-81383390D01*
X225261905Y-81383390D02*
X225214286Y-81335771D01*
X225214286Y-81335771D02*
X225166667Y-81240533D01*
X225166667Y-81240533D02*
X225166667Y-81145295D01*
X225166667Y-81145295D02*
X225214286Y-81050057D01*
X225214286Y-81050057D02*
X225261905Y-81002438D01*
X225261905Y-81002438D02*
X225357143Y-80954819D01*
X225357143Y-80954819D02*
X225595238Y-80954819D01*
X225595238Y-80954819D02*
X225738095Y-81002438D01*
X226071429Y-80954819D02*
X226309524Y-81954819D01*
X226309524Y-81954819D02*
X226500000Y-81240533D01*
X226500000Y-81240533D02*
X226690476Y-81954819D01*
X226690476Y-81954819D02*
X226928572Y-80954819D01*
X227214286Y-80954819D02*
X227833333Y-80954819D01*
X227833333Y-80954819D02*
X227500000Y-81335771D01*
X227500000Y-81335771D02*
X227642857Y-81335771D01*
X227642857Y-81335771D02*
X227738095Y-81383390D01*
X227738095Y-81383390D02*
X227785714Y-81431009D01*
X227785714Y-81431009D02*
X227833333Y-81526247D01*
X227833333Y-81526247D02*
X227833333Y-81764342D01*
X227833333Y-81764342D02*
X227785714Y-81859580D01*
X227785714Y-81859580D02*
X227738095Y-81907200D01*
X227738095Y-81907200D02*
X227642857Y-81954819D01*
X227642857Y-81954819D02*
X227357143Y-81954819D01*
X227357143Y-81954819D02*
X227261905Y-81907200D01*
X227261905Y-81907200D02*
X227214286Y-81859580D01*
X206256905Y-114494819D02*
X206256905Y-113494819D01*
X206256905Y-113494819D02*
X206495000Y-113494819D01*
X206495000Y-113494819D02*
X206637857Y-113542438D01*
X206637857Y-113542438D02*
X206733095Y-113637676D01*
X206733095Y-113637676D02*
X206780714Y-113732914D01*
X206780714Y-113732914D02*
X206828333Y-113923390D01*
X206828333Y-113923390D02*
X206828333Y-114066247D01*
X206828333Y-114066247D02*
X206780714Y-114256723D01*
X206780714Y-114256723D02*
X206733095Y-114351961D01*
X206733095Y-114351961D02*
X206637857Y-114447200D01*
X206637857Y-114447200D02*
X206495000Y-114494819D01*
X206495000Y-114494819D02*
X206256905Y-114494819D01*
X207733095Y-113494819D02*
X207256905Y-113494819D01*
X207256905Y-113494819D02*
X207209286Y-113971009D01*
X207209286Y-113971009D02*
X207256905Y-113923390D01*
X207256905Y-113923390D02*
X207352143Y-113875771D01*
X207352143Y-113875771D02*
X207590238Y-113875771D01*
X207590238Y-113875771D02*
X207685476Y-113923390D01*
X207685476Y-113923390D02*
X207733095Y-113971009D01*
X207733095Y-113971009D02*
X207780714Y-114066247D01*
X207780714Y-114066247D02*
X207780714Y-114304342D01*
X207780714Y-114304342D02*
X207733095Y-114399580D01*
X207733095Y-114399580D02*
X207685476Y-114447200D01*
X207685476Y-114447200D02*
X207590238Y-114494819D01*
X207590238Y-114494819D02*
X207352143Y-114494819D01*
X207352143Y-114494819D02*
X207256905Y-114447200D01*
X207256905Y-114447200D02*
X207209286Y-114399580D01*
D11*
X207801905Y-90457419D02*
X207801905Y-91266942D01*
X207801905Y-91266942D02*
X207849524Y-91362180D01*
X207849524Y-91362180D02*
X207897143Y-91409800D01*
X207897143Y-91409800D02*
X207992381Y-91457419D01*
X207992381Y-91457419D02*
X208182857Y-91457419D01*
X208182857Y-91457419D02*
X208278095Y-91409800D01*
X208278095Y-91409800D02*
X208325714Y-91362180D01*
X208325714Y-91362180D02*
X208373333Y-91266942D01*
X208373333Y-91266942D02*
X208373333Y-90457419D01*
X209373333Y-91457419D02*
X208801905Y-91457419D01*
X209087619Y-91457419D02*
X209087619Y-90457419D01*
X209087619Y-90457419D02*
X208992381Y-90600276D01*
X208992381Y-90600276D02*
X208897143Y-90695514D01*
X208897143Y-90695514D02*
X208801905Y-90743133D01*
X210325714Y-91457419D02*
X209754286Y-91457419D01*
X210040000Y-91457419D02*
X210040000Y-90457419D01*
X210040000Y-90457419D02*
X209944762Y-90600276D01*
X209944762Y-90600276D02*
X209849524Y-90695514D01*
X209849524Y-90695514D02*
X209754286Y-90743133D01*
X206944761Y-104457419D02*
X206468571Y-104457419D01*
X206468571Y-104457419D02*
X206420952Y-104933609D01*
X206420952Y-104933609D02*
X206468571Y-104885990D01*
X206468571Y-104885990D02*
X206563809Y-104838371D01*
X206563809Y-104838371D02*
X206801904Y-104838371D01*
X206801904Y-104838371D02*
X206897142Y-104885990D01*
X206897142Y-104885990D02*
X206944761Y-104933609D01*
X206944761Y-104933609D02*
X206992380Y-105028847D01*
X206992380Y-105028847D02*
X206992380Y-105266942D01*
X206992380Y-105266942D02*
X206944761Y-105362180D01*
X206944761Y-105362180D02*
X206897142Y-105409800D01*
X206897142Y-105409800D02*
X206801904Y-105457419D01*
X206801904Y-105457419D02*
X206563809Y-105457419D01*
X206563809Y-105457419D02*
X206468571Y-105409800D01*
X206468571Y-105409800D02*
X206420952Y-105362180D01*
X207944761Y-105457419D02*
X207373333Y-105457419D01*
X207659047Y-105457419D02*
X207659047Y-104457419D01*
X207659047Y-104457419D02*
X207563809Y-104600276D01*
X207563809Y-104600276D02*
X207468571Y-104695514D01*
X207468571Y-104695514D02*
X207373333Y-104743133D01*
X208801904Y-104457419D02*
X208611428Y-104457419D01*
X208611428Y-104457419D02*
X208516190Y-104505038D01*
X208516190Y-104505038D02*
X208468571Y-104552657D01*
X208468571Y-104552657D02*
X208373333Y-104695514D01*
X208373333Y-104695514D02*
X208325714Y-104885990D01*
X208325714Y-104885990D02*
X208325714Y-105266942D01*
X208325714Y-105266942D02*
X208373333Y-105362180D01*
X208373333Y-105362180D02*
X208420952Y-105409800D01*
X208420952Y-105409800D02*
X208516190Y-105457419D01*
X208516190Y-105457419D02*
X208706666Y-105457419D01*
X208706666Y-105457419D02*
X208801904Y-105409800D01*
X208801904Y-105409800D02*
X208849523Y-105362180D01*
X208849523Y-105362180D02*
X208897142Y-105266942D01*
X208897142Y-105266942D02*
X208897142Y-105028847D01*
X208897142Y-105028847D02*
X208849523Y-104933609D01*
X208849523Y-104933609D02*
X208801904Y-104885990D01*
X208801904Y-104885990D02*
X208706666Y-104838371D01*
X208706666Y-104838371D02*
X208516190Y-104838371D01*
X208516190Y-104838371D02*
X208420952Y-104885990D01*
X208420952Y-104885990D02*
X208373333Y-104933609D01*
X208373333Y-104933609D02*
X208325714Y-105028847D01*
X209849523Y-105457419D02*
X209278095Y-105457419D01*
X209563809Y-105457419D02*
X209563809Y-104457419D01*
X209563809Y-104457419D02*
X209468571Y-104600276D01*
X209468571Y-104600276D02*
X209373333Y-104695514D01*
X209373333Y-104695514D02*
X209278095Y-104743133D01*
X210230476Y-105171704D02*
X210706666Y-105171704D01*
X210135238Y-105457419D02*
X210468571Y-104457419D01*
X210468571Y-104457419D02*
X210801904Y-105457419D01*
X211087619Y-105409800D02*
X211230476Y-105457419D01*
X211230476Y-105457419D02*
X211468571Y-105457419D01*
X211468571Y-105457419D02*
X211563809Y-105409800D01*
X211563809Y-105409800D02*
X211611428Y-105362180D01*
X211611428Y-105362180D02*
X211659047Y-105266942D01*
X211659047Y-105266942D02*
X211659047Y-105171704D01*
X211659047Y-105171704D02*
X211611428Y-105076466D01*
X211611428Y-105076466D02*
X211563809Y-105028847D01*
X211563809Y-105028847D02*
X211468571Y-104981228D01*
X211468571Y-104981228D02*
X211278095Y-104933609D01*
X211278095Y-104933609D02*
X211182857Y-104885990D01*
X211182857Y-104885990D02*
X211135238Y-104838371D01*
X211135238Y-104838371D02*
X211087619Y-104743133D01*
X211087619Y-104743133D02*
X211087619Y-104647895D01*
X211087619Y-104647895D02*
X211135238Y-104552657D01*
X211135238Y-104552657D02*
X211182857Y-104505038D01*
X211182857Y-104505038D02*
X211278095Y-104457419D01*
X211278095Y-104457419D02*
X211516190Y-104457419D01*
X211516190Y-104457419D02*
X211659047Y-104505038D01*
D10*
X215166667Y-86157200D02*
X215309524Y-86204819D01*
X215309524Y-86204819D02*
X215547619Y-86204819D01*
X215547619Y-86204819D02*
X215642857Y-86157200D01*
X215642857Y-86157200D02*
X215690476Y-86109580D01*
X215690476Y-86109580D02*
X215738095Y-86014342D01*
X215738095Y-86014342D02*
X215738095Y-85919104D01*
X215738095Y-85919104D02*
X215690476Y-85823866D01*
X215690476Y-85823866D02*
X215642857Y-85776247D01*
X215642857Y-85776247D02*
X215547619Y-85728628D01*
X215547619Y-85728628D02*
X215357143Y-85681009D01*
X215357143Y-85681009D02*
X215261905Y-85633390D01*
X215261905Y-85633390D02*
X215214286Y-85585771D01*
X215214286Y-85585771D02*
X215166667Y-85490533D01*
X215166667Y-85490533D02*
X215166667Y-85395295D01*
X215166667Y-85395295D02*
X215214286Y-85300057D01*
X215214286Y-85300057D02*
X215261905Y-85252438D01*
X215261905Y-85252438D02*
X215357143Y-85204819D01*
X215357143Y-85204819D02*
X215595238Y-85204819D01*
X215595238Y-85204819D02*
X215738095Y-85252438D01*
X216071429Y-85204819D02*
X216309524Y-86204819D01*
X216309524Y-86204819D02*
X216500000Y-85490533D01*
X216500000Y-85490533D02*
X216690476Y-86204819D01*
X216690476Y-86204819D02*
X216928572Y-85204819D01*
X217738095Y-85538152D02*
X217738095Y-86204819D01*
X217500000Y-85157200D02*
X217261905Y-85871485D01*
X217261905Y-85871485D02*
X217880952Y-85871485D01*
D11*
X235761905Y-90457419D02*
X235761905Y-91266942D01*
X235761905Y-91266942D02*
X235809524Y-91362180D01*
X235809524Y-91362180D02*
X235857143Y-91409800D01*
X235857143Y-91409800D02*
X235952381Y-91457419D01*
X235952381Y-91457419D02*
X236142857Y-91457419D01*
X236142857Y-91457419D02*
X236238095Y-91409800D01*
X236238095Y-91409800D02*
X236285714Y-91362180D01*
X236285714Y-91362180D02*
X236333333Y-91266942D01*
X236333333Y-91266942D02*
X236333333Y-90457419D01*
X237333333Y-91457419D02*
X236761905Y-91457419D01*
X237047619Y-91457419D02*
X237047619Y-90457419D01*
X237047619Y-90457419D02*
X236952381Y-90600276D01*
X236952381Y-90600276D02*
X236857143Y-90695514D01*
X236857143Y-90695514D02*
X236761905Y-90743133D01*
X237666667Y-90457419D02*
X238285714Y-90457419D01*
X238285714Y-90457419D02*
X237952381Y-90838371D01*
X237952381Y-90838371D02*
X238095238Y-90838371D01*
X238095238Y-90838371D02*
X238190476Y-90885990D01*
X238190476Y-90885990D02*
X238238095Y-90933609D01*
X238238095Y-90933609D02*
X238285714Y-91028847D01*
X238285714Y-91028847D02*
X238285714Y-91266942D01*
X238285714Y-91266942D02*
X238238095Y-91362180D01*
X238238095Y-91362180D02*
X238190476Y-91409800D01*
X238190476Y-91409800D02*
X238095238Y-91457419D01*
X238095238Y-91457419D02*
X237809524Y-91457419D01*
X237809524Y-91457419D02*
X237714286Y-91409800D01*
X237714286Y-91409800D02*
X237666667Y-91362180D01*
X234904761Y-104457419D02*
X234428571Y-104457419D01*
X234428571Y-104457419D02*
X234380952Y-104933609D01*
X234380952Y-104933609D02*
X234428571Y-104885990D01*
X234428571Y-104885990D02*
X234523809Y-104838371D01*
X234523809Y-104838371D02*
X234761904Y-104838371D01*
X234761904Y-104838371D02*
X234857142Y-104885990D01*
X234857142Y-104885990D02*
X234904761Y-104933609D01*
X234904761Y-104933609D02*
X234952380Y-105028847D01*
X234952380Y-105028847D02*
X234952380Y-105266942D01*
X234952380Y-105266942D02*
X234904761Y-105362180D01*
X234904761Y-105362180D02*
X234857142Y-105409800D01*
X234857142Y-105409800D02*
X234761904Y-105457419D01*
X234761904Y-105457419D02*
X234523809Y-105457419D01*
X234523809Y-105457419D02*
X234428571Y-105409800D01*
X234428571Y-105409800D02*
X234380952Y-105362180D01*
X235904761Y-105457419D02*
X235333333Y-105457419D01*
X235619047Y-105457419D02*
X235619047Y-104457419D01*
X235619047Y-104457419D02*
X235523809Y-104600276D01*
X235523809Y-104600276D02*
X235428571Y-104695514D01*
X235428571Y-104695514D02*
X235333333Y-104743133D01*
X236761904Y-104457419D02*
X236571428Y-104457419D01*
X236571428Y-104457419D02*
X236476190Y-104505038D01*
X236476190Y-104505038D02*
X236428571Y-104552657D01*
X236428571Y-104552657D02*
X236333333Y-104695514D01*
X236333333Y-104695514D02*
X236285714Y-104885990D01*
X236285714Y-104885990D02*
X236285714Y-105266942D01*
X236285714Y-105266942D02*
X236333333Y-105362180D01*
X236333333Y-105362180D02*
X236380952Y-105409800D01*
X236380952Y-105409800D02*
X236476190Y-105457419D01*
X236476190Y-105457419D02*
X236666666Y-105457419D01*
X236666666Y-105457419D02*
X236761904Y-105409800D01*
X236761904Y-105409800D02*
X236809523Y-105362180D01*
X236809523Y-105362180D02*
X236857142Y-105266942D01*
X236857142Y-105266942D02*
X236857142Y-105028847D01*
X236857142Y-105028847D02*
X236809523Y-104933609D01*
X236809523Y-104933609D02*
X236761904Y-104885990D01*
X236761904Y-104885990D02*
X236666666Y-104838371D01*
X236666666Y-104838371D02*
X236476190Y-104838371D01*
X236476190Y-104838371D02*
X236380952Y-104885990D01*
X236380952Y-104885990D02*
X236333333Y-104933609D01*
X236333333Y-104933609D02*
X236285714Y-105028847D01*
X237809523Y-105457419D02*
X237238095Y-105457419D01*
X237523809Y-105457419D02*
X237523809Y-104457419D01*
X237523809Y-104457419D02*
X237428571Y-104600276D01*
X237428571Y-104600276D02*
X237333333Y-104695514D01*
X237333333Y-104695514D02*
X237238095Y-104743133D01*
X238190476Y-105171704D02*
X238666666Y-105171704D01*
X238095238Y-105457419D02*
X238428571Y-104457419D01*
X238428571Y-104457419D02*
X238761904Y-105457419D01*
X239047619Y-105409800D02*
X239190476Y-105457419D01*
X239190476Y-105457419D02*
X239428571Y-105457419D01*
X239428571Y-105457419D02*
X239523809Y-105409800D01*
X239523809Y-105409800D02*
X239571428Y-105362180D01*
X239571428Y-105362180D02*
X239619047Y-105266942D01*
X239619047Y-105266942D02*
X239619047Y-105171704D01*
X239619047Y-105171704D02*
X239571428Y-105076466D01*
X239571428Y-105076466D02*
X239523809Y-105028847D01*
X239523809Y-105028847D02*
X239428571Y-104981228D01*
X239428571Y-104981228D02*
X239238095Y-104933609D01*
X239238095Y-104933609D02*
X239142857Y-104885990D01*
X239142857Y-104885990D02*
X239095238Y-104838371D01*
X239095238Y-104838371D02*
X239047619Y-104743133D01*
X239047619Y-104743133D02*
X239047619Y-104647895D01*
X239047619Y-104647895D02*
X239095238Y-104552657D01*
X239095238Y-104552657D02*
X239142857Y-104505038D01*
X239142857Y-104505038D02*
X239238095Y-104457419D01*
X239238095Y-104457419D02*
X239476190Y-104457419D01*
X239476190Y-104457419D02*
X239619047Y-104505038D01*
D10*
X235166667Y-81907200D02*
X235309524Y-81954819D01*
X235309524Y-81954819D02*
X235547619Y-81954819D01*
X235547619Y-81954819D02*
X235642857Y-81907200D01*
X235642857Y-81907200D02*
X235690476Y-81859580D01*
X235690476Y-81859580D02*
X235738095Y-81764342D01*
X235738095Y-81764342D02*
X235738095Y-81669104D01*
X235738095Y-81669104D02*
X235690476Y-81573866D01*
X235690476Y-81573866D02*
X235642857Y-81526247D01*
X235642857Y-81526247D02*
X235547619Y-81478628D01*
X235547619Y-81478628D02*
X235357143Y-81431009D01*
X235357143Y-81431009D02*
X235261905Y-81383390D01*
X235261905Y-81383390D02*
X235214286Y-81335771D01*
X235214286Y-81335771D02*
X235166667Y-81240533D01*
X235166667Y-81240533D02*
X235166667Y-81145295D01*
X235166667Y-81145295D02*
X235214286Y-81050057D01*
X235214286Y-81050057D02*
X235261905Y-81002438D01*
X235261905Y-81002438D02*
X235357143Y-80954819D01*
X235357143Y-80954819D02*
X235595238Y-80954819D01*
X235595238Y-80954819D02*
X235738095Y-81002438D01*
X236071429Y-80954819D02*
X236309524Y-81954819D01*
X236309524Y-81954819D02*
X236500000Y-81240533D01*
X236500000Y-81240533D02*
X236690476Y-81954819D01*
X236690476Y-81954819D02*
X236928572Y-80954819D01*
X237785714Y-80954819D02*
X237309524Y-80954819D01*
X237309524Y-80954819D02*
X237261905Y-81431009D01*
X237261905Y-81431009D02*
X237309524Y-81383390D01*
X237309524Y-81383390D02*
X237404762Y-81335771D01*
X237404762Y-81335771D02*
X237642857Y-81335771D01*
X237642857Y-81335771D02*
X237738095Y-81383390D01*
X237738095Y-81383390D02*
X237785714Y-81431009D01*
X237785714Y-81431009D02*
X237833333Y-81526247D01*
X237833333Y-81526247D02*
X237833333Y-81764342D01*
X237833333Y-81764342D02*
X237785714Y-81859580D01*
X237785714Y-81859580D02*
X237738095Y-81907200D01*
X237738095Y-81907200D02*
X237642857Y-81954819D01*
X237642857Y-81954819D02*
X237404762Y-81954819D01*
X237404762Y-81954819D02*
X237309524Y-81907200D01*
X237309524Y-81907200D02*
X237261905Y-81859580D01*
X198756905Y-114494819D02*
X198756905Y-113494819D01*
X198756905Y-113494819D02*
X198995000Y-113494819D01*
X198995000Y-113494819D02*
X199137857Y-113542438D01*
X199137857Y-113542438D02*
X199233095Y-113637676D01*
X199233095Y-113637676D02*
X199280714Y-113732914D01*
X199280714Y-113732914D02*
X199328333Y-113923390D01*
X199328333Y-113923390D02*
X199328333Y-114066247D01*
X199328333Y-114066247D02*
X199280714Y-114256723D01*
X199280714Y-114256723D02*
X199233095Y-114351961D01*
X199233095Y-114351961D02*
X199137857Y-114447200D01*
X199137857Y-114447200D02*
X198995000Y-114494819D01*
X198995000Y-114494819D02*
X198756905Y-114494819D01*
X200185476Y-113828152D02*
X200185476Y-114494819D01*
X199947381Y-113447200D02*
X199709286Y-114161485D01*
X199709286Y-114161485D02*
X200328333Y-114161485D01*
D11*
X222261905Y-90457419D02*
X222261905Y-91266942D01*
X222261905Y-91266942D02*
X222309524Y-91362180D01*
X222309524Y-91362180D02*
X222357143Y-91409800D01*
X222357143Y-91409800D02*
X222452381Y-91457419D01*
X222452381Y-91457419D02*
X222642857Y-91457419D01*
X222642857Y-91457419D02*
X222738095Y-91409800D01*
X222738095Y-91409800D02*
X222785714Y-91362180D01*
X222785714Y-91362180D02*
X222833333Y-91266942D01*
X222833333Y-91266942D02*
X222833333Y-90457419D01*
X223833333Y-91457419D02*
X223261905Y-91457419D01*
X223547619Y-91457419D02*
X223547619Y-90457419D01*
X223547619Y-90457419D02*
X223452381Y-90600276D01*
X223452381Y-90600276D02*
X223357143Y-90695514D01*
X223357143Y-90695514D02*
X223261905Y-90743133D01*
X224214286Y-90552657D02*
X224261905Y-90505038D01*
X224261905Y-90505038D02*
X224357143Y-90457419D01*
X224357143Y-90457419D02*
X224595238Y-90457419D01*
X224595238Y-90457419D02*
X224690476Y-90505038D01*
X224690476Y-90505038D02*
X224738095Y-90552657D01*
X224738095Y-90552657D02*
X224785714Y-90647895D01*
X224785714Y-90647895D02*
X224785714Y-90743133D01*
X224785714Y-90743133D02*
X224738095Y-90885990D01*
X224738095Y-90885990D02*
X224166667Y-91457419D01*
X224166667Y-91457419D02*
X224785714Y-91457419D01*
X221404761Y-104457419D02*
X220928571Y-104457419D01*
X220928571Y-104457419D02*
X220880952Y-104933609D01*
X220880952Y-104933609D02*
X220928571Y-104885990D01*
X220928571Y-104885990D02*
X221023809Y-104838371D01*
X221023809Y-104838371D02*
X221261904Y-104838371D01*
X221261904Y-104838371D02*
X221357142Y-104885990D01*
X221357142Y-104885990D02*
X221404761Y-104933609D01*
X221404761Y-104933609D02*
X221452380Y-105028847D01*
X221452380Y-105028847D02*
X221452380Y-105266942D01*
X221452380Y-105266942D02*
X221404761Y-105362180D01*
X221404761Y-105362180D02*
X221357142Y-105409800D01*
X221357142Y-105409800D02*
X221261904Y-105457419D01*
X221261904Y-105457419D02*
X221023809Y-105457419D01*
X221023809Y-105457419D02*
X220928571Y-105409800D01*
X220928571Y-105409800D02*
X220880952Y-105362180D01*
X222404761Y-105457419D02*
X221833333Y-105457419D01*
X222119047Y-105457419D02*
X222119047Y-104457419D01*
X222119047Y-104457419D02*
X222023809Y-104600276D01*
X222023809Y-104600276D02*
X221928571Y-104695514D01*
X221928571Y-104695514D02*
X221833333Y-104743133D01*
X223261904Y-104457419D02*
X223071428Y-104457419D01*
X223071428Y-104457419D02*
X222976190Y-104505038D01*
X222976190Y-104505038D02*
X222928571Y-104552657D01*
X222928571Y-104552657D02*
X222833333Y-104695514D01*
X222833333Y-104695514D02*
X222785714Y-104885990D01*
X222785714Y-104885990D02*
X222785714Y-105266942D01*
X222785714Y-105266942D02*
X222833333Y-105362180D01*
X222833333Y-105362180D02*
X222880952Y-105409800D01*
X222880952Y-105409800D02*
X222976190Y-105457419D01*
X222976190Y-105457419D02*
X223166666Y-105457419D01*
X223166666Y-105457419D02*
X223261904Y-105409800D01*
X223261904Y-105409800D02*
X223309523Y-105362180D01*
X223309523Y-105362180D02*
X223357142Y-105266942D01*
X223357142Y-105266942D02*
X223357142Y-105028847D01*
X223357142Y-105028847D02*
X223309523Y-104933609D01*
X223309523Y-104933609D02*
X223261904Y-104885990D01*
X223261904Y-104885990D02*
X223166666Y-104838371D01*
X223166666Y-104838371D02*
X222976190Y-104838371D01*
X222976190Y-104838371D02*
X222880952Y-104885990D01*
X222880952Y-104885990D02*
X222833333Y-104933609D01*
X222833333Y-104933609D02*
X222785714Y-105028847D01*
X224309523Y-105457419D02*
X223738095Y-105457419D01*
X224023809Y-105457419D02*
X224023809Y-104457419D01*
X224023809Y-104457419D02*
X223928571Y-104600276D01*
X223928571Y-104600276D02*
X223833333Y-104695514D01*
X223833333Y-104695514D02*
X223738095Y-104743133D01*
X224690476Y-105171704D02*
X225166666Y-105171704D01*
X224595238Y-105457419D02*
X224928571Y-104457419D01*
X224928571Y-104457419D02*
X225261904Y-105457419D01*
X225547619Y-105409800D02*
X225690476Y-105457419D01*
X225690476Y-105457419D02*
X225928571Y-105457419D01*
X225928571Y-105457419D02*
X226023809Y-105409800D01*
X226023809Y-105409800D02*
X226071428Y-105362180D01*
X226071428Y-105362180D02*
X226119047Y-105266942D01*
X226119047Y-105266942D02*
X226119047Y-105171704D01*
X226119047Y-105171704D02*
X226071428Y-105076466D01*
X226071428Y-105076466D02*
X226023809Y-105028847D01*
X226023809Y-105028847D02*
X225928571Y-104981228D01*
X225928571Y-104981228D02*
X225738095Y-104933609D01*
X225738095Y-104933609D02*
X225642857Y-104885990D01*
X225642857Y-104885990D02*
X225595238Y-104838371D01*
X225595238Y-104838371D02*
X225547619Y-104743133D01*
X225547619Y-104743133D02*
X225547619Y-104647895D01*
X225547619Y-104647895D02*
X225595238Y-104552657D01*
X225595238Y-104552657D02*
X225642857Y-104505038D01*
X225642857Y-104505038D02*
X225738095Y-104457419D01*
X225738095Y-104457419D02*
X225976190Y-104457419D01*
X225976190Y-104457419D02*
X226119047Y-104505038D01*
D10*
X228226905Y-114494819D02*
X228226905Y-113494819D01*
X228226905Y-113494819D02*
X228465000Y-113494819D01*
X228465000Y-113494819D02*
X228607857Y-113542438D01*
X228607857Y-113542438D02*
X228703095Y-113637676D01*
X228703095Y-113637676D02*
X228750714Y-113732914D01*
X228750714Y-113732914D02*
X228798333Y-113923390D01*
X228798333Y-113923390D02*
X228798333Y-114066247D01*
X228798333Y-114066247D02*
X228750714Y-114256723D01*
X228750714Y-114256723D02*
X228703095Y-114351961D01*
X228703095Y-114351961D02*
X228607857Y-114447200D01*
X228607857Y-114447200D02*
X228465000Y-114494819D01*
X228465000Y-114494819D02*
X228226905Y-114494819D01*
X229369762Y-113923390D02*
X229274524Y-113875771D01*
X229274524Y-113875771D02*
X229226905Y-113828152D01*
X229226905Y-113828152D02*
X229179286Y-113732914D01*
X229179286Y-113732914D02*
X229179286Y-113685295D01*
X229179286Y-113685295D02*
X229226905Y-113590057D01*
X229226905Y-113590057D02*
X229274524Y-113542438D01*
X229274524Y-113542438D02*
X229369762Y-113494819D01*
X229369762Y-113494819D02*
X229560238Y-113494819D01*
X229560238Y-113494819D02*
X229655476Y-113542438D01*
X229655476Y-113542438D02*
X229703095Y-113590057D01*
X229703095Y-113590057D02*
X229750714Y-113685295D01*
X229750714Y-113685295D02*
X229750714Y-113732914D01*
X229750714Y-113732914D02*
X229703095Y-113828152D01*
X229703095Y-113828152D02*
X229655476Y-113875771D01*
X229655476Y-113875771D02*
X229560238Y-113923390D01*
X229560238Y-113923390D02*
X229369762Y-113923390D01*
X229369762Y-113923390D02*
X229274524Y-113971009D01*
X229274524Y-113971009D02*
X229226905Y-114018628D01*
X229226905Y-114018628D02*
X229179286Y-114113866D01*
X229179286Y-114113866D02*
X229179286Y-114304342D01*
X229179286Y-114304342D02*
X229226905Y-114399580D01*
X229226905Y-114399580D02*
X229274524Y-114447200D01*
X229274524Y-114447200D02*
X229369762Y-114494819D01*
X229369762Y-114494819D02*
X229560238Y-114494819D01*
X229560238Y-114494819D02*
X229655476Y-114447200D01*
X229655476Y-114447200D02*
X229703095Y-114399580D01*
X229703095Y-114399580D02*
X229750714Y-114304342D01*
X229750714Y-114304342D02*
X229750714Y-114113866D01*
X229750714Y-114113866D02*
X229703095Y-114018628D01*
X229703095Y-114018628D02*
X229655476Y-113971009D01*
X229655476Y-113971009D02*
X229560238Y-113923390D01*
X235256905Y-114494819D02*
X235256905Y-113494819D01*
X235256905Y-113494819D02*
X235495000Y-113494819D01*
X235495000Y-113494819D02*
X235637857Y-113542438D01*
X235637857Y-113542438D02*
X235733095Y-113637676D01*
X235733095Y-113637676D02*
X235780714Y-113732914D01*
X235780714Y-113732914D02*
X235828333Y-113923390D01*
X235828333Y-113923390D02*
X235828333Y-114066247D01*
X235828333Y-114066247D02*
X235780714Y-114256723D01*
X235780714Y-114256723D02*
X235733095Y-114351961D01*
X235733095Y-114351961D02*
X235637857Y-114447200D01*
X235637857Y-114447200D02*
X235495000Y-114494819D01*
X235495000Y-114494819D02*
X235256905Y-114494819D01*
X236304524Y-114494819D02*
X236495000Y-114494819D01*
X236495000Y-114494819D02*
X236590238Y-114447200D01*
X236590238Y-114447200D02*
X236637857Y-114399580D01*
X236637857Y-114399580D02*
X236733095Y-114256723D01*
X236733095Y-114256723D02*
X236780714Y-114066247D01*
X236780714Y-114066247D02*
X236780714Y-113685295D01*
X236780714Y-113685295D02*
X236733095Y-113590057D01*
X236733095Y-113590057D02*
X236685476Y-113542438D01*
X236685476Y-113542438D02*
X236590238Y-113494819D01*
X236590238Y-113494819D02*
X236399762Y-113494819D01*
X236399762Y-113494819D02*
X236304524Y-113542438D01*
X236304524Y-113542438D02*
X236256905Y-113590057D01*
X236256905Y-113590057D02*
X236209286Y-113685295D01*
X236209286Y-113685295D02*
X236209286Y-113923390D01*
X236209286Y-113923390D02*
X236256905Y-114018628D01*
X236256905Y-114018628D02*
X236304524Y-114066247D01*
X236304524Y-114066247D02*
X236399762Y-114113866D01*
X236399762Y-114113866D02*
X236590238Y-114113866D01*
X236590238Y-114113866D02*
X236685476Y-114066247D01*
X236685476Y-114066247D02*
X236733095Y-114018628D01*
X236733095Y-114018628D02*
X236780714Y-113923390D01*
X119991905Y-90494819D02*
X119991905Y-89494819D01*
X119991905Y-89494819D02*
X120230000Y-89494819D01*
X120230000Y-89494819D02*
X120372857Y-89542438D01*
X120372857Y-89542438D02*
X120468095Y-89637676D01*
X120468095Y-89637676D02*
X120515714Y-89732914D01*
X120515714Y-89732914D02*
X120563333Y-89923390D01*
X120563333Y-89923390D02*
X120563333Y-90066247D01*
X120563333Y-90066247D02*
X120515714Y-90256723D01*
X120515714Y-90256723D02*
X120468095Y-90351961D01*
X120468095Y-90351961D02*
X120372857Y-90447200D01*
X120372857Y-90447200D02*
X120230000Y-90494819D01*
X120230000Y-90494819D02*
X119991905Y-90494819D01*
X121515714Y-90494819D02*
X120944286Y-90494819D01*
X121230000Y-90494819D02*
X121230000Y-89494819D01*
X121230000Y-89494819D02*
X121134762Y-89637676D01*
X121134762Y-89637676D02*
X121039524Y-89732914D01*
X121039524Y-89732914D02*
X120944286Y-89780533D01*
D11*
X194221905Y-90457419D02*
X194221905Y-91266942D01*
X194221905Y-91266942D02*
X194269524Y-91362180D01*
X194269524Y-91362180D02*
X194317143Y-91409800D01*
X194317143Y-91409800D02*
X194412381Y-91457419D01*
X194412381Y-91457419D02*
X194602857Y-91457419D01*
X194602857Y-91457419D02*
X194698095Y-91409800D01*
X194698095Y-91409800D02*
X194745714Y-91362180D01*
X194745714Y-91362180D02*
X194793333Y-91266942D01*
X194793333Y-91266942D02*
X194793333Y-90457419D01*
X195793333Y-91457419D02*
X195221905Y-91457419D01*
X195507619Y-91457419D02*
X195507619Y-90457419D01*
X195507619Y-90457419D02*
X195412381Y-90600276D01*
X195412381Y-90600276D02*
X195317143Y-90695514D01*
X195317143Y-90695514D02*
X195221905Y-90743133D01*
X196412381Y-90457419D02*
X196507619Y-90457419D01*
X196507619Y-90457419D02*
X196602857Y-90505038D01*
X196602857Y-90505038D02*
X196650476Y-90552657D01*
X196650476Y-90552657D02*
X196698095Y-90647895D01*
X196698095Y-90647895D02*
X196745714Y-90838371D01*
X196745714Y-90838371D02*
X196745714Y-91076466D01*
X196745714Y-91076466D02*
X196698095Y-91266942D01*
X196698095Y-91266942D02*
X196650476Y-91362180D01*
X196650476Y-91362180D02*
X196602857Y-91409800D01*
X196602857Y-91409800D02*
X196507619Y-91457419D01*
X196507619Y-91457419D02*
X196412381Y-91457419D01*
X196412381Y-91457419D02*
X196317143Y-91409800D01*
X196317143Y-91409800D02*
X196269524Y-91362180D01*
X196269524Y-91362180D02*
X196221905Y-91266942D01*
X196221905Y-91266942D02*
X196174286Y-91076466D01*
X196174286Y-91076466D02*
X196174286Y-90838371D01*
X196174286Y-90838371D02*
X196221905Y-90647895D01*
X196221905Y-90647895D02*
X196269524Y-90552657D01*
X196269524Y-90552657D02*
X196317143Y-90505038D01*
X196317143Y-90505038D02*
X196412381Y-90457419D01*
X193364761Y-104457419D02*
X192888571Y-104457419D01*
X192888571Y-104457419D02*
X192840952Y-104933609D01*
X192840952Y-104933609D02*
X192888571Y-104885990D01*
X192888571Y-104885990D02*
X192983809Y-104838371D01*
X192983809Y-104838371D02*
X193221904Y-104838371D01*
X193221904Y-104838371D02*
X193317142Y-104885990D01*
X193317142Y-104885990D02*
X193364761Y-104933609D01*
X193364761Y-104933609D02*
X193412380Y-105028847D01*
X193412380Y-105028847D02*
X193412380Y-105266942D01*
X193412380Y-105266942D02*
X193364761Y-105362180D01*
X193364761Y-105362180D02*
X193317142Y-105409800D01*
X193317142Y-105409800D02*
X193221904Y-105457419D01*
X193221904Y-105457419D02*
X192983809Y-105457419D01*
X192983809Y-105457419D02*
X192888571Y-105409800D01*
X192888571Y-105409800D02*
X192840952Y-105362180D01*
X194364761Y-105457419D02*
X193793333Y-105457419D01*
X194079047Y-105457419D02*
X194079047Y-104457419D01*
X194079047Y-104457419D02*
X193983809Y-104600276D01*
X193983809Y-104600276D02*
X193888571Y-104695514D01*
X193888571Y-104695514D02*
X193793333Y-104743133D01*
X195221904Y-104457419D02*
X195031428Y-104457419D01*
X195031428Y-104457419D02*
X194936190Y-104505038D01*
X194936190Y-104505038D02*
X194888571Y-104552657D01*
X194888571Y-104552657D02*
X194793333Y-104695514D01*
X194793333Y-104695514D02*
X194745714Y-104885990D01*
X194745714Y-104885990D02*
X194745714Y-105266942D01*
X194745714Y-105266942D02*
X194793333Y-105362180D01*
X194793333Y-105362180D02*
X194840952Y-105409800D01*
X194840952Y-105409800D02*
X194936190Y-105457419D01*
X194936190Y-105457419D02*
X195126666Y-105457419D01*
X195126666Y-105457419D02*
X195221904Y-105409800D01*
X195221904Y-105409800D02*
X195269523Y-105362180D01*
X195269523Y-105362180D02*
X195317142Y-105266942D01*
X195317142Y-105266942D02*
X195317142Y-105028847D01*
X195317142Y-105028847D02*
X195269523Y-104933609D01*
X195269523Y-104933609D02*
X195221904Y-104885990D01*
X195221904Y-104885990D02*
X195126666Y-104838371D01*
X195126666Y-104838371D02*
X194936190Y-104838371D01*
X194936190Y-104838371D02*
X194840952Y-104885990D01*
X194840952Y-104885990D02*
X194793333Y-104933609D01*
X194793333Y-104933609D02*
X194745714Y-105028847D01*
X196269523Y-105457419D02*
X195698095Y-105457419D01*
X195983809Y-105457419D02*
X195983809Y-104457419D01*
X195983809Y-104457419D02*
X195888571Y-104600276D01*
X195888571Y-104600276D02*
X195793333Y-104695514D01*
X195793333Y-104695514D02*
X195698095Y-104743133D01*
X196650476Y-105171704D02*
X197126666Y-105171704D01*
X196555238Y-105457419D02*
X196888571Y-104457419D01*
X196888571Y-104457419D02*
X197221904Y-105457419D01*
X197507619Y-105409800D02*
X197650476Y-105457419D01*
X197650476Y-105457419D02*
X197888571Y-105457419D01*
X197888571Y-105457419D02*
X197983809Y-105409800D01*
X197983809Y-105409800D02*
X198031428Y-105362180D01*
X198031428Y-105362180D02*
X198079047Y-105266942D01*
X198079047Y-105266942D02*
X198079047Y-105171704D01*
X198079047Y-105171704D02*
X198031428Y-105076466D01*
X198031428Y-105076466D02*
X197983809Y-105028847D01*
X197983809Y-105028847D02*
X197888571Y-104981228D01*
X197888571Y-104981228D02*
X197698095Y-104933609D01*
X197698095Y-104933609D02*
X197602857Y-104885990D01*
X197602857Y-104885990D02*
X197555238Y-104838371D01*
X197555238Y-104838371D02*
X197507619Y-104743133D01*
X197507619Y-104743133D02*
X197507619Y-104647895D01*
X197507619Y-104647895D02*
X197555238Y-104552657D01*
X197555238Y-104552657D02*
X197602857Y-104505038D01*
X197602857Y-104505038D02*
X197698095Y-104457419D01*
X197698095Y-104457419D02*
X197936190Y-104457419D01*
X197936190Y-104457419D02*
X198079047Y-104505038D01*
D10*
X221031905Y-114494819D02*
X221031905Y-113494819D01*
X221031905Y-113494819D02*
X221270000Y-113494819D01*
X221270000Y-113494819D02*
X221412857Y-113542438D01*
X221412857Y-113542438D02*
X221508095Y-113637676D01*
X221508095Y-113637676D02*
X221555714Y-113732914D01*
X221555714Y-113732914D02*
X221603333Y-113923390D01*
X221603333Y-113923390D02*
X221603333Y-114066247D01*
X221603333Y-114066247D02*
X221555714Y-114256723D01*
X221555714Y-114256723D02*
X221508095Y-114351961D01*
X221508095Y-114351961D02*
X221412857Y-114447200D01*
X221412857Y-114447200D02*
X221270000Y-114494819D01*
X221270000Y-114494819D02*
X221031905Y-114494819D01*
X221936667Y-113494819D02*
X222603333Y-113494819D01*
X222603333Y-113494819D02*
X222174762Y-114494819D01*
D12*
%TO.C,D2*%
X118170000Y-103955000D02*
X118170000Y-107045000D01*
X118170000Y-103955170D02*
G75*
G02*
X123720000Y-105500000I2560000J-1544830D01*
G01*
X123720000Y-105500000D02*
G75*
G02*
X118170000Y-107044830I-2990000J0D01*
G01*
X123230000Y-105500000D02*
G75*
G02*
X118230000Y-105500000I-2500000J0D01*
G01*
X118230000Y-105500000D02*
G75*
G02*
X123230000Y-105500000I2500000J0D01*
G01*
%TO.C,U7*%
D11*
X125300000Y-80125000D02*
X154100000Y-80125000D01*
X154100000Y-120925000D01*
X125300000Y-120925000D01*
X125300000Y-80125000D01*
D12*
%TO.C,D3*%
X189710000Y-116455000D02*
X189710000Y-119545000D01*
X189710000Y-116455170D02*
G75*
G02*
X195260000Y-118000000I2560000J-1544830D01*
G01*
X195260000Y-118000000D02*
G75*
G02*
X189710000Y-119544830I-2990000J0D01*
G01*
X194770000Y-118000000D02*
G75*
G02*
X189770000Y-118000000I-2500000J0D01*
G01*
X189770000Y-118000000D02*
G75*
G02*
X194770000Y-118000000I2500000J0D01*
G01*
%TO.C,U6*%
D11*
X87590000Y-80125000D02*
X116390000Y-80125000D01*
X116390000Y-120925000D01*
X87590000Y-120925000D01*
X87590000Y-80125000D01*
D12*
%TO.C,SW2*%
X203000000Y-85000000D02*
X203000000Y-86500000D01*
X204250000Y-89000000D02*
X208750000Y-89000000D01*
X208750000Y-82500000D02*
X204250000Y-82500000D01*
X210000000Y-86500000D02*
X210000000Y-85000000D01*
%TO.C,D6*%
X211710000Y-116455000D02*
X211710000Y-119545000D01*
X211710000Y-116455170D02*
G75*
G02*
X217260000Y-118000000I2560000J-1544830D01*
G01*
X217260000Y-118000000D02*
G75*
G02*
X211710000Y-119544830I-2990000J0D01*
G01*
X216770000Y-118000000D02*
G75*
G02*
X211770000Y-118000000I-2500000J0D01*
G01*
X211770000Y-118000000D02*
G75*
G02*
X216770000Y-118000000I2500000J0D01*
G01*
%TO.C,U8*%
D11*
X155600000Y-80125000D02*
X184400000Y-80125000D01*
X184400000Y-120925000D01*
X155600000Y-120925000D01*
X155600000Y-80125000D01*
D12*
%TO.C,SW1*%
X213000000Y-81250000D02*
X213000000Y-82750000D01*
X214250000Y-85250000D02*
X218750000Y-85250000D01*
X218750000Y-78750000D02*
X214250000Y-78750000D01*
X220000000Y-82750000D02*
X220000000Y-81250000D01*
%TO.C,U5*%
D11*
X57290000Y-80125000D02*
X86090000Y-80125000D01*
X86090000Y-120925000D01*
X57290000Y-120925000D01*
X57290000Y-80125000D01*
D12*
%TO.C,SW3*%
X223000000Y-85000000D02*
X223000000Y-86500000D01*
X224250000Y-89000000D02*
X228750000Y-89000000D01*
X228750000Y-82500000D02*
X224250000Y-82500000D01*
X230000000Y-86500000D02*
X230000000Y-85000000D01*
%TO.C,D5*%
X204435000Y-116455000D02*
X204435000Y-119545000D01*
X204435000Y-116455170D02*
G75*
G02*
X209985000Y-118000000I2560000J-1544830D01*
G01*
X209985000Y-118000000D02*
G75*
G02*
X204435000Y-119544830I-2990000J0D01*
G01*
X209495000Y-118000000D02*
G75*
G02*
X204495000Y-118000000I-2500000J0D01*
G01*
X204495000Y-118000000D02*
G75*
G02*
X209495000Y-118000000I2500000J0D01*
G01*
%TO.C,U11*%
D11*
X202740000Y-95500000D02*
X215340000Y-95500000D01*
X215340000Y-114500000D01*
X202740000Y-114500000D01*
X202740000Y-95500000D01*
D12*
%TO.C,SW4*%
X213000000Y-89250000D02*
X213000000Y-90750000D01*
X214250000Y-93250000D02*
X218750000Y-93250000D01*
X218750000Y-86750000D02*
X214250000Y-86750000D01*
X220000000Y-90750000D02*
X220000000Y-89250000D01*
%TO.C,U13*%
D11*
X230700000Y-95500000D02*
X243300000Y-95500000D01*
X243300000Y-114500000D01*
X230700000Y-114500000D01*
X230700000Y-95500000D01*
D12*
%TO.C,SW5*%
X233000000Y-85000000D02*
X233000000Y-86500000D01*
X234250000Y-89000000D02*
X238750000Y-89000000D01*
X238750000Y-82500000D02*
X234250000Y-82500000D01*
X240000000Y-86500000D02*
X240000000Y-85000000D01*
%TO.C,D4*%
X196935000Y-116455000D02*
X196935000Y-119545000D01*
X196935000Y-116455170D02*
G75*
G02*
X202485000Y-118000000I2560000J-1544830D01*
G01*
X202485000Y-118000000D02*
G75*
G02*
X196935000Y-119544830I-2990000J0D01*
G01*
X201995000Y-118000000D02*
G75*
G02*
X196995000Y-118000000I-2500000J0D01*
G01*
X196995000Y-118000000D02*
G75*
G02*
X201995000Y-118000000I2500000J0D01*
G01*
%TO.C,U12*%
D11*
X217200000Y-95500000D02*
X229800000Y-95500000D01*
X229800000Y-114500000D01*
X217200000Y-114500000D01*
X217200000Y-95500000D01*
D12*
%TO.C,D8*%
X226405000Y-116455000D02*
X226405000Y-119545000D01*
X226405000Y-116455170D02*
G75*
G02*
X231955000Y-118000000I2560000J-1544830D01*
G01*
X231955000Y-118000000D02*
G75*
G02*
X226405000Y-119544830I-2990000J0D01*
G01*
X231465000Y-118000000D02*
G75*
G02*
X226465000Y-118000000I-2500000J0D01*
G01*
X226465000Y-118000000D02*
G75*
G02*
X231465000Y-118000000I2500000J0D01*
G01*
%TO.C,D9*%
X233435000Y-116455000D02*
X233435000Y-119545000D01*
X233435000Y-116455170D02*
G75*
G02*
X238985000Y-118000000I2560000J-1544830D01*
G01*
X238985000Y-118000000D02*
G75*
G02*
X233435000Y-119544830I-2990000J0D01*
G01*
X238495000Y-118000000D02*
G75*
G02*
X233495000Y-118000000I-2500000J0D01*
G01*
X233495000Y-118000000D02*
G75*
G02*
X238495000Y-118000000I2500000J0D01*
G01*
%TO.C,D1*%
X118170000Y-92455000D02*
X118170000Y-95545000D01*
X118170000Y-92455170D02*
G75*
G02*
X123720000Y-94000000I2560000J-1544830D01*
G01*
X123720000Y-94000000D02*
G75*
G02*
X118170000Y-95544830I-2990000J0D01*
G01*
X123230000Y-94000000D02*
G75*
G02*
X118230000Y-94000000I-2500000J0D01*
G01*
X118230000Y-94000000D02*
G75*
G02*
X123230000Y-94000000I2500000J0D01*
G01*
%TO.C,U10*%
D11*
X189160000Y-95500000D02*
X201760000Y-95500000D01*
X201760000Y-114500000D01*
X189160000Y-114500000D01*
X189160000Y-95500000D01*
D12*
%TO.C,D7*%
X219210000Y-116455000D02*
X219210000Y-119545000D01*
X219210000Y-116455170D02*
G75*
G02*
X224760000Y-118000000I2560000J-1544830D01*
G01*
X224760000Y-118000000D02*
G75*
G02*
X219210000Y-119544830I-2990000J0D01*
G01*
X224270000Y-118000000D02*
G75*
G02*
X219270000Y-118000000I-2500000J0D01*
G01*
X219270000Y-118000000D02*
G75*
G02*
X224270000Y-118000000I2500000J0D01*
G01*
%TD*%
M02*
