%TF.GenerationSoftware,KiCad,Pcbnew,9.0.7*%
%TF.CreationDate,2026-01-05T14:29:03+01:00*%
%TF.ProjectId,display-Schematic,64697370-6c61-4792-9d53-6368656d6174,rev?*%
%TF.SameCoordinates,Original*%
%TF.FileFunction,Copper,L1,Top*%
%TF.FilePolarity,Positive*%
%FSLAX46Y46*%
G04 Gerber Fmt 4.6, Leading zero omitted, Abs format (unit mm)*
G04 Created by KiCad (PCBNEW 9.0.7) date 2026-01-05 14:29:03*
%MOMM*%
%LPD*%
G01*
G04 APERTURE LIST*
G04 Aperture macros list*
%AMRoundRect*
0 Rectangle with rounded corners*
0 $1 Rounding radius*
0 $2 $3 $4 $5 $6 $7 $8 $9 X,Y pos of 4 corners*
0 Add a 4 corners polygon primitive as box body*
4,1,4,$2,$3,$4,$5,$6,$7,$8,$9,$2,$3,0*
0 Add four circle primitives for the rounded corners*
1,1,$1+$1,$2,$3*
1,1,$1+$1,$4,$5*
1,1,$1+$1,$6,$7*
1,1,$1+$1,$8,$9*
0 Add four rect primitives between the rounded corners*
20,1,$1+$1,$2,$3,$4,$5,0*
20,1,$1+$1,$4,$5,$6,$7,0*
20,1,$1+$1,$6,$7,$8,$9,0*
20,1,$1+$1,$8,$9,$2,$3,0*%
G04 Aperture macros list end*
%TA.AperFunction,ComponentPad*%
%ADD10R,1.800000X1.800000*%
%TD*%
%TA.AperFunction,ComponentPad*%
%ADD11C,1.800000*%
%TD*%
%TA.AperFunction,ComponentPad*%
%ADD12R,1.524000X1.524000*%
%TD*%
%TA.AperFunction,ComponentPad*%
%ADD13C,1.524000*%
%TD*%
%TA.AperFunction,ComponentPad*%
%ADD14C,2.000000*%
%TD*%
%TA.AperFunction,ComponentPad*%
%ADD15RoundRect,0.250000X0.550000X-0.550000X0.550000X0.550000X-0.550000X0.550000X-0.550000X-0.550000X0*%
%TD*%
%TA.AperFunction,ComponentPad*%
%ADD16C,1.600000*%
%TD*%
%TA.AperFunction,ComponentPad*%
%ADD17RoundRect,0.250000X-0.600000X0.600000X-0.600000X-0.600000X0.600000X-0.600000X0.600000X0.600000X0*%
%TD*%
%TA.AperFunction,ComponentPad*%
%ADD18C,1.700000*%
%TD*%
%TA.AperFunction,Conductor*%
%ADD19C,0.200000*%
%TD*%
G04 APERTURE END LIST*
D10*
%TO.P,D2,1,K*%
%TO.N,Net-(D1-K)*%
X119460000Y-105500000D03*
D11*
%TO.P,D2,2,A*%
%TO.N,Net-(D1-A)*%
X122000000Y-105500000D03*
%TD*%
D12*
%TO.P,U7,1,CC*%
%TO.N,unconnected-(U7-CC-Pad1)*%
X134620000Y-118305000D03*
D13*
%TO.P,U7,2,E*%
%TO.N,Net-(U4-SEG_A)*%
X137160000Y-118305000D03*
%TO.P,U7,3,D*%
%TO.N,Net-(U4-SEG_F)*%
X139700000Y-118305000D03*
%TO.P,U7,4,C*%
%TO.N,Net-(U4-SEG_B)*%
X142240000Y-118305000D03*
%TO.P,U7,5,CC*%
%TO.N,Net-(U4-DIG_3)*%
X144780000Y-118305000D03*
%TO.P,U7,6,B*%
%TO.N,Net-(U4-SEG_C)*%
X144780000Y-82745000D03*
%TO.P,U7,7,A*%
%TO.N,Net-(U4-SEG_E)*%
X142240000Y-82745000D03*
%TO.P,U7,8,DP*%
%TO.N,unconnected-(U7-DP-Pad8)*%
X139700000Y-82745000D03*
%TO.P,U7,9,F*%
%TO.N,Net-(U4-SEG_DP)*%
X137160000Y-82745000D03*
%TO.P,U7,10,G*%
%TO.N,Net-(D1-A)*%
X134620000Y-82745000D03*
%TD*%
D10*
%TO.P,D3,1,K*%
%TO.N,Net-(D3-K)*%
X191000000Y-118000000D03*
D11*
%TO.P,D3,2,A*%
%TO.N,Net-(D3-A)*%
X193540000Y-118000000D03*
%TD*%
D12*
%TO.P,U6,1,CC*%
%TO.N,unconnected-(U6-CC-Pad1)*%
X96910000Y-118305000D03*
D13*
%TO.P,U6,2,E*%
%TO.N,Net-(U4-SEG_A)*%
X99450000Y-118305000D03*
%TO.P,U6,3,D*%
%TO.N,Net-(U4-SEG_F)*%
X101990000Y-118305000D03*
%TO.P,U6,4,C*%
%TO.N,Net-(U4-SEG_B)*%
X104530000Y-118305000D03*
%TO.P,U6,5,CC*%
%TO.N,Net-(U4-DIG_2)*%
X107070000Y-118305000D03*
%TO.P,U6,6,B*%
%TO.N,Net-(U4-SEG_C)*%
X107070000Y-82745000D03*
%TO.P,U6,7,A*%
%TO.N,Net-(U4-SEG_E)*%
X104530000Y-82745000D03*
%TO.P,U6,8,DP*%
%TO.N,unconnected-(U6-DP-Pad8)*%
X101990000Y-82745000D03*
%TO.P,U6,9,F*%
%TO.N,Net-(U4-SEG_DP)*%
X99450000Y-82745000D03*
%TO.P,U6,10,G*%
%TO.N,Net-(D1-A)*%
X96910000Y-82745000D03*
%TD*%
D14*
%TO.P,SW2,1,C*%
%TO.N,Net-(SW2A-C)*%
X203250000Y-83500000D03*
X209750000Y-83500000D03*
%TO.P,SW2,2,D*%
%TO.N,+3.3V*%
X203250000Y-88000000D03*
X209750000Y-88000000D03*
%TD*%
D10*
%TO.P,D6,1,K*%
%TO.N,Net-(D3-K)*%
X213000000Y-118000000D03*
D11*
%TO.P,D6,2,A*%
%TO.N,Net-(D6-A)*%
X215540000Y-118000000D03*
%TD*%
D12*
%TO.P,U8,1,CC*%
%TO.N,unconnected-(U8-CC-Pad1)*%
X164920000Y-118305000D03*
D13*
%TO.P,U8,2,E*%
%TO.N,Net-(U4-SEG_A)*%
X167460000Y-118305000D03*
%TO.P,U8,3,D*%
%TO.N,Net-(U4-SEG_F)*%
X170000000Y-118305000D03*
%TO.P,U8,4,C*%
%TO.N,Net-(U4-SEG_B)*%
X172540000Y-118305000D03*
%TO.P,U8,5,CC*%
%TO.N,Net-(U4-DIG_7)*%
X175080000Y-118305000D03*
%TO.P,U8,6,B*%
%TO.N,Net-(U4-SEG_C)*%
X175080000Y-82745000D03*
%TO.P,U8,7,A*%
%TO.N,Net-(U4-SEG_E)*%
X172540000Y-82745000D03*
%TO.P,U8,8,DP*%
%TO.N,unconnected-(U8-DP-Pad8)*%
X170000000Y-82745000D03*
%TO.P,U8,9,F*%
%TO.N,Net-(U4-SEG_DP)*%
X167460000Y-82745000D03*
%TO.P,U8,10,G*%
%TO.N,Net-(D1-A)*%
X164920000Y-82745000D03*
%TD*%
D14*
%TO.P,SW1,1,C*%
%TO.N,Net-(SW1A-C)*%
X213250000Y-79750000D03*
X219750000Y-79750000D03*
%TO.P,SW1,2,D*%
%TO.N,+3.3V*%
X213250000Y-84250000D03*
X219750000Y-84250000D03*
%TD*%
D12*
%TO.P,U5,1,CC*%
%TO.N,unconnected-(U5-CC-Pad1)*%
X66610000Y-118305000D03*
D13*
%TO.P,U5,2,E*%
%TO.N,Net-(U4-SEG_A)*%
X69150000Y-118305000D03*
%TO.P,U5,3,D*%
%TO.N,Net-(U4-SEG_F)*%
X71690000Y-118305000D03*
%TO.P,U5,4,C*%
%TO.N,Net-(U4-SEG_B)*%
X74230000Y-118305000D03*
%TO.P,U5,5,CC*%
%TO.N,Net-(U4-DIG_6)*%
X76770000Y-118305000D03*
%TO.P,U5,6,B*%
%TO.N,Net-(U4-SEG_C)*%
X76770000Y-82745000D03*
%TO.P,U5,7,A*%
%TO.N,Net-(U4-SEG_E)*%
X74230000Y-82745000D03*
%TO.P,U5,8,DP*%
%TO.N,unconnected-(U5-DP-Pad8)*%
X71690000Y-82745000D03*
%TO.P,U5,9,F*%
%TO.N,Net-(U4-SEG_DP)*%
X69150000Y-82745000D03*
%TO.P,U5,10,G*%
%TO.N,Net-(D1-A)*%
X66610000Y-82745000D03*
%TD*%
D14*
%TO.P,SW3,1,C*%
%TO.N,Net-(SW3A-C)*%
X223250000Y-83500000D03*
X229750000Y-83500000D03*
%TO.P,SW3,2,D*%
%TO.N,+3.3V*%
X223250000Y-88000000D03*
X229750000Y-88000000D03*
%TD*%
D10*
%TO.P,D5,1,K*%
%TO.N,Net-(D3-K)*%
X205725000Y-118000000D03*
D11*
%TO.P,D5,2,A*%
%TO.N,Net-(D5-A)*%
X208265000Y-118000000D03*
%TD*%
D12*
%TO.P,U11,1,E*%
%TO.N,Net-(D9-A)*%
X203960000Y-112620000D03*
D13*
%TO.P,U11,2,D*%
%TO.N,Net-(D8-A)*%
X206500000Y-112620000D03*
%TO.P,U11,3,CC*%
%TO.N,Net-(U9-DIG_4)*%
X209040000Y-112620000D03*
%TO.P,U11,4,C*%
%TO.N,Net-(D7-A)*%
X211580000Y-112620000D03*
%TO.P,U11,5,DP*%
%TO.N,unconnected-(U11-DP-Pad5)*%
X214120000Y-112620000D03*
%TO.P,U11,6,B*%
%TO.N,Net-(D3-A)*%
X214120000Y-97380000D03*
%TO.P,U11,7,A*%
%TO.N,Net-(D4-A)*%
X211580000Y-97380000D03*
%TO.P,U11,8,CC*%
%TO.N,unconnected-(U11-CC-Pad8)*%
X209040000Y-97380000D03*
%TO.P,U11,9,F*%
%TO.N,Net-(D5-A)*%
X206500000Y-97380000D03*
%TO.P,U11,10,G*%
%TO.N,Net-(D6-A)*%
X203960000Y-97380000D03*
%TD*%
D14*
%TO.P,SW4,1,C*%
%TO.N,Net-(SW4A-C)*%
X213250000Y-87750000D03*
X219750000Y-87750000D03*
%TO.P,SW4,2,D*%
%TO.N,+3.3V*%
X213250000Y-92250000D03*
X219750000Y-92250000D03*
%TD*%
D12*
%TO.P,U13,1,E*%
%TO.N,Net-(D9-A)*%
X231920000Y-112620000D03*
D13*
%TO.P,U13,2,D*%
%TO.N,Net-(D8-A)*%
X234460000Y-112620000D03*
%TO.P,U13,3,CC*%
%TO.N,Net-(U9-DIG_2)*%
X237000000Y-112620000D03*
%TO.P,U13,4,C*%
%TO.N,Net-(D7-A)*%
X239540000Y-112620000D03*
%TO.P,U13,5,DP*%
%TO.N,unconnected-(U13-DP-Pad5)*%
X242080000Y-112620000D03*
%TO.P,U13,6,B*%
%TO.N,Net-(D3-A)*%
X242080000Y-97380000D03*
%TO.P,U13,7,A*%
%TO.N,Net-(D4-A)*%
X239540000Y-97380000D03*
%TO.P,U13,8,CC*%
%TO.N,unconnected-(U13-CC-Pad8)*%
X237000000Y-97380000D03*
%TO.P,U13,9,F*%
%TO.N,Net-(D5-A)*%
X234460000Y-97380000D03*
%TO.P,U13,10,G*%
%TO.N,Net-(D6-A)*%
X231920000Y-97380000D03*
%TD*%
D14*
%TO.P,SW5,1,C*%
%TO.N,Net-(SW5A-C)*%
X233250000Y-83500000D03*
X239750000Y-83500000D03*
%TO.P,SW5,2,D*%
%TO.N,+3.3V*%
X233250000Y-88000000D03*
X239750000Y-88000000D03*
%TD*%
D10*
%TO.P,D4,1,K*%
%TO.N,Net-(D3-K)*%
X198225000Y-118000000D03*
D11*
%TO.P,D4,2,A*%
%TO.N,Net-(D4-A)*%
X200765000Y-118000000D03*
%TD*%
D12*
%TO.P,U12,1,E*%
%TO.N,Net-(D9-A)*%
X218420000Y-112620000D03*
D13*
%TO.P,U12,2,D*%
%TO.N,Net-(D8-A)*%
X220960000Y-112620000D03*
%TO.P,U12,3,CC*%
%TO.N,Net-(U9-DIG_6)*%
X223500000Y-112620000D03*
%TO.P,U12,4,C*%
%TO.N,Net-(D7-A)*%
X226040000Y-112620000D03*
%TO.P,U12,5,DP*%
%TO.N,unconnected-(U12-DP-Pad5)*%
X228580000Y-112620000D03*
%TO.P,U12,6,B*%
%TO.N,Net-(D3-A)*%
X228580000Y-97380000D03*
%TO.P,U12,7,A*%
%TO.N,Net-(D4-A)*%
X226040000Y-97380000D03*
%TO.P,U12,8,CC*%
%TO.N,unconnected-(U12-CC-Pad8)*%
X223500000Y-97380000D03*
%TO.P,U12,9,F*%
%TO.N,Net-(D5-A)*%
X220960000Y-97380000D03*
%TO.P,U12,10,G*%
%TO.N,Net-(D6-A)*%
X218420000Y-97380000D03*
%TD*%
D10*
%TO.P,D8,1,K*%
%TO.N,Net-(D3-K)*%
X227695000Y-118000000D03*
D11*
%TO.P,D8,2,A*%
%TO.N,Net-(D8-A)*%
X230235000Y-118000000D03*
%TD*%
D10*
%TO.P,D9,1,K*%
%TO.N,Net-(D3-K)*%
X234725000Y-118000000D03*
D11*
%TO.P,D9,2,A*%
%TO.N,Net-(D9-A)*%
X237265000Y-118000000D03*
%TD*%
D10*
%TO.P,D1,1,K*%
%TO.N,Net-(D1-K)*%
X119460000Y-94000000D03*
D11*
%TO.P,D1,2,A*%
%TO.N,Net-(D1-A)*%
X122000000Y-94000000D03*
%TD*%
D12*
%TO.P,U10,1,E*%
%TO.N,Net-(D9-A)*%
X190380000Y-112620000D03*
D13*
%TO.P,U10,2,D*%
%TO.N,Net-(D8-A)*%
X192920000Y-112620000D03*
%TO.P,U10,3,CC*%
%TO.N,Net-(U9-DIG_0)*%
X195460000Y-112620000D03*
%TO.P,U10,4,C*%
%TO.N,Net-(D7-A)*%
X198000000Y-112620000D03*
%TO.P,U10,5,DP*%
%TO.N,unconnected-(U10-DP-Pad5)*%
X200540000Y-112620000D03*
%TO.P,U10,6,B*%
%TO.N,Net-(D3-A)*%
X200540000Y-97380000D03*
%TO.P,U10,7,A*%
%TO.N,Net-(D4-A)*%
X198000000Y-97380000D03*
%TO.P,U10,8,CC*%
%TO.N,unconnected-(U10-CC-Pad8)*%
X195460000Y-97380000D03*
%TO.P,U10,9,F*%
%TO.N,Net-(D5-A)*%
X192920000Y-97380000D03*
%TO.P,U10,10,G*%
%TO.N,Net-(D6-A)*%
X190380000Y-97380000D03*
%TD*%
D10*
%TO.P,D7,1,K*%
%TO.N,Net-(D3-K)*%
X220500000Y-118000000D03*
D11*
%TO.P,D7,2,A*%
%TO.N,Net-(D7-A)*%
X223040000Y-118000000D03*
%TD*%
D15*
%TO.P,U9,1,DIN*%
%TO.N,Net-(U4-DIN)*%
X183320000Y-101620000D03*
D16*
%TO.P,U9,2,DIG_0*%
%TO.N,Net-(U9-DIG_0)*%
X180780000Y-101620000D03*
%TO.P,U9,3,DIG_4*%
%TO.N,Net-(U9-DIG_4)*%
X178240000Y-101620000D03*
%TO.P,U9,4,GND*%
%TO.N,GND*%
X175700000Y-101620000D03*
%TO.P,U9,5,DIG_6*%
%TO.N,Net-(U9-DIG_6)*%
X173160000Y-101620000D03*
%TO.P,U9,6,DIG_2*%
%TO.N,Net-(U9-DIG_2)*%
X170620000Y-101620000D03*
%TO.P,U9,7,DIG_3*%
%TO.N,Net-(D3-K)*%
X168080000Y-101620000D03*
%TO.P,U9,8,DIG_7*%
%TO.N,unconnected-(U9-DIG_7-Pad8)*%
X165540000Y-101620000D03*
%TO.P,U9,9,GND*%
%TO.N,GND*%
X163000000Y-101620000D03*
%TO.P,U9,10,DIG_5*%
%TO.N,unconnected-(U9-DIG_5-Pad10)*%
X160460000Y-101620000D03*
%TO.P,U9,11,DIG_1*%
%TO.N,unconnected-(U9-DIG_1-Pad11)*%
X157920000Y-101620000D03*
%TO.P,U9,12,LOAD*%
%TO.N,Net-(U9-LOAD)*%
X155380000Y-101620000D03*
%TO.P,U9,13,CLK*%
%TO.N,Net-(U4-CLK)*%
X155380000Y-94000000D03*
%TO.P,U9,14,SEG_A*%
%TO.N,unconnected-(U9-SEG_A-Pad14)*%
X157920000Y-94000000D03*
%TO.P,U9,15,SEG_F*%
%TO.N,Net-(D9-A)*%
X160460000Y-94000000D03*
%TO.P,U9,16,SEG_B*%
%TO.N,Net-(D8-A)*%
X163000000Y-94000000D03*
%TO.P,U9,17,SEG_G*%
%TO.N,Net-(D7-A)*%
X165540000Y-94000000D03*
%TO.P,U9,18,ISET*%
%TO.N,Net-(U9-ISET)*%
X168080000Y-94000000D03*
%TO.P,U9,19,V+*%
%TO.N,+5V*%
X170620000Y-94000000D03*
%TO.P,U9,20,SEG_C*%
%TO.N,Net-(D3-A)*%
X173160000Y-94000000D03*
%TO.P,U9,21,SEG_E*%
%TO.N,Net-(D4-A)*%
X175700000Y-94000000D03*
%TO.P,U9,22,SEG_DP*%
%TO.N,Net-(D5-A)*%
X178240000Y-94000000D03*
%TO.P,U9,23,SEG_D*%
%TO.N,Net-(D6-A)*%
X180780000Y-94000000D03*
%TO.P,U9,24,DOUT*%
%TO.N,unconnected-(U9-DOUT-Pad24)*%
X183320000Y-94000000D03*
%TD*%
%TO.P,C5,1*%
%TO.N,+5V*%
X147500000Y-94500000D03*
%TO.P,C5,2*%
%TO.N,GND*%
X147500000Y-99500000D03*
%TD*%
%TO.P,C4,1*%
%TO.N,+5V*%
X65000000Y-98500000D03*
%TO.P,C4,2*%
%TO.N,GND*%
X65000000Y-103500000D03*
%TD*%
%TO.P,R1,1*%
%TO.N,+5V*%
X151000000Y-91920000D03*
%TO.P,R1,2*%
%TO.N,Net-(U9-LOAD)*%
X151000000Y-102080000D03*
%TD*%
%TO.P,R3,1*%
%TO.N,+5V*%
X92080000Y-91500000D03*
%TO.P,R3,2*%
%TO.N,Net-(U4-ISET)*%
X81920000Y-91500000D03*
%TD*%
%TO.P,R5,1*%
%TO.N,+5V*%
X173580000Y-90500000D03*
%TO.P,R5,2*%
%TO.N,Net-(U9-ISET)*%
X163420000Y-90500000D03*
%TD*%
D17*
%TO.P,J1,1*%
%TO.N,Net-(SW3A-C)*%
X150000000Y-108000000D03*
D18*
%TO.P,J1,2*%
%TO.N,Net-(SW1A-C)*%
X150000000Y-110540000D03*
%TO.P,J1,3*%
%TO.N,Net-(SW2A-C)*%
X152540000Y-108000000D03*
%TO.P,J1,4*%
%TO.N,Net-(SW5A-C)*%
X152540000Y-110540000D03*
%TO.P,J1,5*%
%TO.N,Net-(SW4A-C)*%
X155080000Y-108000000D03*
%TO.P,J1,6*%
%TO.N,+3.3V*%
X155080000Y-110540000D03*
%TO.P,J1,7*%
%TO.N,+5V*%
X157620000Y-108000000D03*
%TO.P,J1,8*%
%TO.N,Net-(U4-CLK)*%
X157620000Y-110540000D03*
%TO.P,J1,9*%
%TO.N,Net-(U9-LOAD)*%
X160160000Y-108000000D03*
%TO.P,J1,10*%
%TO.N,Net-(U4-LOAD)*%
X160160000Y-110540000D03*
%TO.P,J1,11*%
%TO.N,Net-(U4-DIN)*%
X162700000Y-108000000D03*
%TO.P,J1,12*%
%TO.N,GND*%
X162700000Y-110540000D03*
%TD*%
D16*
%TO.P,R2,1*%
%TO.N,+5V*%
X70500000Y-96000000D03*
%TO.P,R2,2*%
%TO.N,Net-(U4-LOAD)*%
X70500000Y-106160000D03*
%TD*%
D15*
%TO.P,U4,1,DIN*%
%TO.N,Net-(U4-DIN)*%
X103660000Y-104500000D03*
D16*
%TO.P,U4,2,DIG_0*%
%TO.N,Net-(D1-K)*%
X101120000Y-104500000D03*
%TO.P,U4,3,DIG_4*%
%TO.N,unconnected-(U4-DIG_4-Pad3)*%
X98580000Y-104500000D03*
%TO.P,U4,4,GND*%
%TO.N,GND*%
X96040000Y-104500000D03*
%TO.P,U4,5,DIG_6*%
%TO.N,Net-(U4-DIG_6)*%
X93500000Y-104500000D03*
%TO.P,U4,6,DIG_2*%
%TO.N,Net-(U4-DIG_2)*%
X90960000Y-104500000D03*
%TO.P,U4,7,DIG_3*%
%TO.N,Net-(U4-DIG_3)*%
X88420000Y-104500000D03*
%TO.P,U4,8,DIG_7*%
%TO.N,Net-(U4-DIG_7)*%
X85880000Y-104500000D03*
%TO.P,U4,9,GND*%
%TO.N,GND*%
X83340000Y-104500000D03*
%TO.P,U4,10,DIG_5*%
%TO.N,unconnected-(U4-DIG_5-Pad10)*%
X80800000Y-104500000D03*
%TO.P,U4,11,DIG_1*%
%TO.N,unconnected-(U4-DIG_1-Pad11)*%
X78260000Y-104500000D03*
%TO.P,U4,12,LOAD*%
%TO.N,Net-(U4-LOAD)*%
X75720000Y-104500000D03*
%TO.P,U4,13,CLK*%
%TO.N,Net-(U4-CLK)*%
X75720000Y-96880000D03*
%TO.P,U4,14,SEG_A*%
%TO.N,Net-(U4-SEG_A)*%
X78260000Y-96880000D03*
%TO.P,U4,15,SEG_F*%
%TO.N,Net-(U4-SEG_F)*%
X80800000Y-96880000D03*
%TO.P,U4,16,SEG_B*%
%TO.N,Net-(U4-SEG_B)*%
X83340000Y-96880000D03*
%TO.P,U4,17,SEG_G*%
%TO.N,unconnected-(U4-SEG_G-Pad17)*%
X85880000Y-96880000D03*
%TO.P,U4,18,ISET*%
%TO.N,Net-(U4-ISET)*%
X88420000Y-96880000D03*
%TO.P,U4,19,V+*%
%TO.N,+5V*%
X90960000Y-96880000D03*
%TO.P,U4,20,SEG_C*%
%TO.N,Net-(U4-SEG_C)*%
X93500000Y-96880000D03*
%TO.P,U4,21,SEG_E*%
%TO.N,Net-(U4-SEG_E)*%
X96040000Y-96880000D03*
%TO.P,U4,22,SEG_DP*%
%TO.N,Net-(U4-SEG_DP)*%
X98580000Y-96880000D03*
%TO.P,U4,23,SEG_D*%
%TO.N,Net-(D1-A)*%
X101120000Y-96880000D03*
%TO.P,U4,24,DOUT*%
%TO.N,unconnected-(U4-DOUT-Pad24)*%
X103660000Y-96880000D03*
%TD*%
D19*
%TO.N,+5V*%
X172479000Y-89399000D02*
X153521000Y-89399000D01*
X120524000Y-92799000D02*
X120800000Y-93075000D01*
X150431474Y-103500000D02*
X149000000Y-102068525D01*
X68000000Y-98500000D02*
X89340000Y-98500000D01*
X170620000Y-93460000D02*
X170620000Y-94000000D01*
X89340000Y-98500000D02*
X106000000Y-98500000D01*
X151000000Y-91920000D02*
X148420000Y-94500000D01*
X155000000Y-103500000D02*
X150431474Y-103500000D01*
X157620000Y-106120000D02*
X155000000Y-103500000D01*
X155500000Y-111896000D02*
X156375000Y-111021000D01*
X111701000Y-92799000D02*
X120524000Y-92799000D01*
X68000000Y-98500000D02*
X70500000Y-96000000D01*
X106000000Y-98500000D02*
X111701000Y-92799000D01*
X148420000Y-94500000D02*
X147500000Y-94500000D01*
X157620000Y-108000000D02*
X157620000Y-106120000D01*
X157620000Y-108880000D02*
X157620000Y-108000000D01*
X92080000Y-91500000D02*
X92080000Y-95760000D01*
X126057000Y-111896000D02*
X155500000Y-111896000D01*
X173580000Y-90500000D02*
X172479000Y-89399000D01*
X65000000Y-98500000D02*
X68000000Y-98500000D01*
X89340000Y-98500000D02*
X90960000Y-96880000D01*
X92080000Y-95760000D02*
X90960000Y-96880000D01*
X151000000Y-91920000D02*
X153521000Y-89399000D01*
X156375000Y-110125000D02*
X157620000Y-108880000D01*
X120800000Y-106639000D02*
X126057000Y-111896000D01*
X156375000Y-111021000D02*
X156375000Y-110125000D01*
X173580000Y-90500000D02*
X170620000Y-93460000D01*
X120800000Y-93075000D02*
X120800000Y-106639000D01*
X149000000Y-102068525D02*
X149000000Y-96000000D01*
X149000000Y-96000000D02*
X147500000Y-94500000D01*
%TO.N,GND*%
X175700000Y-101620000D02*
X174599000Y-100519000D01*
X199000000Y-94000000D02*
X195000000Y-90000000D01*
X162700000Y-110540000D02*
X170630455Y-110540000D01*
X96040000Y-104500000D02*
X105040000Y-113500000D01*
X244800000Y-121267100D02*
X244800000Y-97800000D01*
X164101000Y-100519000D02*
X163000000Y-101620000D01*
X174599000Y-100519000D02*
X164101000Y-100519000D01*
X241000000Y-94000000D02*
X199000000Y-94000000D01*
X244800000Y-97800000D02*
X241000000Y-94000000D01*
X159740000Y-113500000D02*
X162700000Y-110540000D01*
X182390455Y-122300000D02*
X243767100Y-122300000D01*
X83340000Y-104500000D02*
X84840000Y-103000000D01*
X146000000Y-98000000D02*
X147500000Y-99500000D01*
X170630455Y-110540000D02*
X182390455Y-122300000D01*
X151500000Y-88500000D02*
X146000000Y-94000000D01*
X65000000Y-103500000D02*
X65500000Y-103000000D01*
X146000000Y-94000000D02*
X146000000Y-98000000D01*
X175500000Y-88500000D02*
X151500000Y-88500000D01*
X243767100Y-122300000D02*
X244800000Y-121267100D01*
X84840000Y-103000000D02*
X94540000Y-103000000D01*
X195000000Y-90000000D02*
X177000000Y-90000000D01*
X105040000Y-113500000D02*
X159740000Y-113500000D01*
X164500000Y-103120000D02*
X164500000Y-108740000D01*
X163000000Y-101620000D02*
X164500000Y-103120000D01*
X177000000Y-90000000D02*
X175500000Y-88500000D01*
X65500000Y-103000000D02*
X84840000Y-103000000D01*
X164500000Y-108740000D02*
X162700000Y-110540000D01*
X94540000Y-103000000D02*
X96040000Y-104500000D01*
%TO.N,Net-(D1-A)*%
X96910000Y-83090000D02*
X96910000Y-82745000D01*
X122000000Y-92500000D02*
X122000000Y-94000000D01*
X121250000Y-91750000D02*
X122000000Y-92500000D01*
X104500000Y-91500000D02*
X98000000Y-85000000D01*
X132000000Y-85000000D02*
X132365000Y-85000000D01*
X98000000Y-85000000D02*
X132000000Y-85000000D01*
X104750000Y-91750000D02*
X121250000Y-91750000D01*
X101120000Y-95380000D02*
X101120000Y-96880000D01*
X68865000Y-85000000D02*
X94655000Y-85000000D01*
X132000000Y-85000000D02*
X162665000Y-85000000D01*
X104750000Y-91750000D02*
X101120000Y-95380000D01*
X94655000Y-85000000D02*
X96910000Y-82745000D01*
X162665000Y-85000000D02*
X164920000Y-82745000D01*
X104500000Y-91500000D02*
X104750000Y-91750000D01*
X132365000Y-85000000D02*
X134620000Y-82745000D01*
X66610000Y-82745000D02*
X68865000Y-85000000D01*
X122000000Y-94000000D02*
X122000000Y-105500000D01*
X94655000Y-85000000D02*
X98000000Y-85000000D01*
%TO.N,Net-(D1-K)*%
X101940000Y-102060000D02*
X101120000Y-102880000D01*
X119460000Y-94000000D02*
X119460000Y-105500000D01*
X103560000Y-102060000D02*
X101940000Y-102060000D01*
X119460000Y-94000000D02*
X111620000Y-94000000D01*
X101120000Y-102880000D02*
X101120000Y-104500000D01*
X111620000Y-94000000D02*
X103560000Y-102060000D01*
%TO.N,Net-(D3-K)*%
X227695000Y-118000000D02*
X226195000Y-116500000D01*
X219000000Y-116500000D02*
X211500000Y-116500000D01*
X226195000Y-116500000D02*
X226000000Y-116500000D01*
X196725000Y-116500000D02*
X189500000Y-116500000D01*
X189500000Y-116500000D02*
X182960000Y-116500000D01*
X220500000Y-118000000D02*
X219000000Y-116500000D01*
X230000000Y-116500000D02*
X226000000Y-116500000D01*
X233225000Y-116500000D02*
X230000000Y-116500000D01*
X213000000Y-118000000D02*
X211500000Y-116500000D01*
X191000000Y-118000000D02*
X189500000Y-116500000D01*
X182960000Y-116500000D02*
X168080000Y-101620000D01*
X211500000Y-116500000D02*
X204225000Y-116500000D01*
X204225000Y-116500000D02*
X196725000Y-116500000D01*
X234725000Y-118000000D02*
X233225000Y-116500000D01*
X226000000Y-116500000D02*
X219000000Y-116500000D01*
X198225000Y-118000000D02*
X196725000Y-116500000D01*
X205725000Y-118000000D02*
X204225000Y-116500000D01*
%TO.N,Net-(D3-A)*%
X200540000Y-97380000D02*
X198160000Y-95000000D01*
X176160000Y-91000000D02*
X173160000Y-94000000D01*
X244399000Y-121101000D02*
X244399000Y-99699000D01*
X226200000Y-95000000D02*
X239700000Y-95000000D01*
X198160000Y-95000000D02*
X211500000Y-95000000D01*
X211500000Y-95000000D02*
X211740000Y-95000000D01*
X226200000Y-95000000D02*
X228580000Y-97380000D01*
X211740000Y-95000000D02*
X214120000Y-97380000D01*
X211500000Y-95000000D02*
X226200000Y-95000000D01*
X239700000Y-95000000D02*
X242080000Y-97380000D01*
X243601000Y-121899000D02*
X244399000Y-121101000D01*
X193540000Y-118000000D02*
X197439000Y-121899000D01*
X244399000Y-99699000D02*
X242080000Y-97380000D01*
X194160000Y-91000000D02*
X176160000Y-91000000D01*
X197439000Y-121899000D02*
X243601000Y-121899000D01*
X198160000Y-95000000D02*
X194160000Y-91000000D01*
%TO.N,Net-(D4-A)*%
X237660000Y-95500000D02*
X239540000Y-97380000D01*
X227160000Y-98500000D02*
X229275000Y-98500000D01*
X231175000Y-95500000D02*
X237660000Y-95500000D01*
X217726000Y-95599000D02*
X224259000Y-95599000D01*
X201500000Y-98500000D02*
X201850000Y-98150000D01*
X229275000Y-98500000D02*
X229850000Y-97925000D01*
X204263000Y-121498000D02*
X243434900Y-121498000D01*
X198000000Y-97380000D02*
X199120000Y-98500000D01*
X243998000Y-101838000D02*
X239540000Y-97380000D01*
X226040000Y-97380000D02*
X227160000Y-98500000D01*
X192120000Y-91500000D02*
X178200000Y-91500000D01*
X224259000Y-95599000D02*
X226040000Y-97380000D01*
X212700000Y-98500000D02*
X214825000Y-98500000D01*
X201850000Y-96800000D02*
X202950000Y-95700000D01*
X200765000Y-118000000D02*
X204263000Y-121498000D01*
X229850000Y-96825000D02*
X231175000Y-95500000D01*
X229850000Y-97925000D02*
X229850000Y-96825000D01*
X202950000Y-95700000D02*
X209900000Y-95700000D01*
X211580000Y-97380000D02*
X212700000Y-98500000D01*
X178200000Y-91500000D02*
X175700000Y-94000000D01*
X243434900Y-121498000D02*
X243998000Y-120934900D01*
X243998000Y-120934900D02*
X243998000Y-101838000D01*
X199120000Y-98500000D02*
X201500000Y-98500000D01*
X214825000Y-98500000D02*
X217726000Y-95599000D01*
X201850000Y-98150000D02*
X201850000Y-96800000D01*
X198000000Y-97380000D02*
X192120000Y-91500000D01*
X209900000Y-95700000D02*
X211580000Y-97380000D01*
%TO.N,Net-(D5-A)*%
X230500000Y-97050000D02*
X231550000Y-96000000D01*
X230000000Y-99000000D02*
X230500000Y-98500000D01*
X202500000Y-98500000D02*
X202500000Y-97336690D01*
X243597000Y-120768800D02*
X243597000Y-106517000D01*
X194540000Y-99000000D02*
X202000000Y-99000000D01*
X205370000Y-96250000D02*
X206500000Y-97380000D01*
X222580000Y-99000000D02*
X230000000Y-99000000D01*
X233080000Y-96000000D02*
X234460000Y-97380000D01*
X230500000Y-98500000D02*
X230500000Y-97050000D01*
X180240000Y-92000000D02*
X178240000Y-94000000D01*
X243597000Y-106517000D02*
X234460000Y-97380000D01*
X208265000Y-118000000D02*
X211362000Y-121097000D01*
X211362000Y-121097000D02*
X243268800Y-121097000D01*
X219730000Y-96150000D02*
X220960000Y-97380000D01*
X215125000Y-99000000D02*
X217975000Y-96150000D01*
X203586690Y-96250000D02*
X205370000Y-96250000D01*
X220960000Y-97380000D02*
X222580000Y-99000000D01*
X187540000Y-92000000D02*
X180240000Y-92000000D01*
X202500000Y-97336690D02*
X203586690Y-96250000D01*
X192920000Y-97380000D02*
X194540000Y-99000000D01*
X208120000Y-99000000D02*
X215125000Y-99000000D01*
X231550000Y-96000000D02*
X233080000Y-96000000D01*
X192920000Y-97380000D02*
X187540000Y-92000000D01*
X217975000Y-96150000D02*
X219730000Y-96150000D01*
X202000000Y-99000000D02*
X202500000Y-98500000D01*
X206500000Y-97380000D02*
X208120000Y-99000000D01*
X243268800Y-121097000D02*
X243597000Y-120768800D01*
%TO.N,Net-(D6-A)*%
X217000000Y-99500000D02*
X203000000Y-99500000D01*
X203960000Y-98457630D02*
X202958815Y-99458815D01*
X217000000Y-99500000D02*
X231000000Y-99500000D01*
X203960000Y-97380000D02*
X203960000Y-97460000D01*
X192500000Y-99500000D02*
X202917630Y-99500000D01*
X215540000Y-118000000D02*
X218236000Y-120696000D01*
X190380000Y-97380000D02*
X192500000Y-99500000D01*
X231000000Y-99500000D02*
X231920000Y-98580000D01*
X182280000Y-92500000D02*
X180780000Y-94000000D01*
X202958815Y-99458815D02*
X202917630Y-99500000D01*
X217500000Y-99500000D02*
X217000000Y-99500000D01*
X231920000Y-98580000D02*
X231920000Y-97380000D01*
X218420000Y-98580000D02*
X217500000Y-99500000D01*
X203000000Y-99500000D02*
X202958815Y-99458815D01*
X218420000Y-97380000D02*
X218420000Y-98580000D01*
X185500000Y-92500000D02*
X182280000Y-92500000D01*
X243196000Y-120304000D02*
X243196000Y-111696000D01*
X190380000Y-97380000D02*
X185500000Y-92500000D01*
X203960000Y-97380000D02*
X203960000Y-98457630D01*
X218236000Y-120696000D02*
X242804000Y-120696000D01*
X242804000Y-120696000D02*
X243196000Y-120304000D01*
X203960000Y-97460000D02*
X204000000Y-97500000D01*
X243196000Y-111696000D02*
X231000000Y-99500000D01*
%TO.N,Net-(D7-A)*%
X196500000Y-110500000D02*
X197000000Y-110500000D01*
X226040000Y-111542370D02*
X224997630Y-110500000D01*
X198000000Y-112620000D02*
X198000000Y-111500000D01*
X210537630Y-110500000D02*
X197000000Y-110500000D01*
X238497630Y-110500000D02*
X224997630Y-110500000D01*
X211580000Y-111542370D02*
X210537630Y-110500000D01*
X238500000Y-120000000D02*
X239540000Y-118960000D01*
X165540000Y-94000000D02*
X167040000Y-95500000D01*
X223040000Y-118000000D02*
X225040000Y-120000000D01*
X226040000Y-112620000D02*
X226040000Y-111542370D01*
X224997630Y-110500000D02*
X210537630Y-110500000D01*
X239540000Y-112620000D02*
X239540000Y-111542370D01*
X198000000Y-111500000D02*
X197000000Y-110500000D01*
X224997630Y-110500000D02*
X224000000Y-110500000D01*
X181500000Y-95500000D02*
X196500000Y-110500000D01*
X167040000Y-95500000D02*
X181500000Y-95500000D01*
X239540000Y-118960000D02*
X239540000Y-112620000D01*
X239540000Y-111542370D02*
X238497630Y-110500000D01*
X225040000Y-120000000D02*
X238500000Y-120000000D01*
X211580000Y-112620000D02*
X211580000Y-111542370D01*
%TO.N,Net-(D8-A)*%
X192920000Y-112620000D02*
X194384000Y-111156000D01*
X219500000Y-111156000D02*
X224281000Y-111156000D01*
X233420000Y-111580000D02*
X233397000Y-111557000D01*
X229533550Y-113966450D02*
X225533550Y-113966450D01*
X231735000Y-119500000D02*
X237500000Y-119500000D01*
X196924000Y-113424000D02*
X197500000Y-114000000D01*
X224977000Y-111852000D02*
X224977000Y-112026590D01*
X196066410Y-111156000D02*
X196924000Y-112013590D01*
X211011895Y-114000000D02*
X214914000Y-114000000D01*
X238477000Y-118523000D02*
X238477000Y-111552000D01*
X180910410Y-96000000D02*
X165000000Y-96000000D01*
X230235000Y-118000000D02*
X231735000Y-119500000D01*
X217758000Y-111156000D02*
X219500000Y-111156000D01*
X238477000Y-111552000D02*
X238024000Y-111099000D01*
X200500000Y-114000000D02*
X201500000Y-114000000D01*
X196924000Y-112013590D02*
X196924000Y-113424000D01*
X201500000Y-114000000D02*
X202500000Y-113000000D01*
X194384000Y-111156000D02*
X196066410Y-111156000D01*
X238024000Y-111099000D02*
X231458000Y-111099000D01*
X165000000Y-96000000D02*
X163000000Y-94000000D01*
X200500000Y-114000000D02*
X200663310Y-114000000D01*
X225533550Y-113966450D02*
X224977000Y-113409900D01*
X197500000Y-114000000D02*
X200500000Y-114000000D01*
X230557000Y-112943000D02*
X229533550Y-113966450D01*
X234460000Y-112620000D02*
X233420000Y-111580000D01*
X224281000Y-111156000D02*
X224977000Y-111852000D01*
X205036000Y-111156000D02*
X209956000Y-111156000D01*
X224977000Y-113409900D02*
X224977000Y-112026590D01*
X231458000Y-111099000D02*
X230557000Y-112000000D01*
X206500000Y-112620000D02*
X205036000Y-111156000D01*
X210504000Y-113492105D02*
X211011895Y-114000000D01*
X220960000Y-112620000D02*
X219500000Y-111160000D01*
X202500000Y-113000000D02*
X202500000Y-111954000D01*
X214914000Y-114000000D02*
X217758000Y-111156000D01*
X202500000Y-111954000D02*
X203298000Y-111156000D01*
X219500000Y-111160000D02*
X219500000Y-111156000D01*
X237500000Y-119500000D02*
X238477000Y-118523000D01*
X233420000Y-111580000D02*
X232981000Y-111141000D01*
X210504000Y-111704000D02*
X210504000Y-113492105D01*
X203298000Y-111156000D02*
X205036000Y-111156000D01*
X200663310Y-114000000D02*
X199500000Y-114000000D01*
X230557000Y-112000000D02*
X230557000Y-112943000D01*
X209956000Y-111156000D02*
X210504000Y-111704000D01*
X196066410Y-111156000D02*
X180910410Y-96000000D01*
X224977000Y-112026590D02*
X224977000Y-112500000D01*
%TO.N,Net-(D9-A)*%
X208193000Y-111557000D02*
X207700000Y-112050000D01*
X209682000Y-111557000D02*
X208193000Y-111557000D01*
X197333900Y-114401000D02*
X200500000Y-114401000D01*
X210103000Y-111978000D02*
X209682000Y-111557000D01*
X235750000Y-113000000D02*
X234250000Y-114500000D01*
X200500000Y-114401000D02*
X202179000Y-114401000D01*
X210103000Y-113213410D02*
X210103000Y-111978000D01*
X200500000Y-114401000D02*
X200829410Y-114401000D01*
X220874000Y-114401000D02*
X222225000Y-113050000D01*
X237265000Y-114361000D02*
X238063000Y-113563000D01*
X222743000Y-111557000D02*
X224032000Y-111557000D01*
X194000000Y-112576690D02*
X195019690Y-111557000D01*
X210845795Y-114401000D02*
X216500000Y-114401000D01*
X210103000Y-113213410D02*
X210103000Y-113000000D01*
X224563000Y-112088000D02*
X224563000Y-113563000D01*
X216500000Y-114401000D02*
X216639000Y-114401000D01*
X238063000Y-113563000D02*
X238063000Y-111888000D01*
X162960000Y-96500000D02*
X160460000Y-94000000D01*
X207700000Y-112050000D02*
X207700000Y-113150000D01*
X195019690Y-111557000D02*
X195900310Y-111557000D01*
X190380000Y-112620000D02*
X190380000Y-106586920D01*
X236500000Y-111500000D02*
X235750000Y-112250000D01*
X202179000Y-114401000D02*
X202540000Y-114040000D01*
X193500000Y-114000000D02*
X194000000Y-113500000D01*
X234250000Y-114500000D02*
X230040000Y-114500000D01*
X238063000Y-111888000D02*
X237675000Y-111500000D01*
X225500000Y-114500000D02*
X230040000Y-114500000D01*
X206449000Y-114401000D02*
X202179000Y-114401000D01*
X210103000Y-113213410D02*
X210103000Y-113658205D01*
X207700000Y-113150000D02*
X206449000Y-114401000D01*
X195900310Y-111557000D02*
X196523000Y-112179690D01*
X216500000Y-114401000D02*
X220874000Y-114401000D01*
X202179000Y-114401000D02*
X203960000Y-112620000D01*
X191500000Y-114000000D02*
X193500000Y-114000000D01*
X224563000Y-113563000D02*
X225500000Y-114500000D01*
X190380000Y-106586920D02*
X180293080Y-96500000D01*
X190380000Y-112620000D02*
X190380000Y-112880000D01*
X194000000Y-113500000D02*
X194000000Y-112576690D01*
X190380000Y-112880000D02*
X191500000Y-114000000D01*
X224032000Y-111557000D02*
X224563000Y-112088000D01*
X237675000Y-111500000D02*
X236500000Y-111500000D01*
X222225000Y-112075000D02*
X222743000Y-111557000D01*
X196523000Y-112179690D02*
X196523000Y-113590100D01*
X218420000Y-112620000D02*
X216639000Y-114401000D01*
X180293080Y-96500000D02*
X162960000Y-96500000D01*
X222225000Y-113050000D02*
X222225000Y-112075000D01*
X210103000Y-113658205D02*
X210845795Y-114401000D01*
X235750000Y-112250000D02*
X235750000Y-113000000D01*
X230040000Y-114500000D02*
X231920000Y-112620000D01*
X237265000Y-118000000D02*
X237265000Y-114361000D01*
X196523000Y-113590100D02*
X197333900Y-114401000D01*
%TO.N,Net-(SW5A-C)*%
X149164840Y-109151000D02*
X151151000Y-109151000D01*
X177500000Y-86000000D02*
X149000000Y-86000000D01*
X143500000Y-103486160D02*
X149164840Y-109151000D01*
X233250000Y-83500000D02*
X231250000Y-81500000D01*
X201000000Y-81500000D02*
X200000000Y-82500000D01*
X143500000Y-91500000D02*
X143500000Y-103486160D01*
X149000000Y-86000000D02*
X143500000Y-91500000D01*
X151151000Y-109151000D02*
X152540000Y-110540000D01*
X200000000Y-82500000D02*
X181000000Y-82500000D01*
X231250000Y-81500000D02*
X201000000Y-81500000D01*
X181000000Y-82500000D02*
X177500000Y-86000000D01*
X233250000Y-83500000D02*
X239750000Y-83500000D01*
%TO.N,Net-(SW1A-C)*%
X212000000Y-81000000D02*
X200500000Y-81000000D01*
X143000000Y-104742081D02*
X148797919Y-110540000D01*
X199500000Y-82000000D02*
X180500000Y-82000000D01*
X219750000Y-79750000D02*
X213250000Y-79750000D01*
X200500000Y-81000000D02*
X199500000Y-82000000D01*
X143000000Y-91000000D02*
X143000000Y-104742081D01*
X177000000Y-85500000D02*
X148500000Y-85500000D01*
X213250000Y-79750000D02*
X212000000Y-81000000D01*
X148500000Y-85500000D02*
X143000000Y-91000000D01*
X148797919Y-110540000D02*
X150000000Y-110540000D01*
X180500000Y-82000000D02*
X177000000Y-85500000D01*
%TO.N,Net-(U4-DIN)*%
X162700000Y-108000000D02*
X161800000Y-107100000D01*
X162900000Y-100000000D02*
X181700000Y-100000000D01*
X103660000Y-104500000D02*
X103660000Y-104660000D01*
X181700000Y-100000000D02*
X183320000Y-101620000D01*
X161800000Y-101100000D02*
X162900000Y-100000000D01*
X159725000Y-109225000D02*
X161475000Y-109225000D01*
X111698000Y-112698000D02*
X157327760Y-112698000D01*
X158900000Y-110050000D02*
X159725000Y-109225000D01*
X103660000Y-104660000D02*
X111698000Y-112698000D01*
X161475000Y-109225000D02*
X162700000Y-108000000D01*
X161800000Y-107100000D02*
X161800000Y-101100000D01*
X158900000Y-111125760D02*
X158900000Y-110050000D01*
X157327760Y-112698000D02*
X158900000Y-111125760D01*
%TO.N,Net-(U4-CLK)*%
X102400000Y-103625000D02*
X102400000Y-105050000D01*
X63500000Y-97500000D02*
X66500000Y-94500000D01*
X113572000Y-112297000D02*
X104525000Y-103250000D01*
X63500000Y-99028525D02*
X63500000Y-97500000D01*
X66500000Y-94500000D02*
X73340000Y-94500000D01*
X156625000Y-102503525D02*
X156625000Y-95245000D01*
X97475050Y-101500000D02*
X65971475Y-101500000D01*
X155863000Y-112297000D02*
X113572000Y-112297000D01*
X159000000Y-104878525D02*
X156625000Y-102503525D01*
X102400000Y-105050000D02*
X101700000Y-105750000D01*
X159000000Y-109160000D02*
X159000000Y-104878525D01*
X157620000Y-110540000D02*
X155863000Y-112297000D01*
X104525000Y-103250000D02*
X102775000Y-103250000D01*
X99900000Y-103924950D02*
X97475050Y-101500000D01*
X156625000Y-95245000D02*
X155380000Y-94000000D01*
X157620000Y-110540000D02*
X159000000Y-109160000D01*
X102775000Y-103250000D02*
X102400000Y-103625000D01*
X73340000Y-94500000D02*
X75720000Y-96880000D01*
X65971475Y-101500000D02*
X63500000Y-99028525D01*
X100450000Y-105750000D02*
X99900000Y-105200000D01*
X99900000Y-105200000D02*
X99900000Y-103924950D01*
X101700000Y-105750000D02*
X100450000Y-105750000D01*
%TO.N,Net-(SW4A-C)*%
X213250000Y-87750000D02*
X210500000Y-85000000D01*
X153580000Y-106500000D02*
X155080000Y-108000000D01*
X210500000Y-85000000D02*
X201500000Y-85000000D01*
X145000000Y-99800000D02*
X151700000Y-106500000D01*
X219750000Y-87750000D02*
X213250000Y-87750000D01*
X151700000Y-106500000D02*
X153580000Y-106500000D01*
X200500000Y-84000000D02*
X182500000Y-84000000D01*
X145000000Y-93000000D02*
X145000000Y-99800000D01*
X179000000Y-87500000D02*
X150500000Y-87500000D01*
X201500000Y-85000000D02*
X200500000Y-84000000D01*
X182500000Y-84000000D02*
X179000000Y-87500000D01*
X150500000Y-87500000D02*
X145000000Y-93000000D01*
%TO.N,Net-(U4-LOAD)*%
X63500000Y-102971475D02*
X64471475Y-102000000D01*
X64471475Y-102000000D02*
X95435050Y-102000000D01*
X105524000Y-113099000D02*
X157601000Y-113099000D01*
X63500000Y-104028525D02*
X63500000Y-102971475D01*
X97350000Y-103914950D02*
X97350000Y-104925000D01*
X72500000Y-104500000D02*
X75720000Y-104500000D01*
X72500000Y-104500000D02*
X72000000Y-105000000D01*
X72000000Y-105000000D02*
X64471475Y-105000000D01*
X64471475Y-105000000D02*
X63500000Y-104028525D01*
X95435050Y-102000000D02*
X97350000Y-103914950D01*
X97350000Y-104925000D02*
X105524000Y-113099000D01*
X70500000Y-106160000D02*
X70840000Y-106160000D01*
X70840000Y-106160000D02*
X72500000Y-104500000D01*
X157601000Y-113099000D02*
X160160000Y-110540000D01*
%TO.N,Net-(SW2A-C)*%
X144500000Y-100134200D02*
X152365800Y-108000000D01*
X182000000Y-83500000D02*
X178500000Y-87000000D01*
X150000000Y-87000000D02*
X144500000Y-92500000D01*
X144500000Y-92500000D02*
X144500000Y-100134200D01*
X178500000Y-87000000D02*
X150000000Y-87000000D01*
X152365800Y-108000000D02*
X152540000Y-108000000D01*
X209750000Y-83500000D02*
X203250000Y-83500000D01*
X203250000Y-83500000D02*
X182000000Y-83500000D01*
%TO.N,Net-(SW3A-C)*%
X221949000Y-82199000D02*
X201301000Y-82199000D01*
X223250000Y-83500000D02*
X221949000Y-82199000D01*
X223250000Y-83500000D02*
X229750000Y-83500000D01*
X178000000Y-86500000D02*
X149483225Y-86500000D01*
X201301000Y-82199000D02*
X200500000Y-83000000D01*
X200500000Y-83000000D02*
X181500000Y-83000000D01*
X150000000Y-106500000D02*
X150000000Y-108000000D01*
X181500000Y-83000000D02*
X178000000Y-86500000D01*
X149483225Y-86500000D02*
X144000000Y-91983225D01*
X144000000Y-100500000D02*
X150000000Y-106500000D01*
X144000000Y-91983225D02*
X144000000Y-100500000D01*
%TO.N,Net-(U9-LOAD)*%
X159200000Y-96837050D02*
X156650000Y-94287050D01*
X156650000Y-93500000D02*
X155875000Y-92725000D01*
X159200000Y-102700000D02*
X159200000Y-96837050D01*
X160000000Y-107840000D02*
X160000000Y-103500000D01*
X154920000Y-102080000D02*
X155380000Y-101620000D01*
X151000000Y-102080000D02*
X154920000Y-102080000D01*
X154000000Y-93411475D02*
X154000000Y-100240000D01*
X156650000Y-94287050D02*
X156650000Y-93500000D01*
X160000000Y-103500000D02*
X159200000Y-102700000D01*
X154686475Y-92725000D02*
X154000000Y-93411475D01*
X155875000Y-92725000D02*
X154686475Y-92725000D01*
X160160000Y-108000000D02*
X160000000Y-107840000D01*
X154000000Y-100240000D02*
X155380000Y-101620000D01*
%TO.N,Net-(U4-ISET)*%
X81920000Y-91500000D02*
X83040000Y-91500000D01*
X83040000Y-91500000D02*
X88420000Y-96880000D01*
%TO.N,Net-(U9-ISET)*%
X163420000Y-90500000D02*
X164580000Y-90500000D01*
X164580000Y-90500000D02*
X168080000Y-94000000D01*
%TO.N,Net-(U4-SEG_C)*%
X74525000Y-80500000D02*
X76770000Y-82745000D01*
X89500000Y-86500000D02*
X67175000Y-86500000D01*
X93500000Y-96880000D02*
X93500000Y-90500000D01*
X104825000Y-80500000D02*
X74525000Y-80500000D01*
X67175000Y-86500000D02*
X64500000Y-83825000D01*
X104825000Y-80500000D02*
X142535000Y-80500000D01*
X144780000Y-82745000D02*
X142535000Y-80500000D01*
X65625000Y-80500000D02*
X74525000Y-80500000D01*
X64500000Y-81625000D02*
X65625000Y-80500000D01*
X64500000Y-83825000D02*
X64500000Y-81625000D01*
X93500000Y-90500000D02*
X89500000Y-86500000D01*
X175080000Y-82745000D02*
X172835000Y-80500000D01*
X172835000Y-80500000D02*
X142535000Y-80500000D01*
X107070000Y-82745000D02*
X104825000Y-80500000D01*
%TO.N,Net-(U4-SEG_B)*%
X95500000Y-120000000D02*
X102835000Y-120000000D01*
X61500000Y-96500000D02*
X65000000Y-93000000D01*
X79460000Y-93000000D02*
X83340000Y-96880000D01*
X65216450Y-120000000D02*
X61500000Y-116283550D01*
X102835000Y-120000000D02*
X104530000Y-118305000D01*
X61500000Y-116283550D02*
X61500000Y-96500000D01*
X143545000Y-117000000D02*
X160716450Y-117000000D01*
X142240000Y-118305000D02*
X143545000Y-117000000D01*
X170845000Y-120000000D02*
X172540000Y-118305000D01*
X133000000Y-120000000D02*
X140545000Y-120000000D01*
X92500000Y-117000000D02*
X95500000Y-120000000D01*
X75535000Y-117000000D02*
X92500000Y-117000000D01*
X72535000Y-120000000D02*
X65216450Y-120000000D01*
X140545000Y-120000000D02*
X142240000Y-118305000D01*
X74230000Y-118305000D02*
X72535000Y-120000000D01*
X163716450Y-120000000D02*
X170845000Y-120000000D01*
X160716450Y-117000000D02*
X163716450Y-120000000D01*
X105835000Y-117000000D02*
X130000000Y-117000000D01*
X65000000Y-93000000D02*
X79460000Y-93000000D01*
X104530000Y-118305000D02*
X105835000Y-117000000D01*
X74230000Y-118305000D02*
X75535000Y-117000000D01*
X130000000Y-117000000D02*
X133000000Y-120000000D01*
%TO.N,Net-(U4-DIG_3)*%
X88420000Y-104500000D02*
X98920000Y-115000000D01*
X176143000Y-117753845D02*
X176143000Y-119357000D01*
X173389155Y-115000000D02*
X176143000Y-117753845D01*
X175000000Y-120500000D02*
X146975000Y-120500000D01*
X176143000Y-119357000D02*
X175000000Y-120500000D01*
X146975000Y-120500000D02*
X144780000Y-118305000D01*
X98920000Y-115000000D02*
X173389155Y-115000000D01*
%TO.N,Net-(U4-SEG_E)*%
X105785000Y-84000000D02*
X128000000Y-84000000D01*
X95500000Y-81000000D02*
X102785000Y-81000000D01*
X171076000Y-81281000D02*
X172540000Y-82745000D01*
X130719000Y-81281000D02*
X140776000Y-81281000D01*
X140776000Y-81281000D02*
X142240000Y-82745000D01*
X104530000Y-82745000D02*
X105785000Y-84000000D01*
X90000000Y-86000000D02*
X67425000Y-86000000D01*
X160500000Y-84000000D02*
X163219000Y-81281000D01*
X102785000Y-81000000D02*
X104530000Y-82745000D01*
X96500000Y-96420000D02*
X96500000Y-92500000D01*
X65000000Y-83575000D02*
X65000000Y-81858745D01*
X65000000Y-81858745D02*
X65858745Y-81000000D01*
X142240000Y-82745000D02*
X143495000Y-84000000D01*
X96500000Y-92500000D02*
X90000000Y-86000000D01*
X92500000Y-84000000D02*
X95500000Y-81000000D01*
X74230000Y-82745000D02*
X75485000Y-84000000D01*
X65858745Y-81000000D02*
X72485000Y-81000000D01*
X67425000Y-86000000D02*
X65000000Y-83575000D01*
X75485000Y-84000000D02*
X92500000Y-84000000D01*
X72485000Y-81000000D02*
X74230000Y-82745000D01*
X128000000Y-84000000D02*
X130719000Y-81281000D01*
X163219000Y-81281000D02*
X171076000Y-81281000D01*
X96040000Y-96880000D02*
X96500000Y-96420000D01*
X143495000Y-84000000D02*
X160500000Y-84000000D01*
%TO.N,Net-(U9-DIG_2)*%
X237000000Y-112620000D02*
X233620000Y-116000000D01*
X233620000Y-116000000D02*
X185000000Y-116000000D01*
X185000000Y-116000000D02*
X170620000Y-101620000D01*
%TO.N,Net-(U9-DIG_6)*%
X187040000Y-115500000D02*
X173160000Y-101620000D01*
X223500000Y-112620000D02*
X220620000Y-115500000D01*
X220620000Y-115500000D02*
X187040000Y-115500000D01*
%TO.N,Net-(U9-DIG_4)*%
X206660000Y-115000000D02*
X209040000Y-112620000D01*
X178240000Y-101620000D02*
X178240000Y-105240000D01*
X188000000Y-115000000D02*
X206660000Y-115000000D01*
X178240000Y-105240000D02*
X188000000Y-115000000D01*
%TO.N,Net-(U9-DIG_0)*%
X195460000Y-112620000D02*
X193580000Y-114500000D01*
X193580000Y-114500000D02*
X188500000Y-114500000D01*
X180780000Y-106780000D02*
X180780000Y-101620000D01*
X188500000Y-114500000D02*
X180780000Y-106780000D01*
%TO.N,Net-(U4-SEG_A)*%
X65500000Y-94000000D02*
X62500000Y-97000000D01*
X78260000Y-96880000D02*
X75380000Y-94000000D01*
X75380000Y-94000000D02*
X65500000Y-94000000D01*
X165155000Y-116000000D02*
X167460000Y-118305000D01*
X99450000Y-118305000D02*
X97145000Y-116000000D01*
X96500000Y-116000000D02*
X134855000Y-116000000D01*
X134855000Y-116000000D02*
X137160000Y-118305000D01*
X134000000Y-116000000D02*
X165155000Y-116000000D01*
X62500000Y-97000000D02*
X62500000Y-111655000D01*
X66845000Y-116000000D02*
X69150000Y-118305000D01*
X62500000Y-111655000D02*
X66845000Y-116000000D01*
X97145000Y-116000000D02*
X66845000Y-116000000D01*
%TO.N,Net-(U4-SEG_DP)*%
X131000000Y-84500000D02*
X133818000Y-81682000D01*
X99450000Y-82745000D02*
X101205000Y-84500000D01*
X98580000Y-93580000D02*
X90500000Y-85500000D01*
X161500000Y-84500000D02*
X164318000Y-81682000D01*
X137160000Y-82745000D02*
X138915000Y-84500000D01*
X166397000Y-81682000D02*
X167460000Y-82745000D01*
X90500000Y-85500000D02*
X67725000Y-85500000D01*
X93500000Y-84500000D02*
X96500000Y-81500000D01*
X65500000Y-82162500D02*
X66062500Y-81600000D01*
X98580000Y-96880000D02*
X98580000Y-93580000D01*
X101205000Y-84500000D02*
X131000000Y-84500000D01*
X70905000Y-84500000D02*
X93500000Y-84500000D01*
X98205000Y-81500000D02*
X99450000Y-82745000D01*
X67725000Y-85500000D02*
X65500000Y-83275000D01*
X164318000Y-81682000D02*
X166397000Y-81682000D01*
X96500000Y-81500000D02*
X98205000Y-81500000D01*
X133818000Y-81682000D02*
X136097000Y-81682000D01*
X68005000Y-81600000D02*
X69150000Y-82745000D01*
X66062500Y-81600000D02*
X68005000Y-81600000D01*
X65500000Y-83275000D02*
X65500000Y-82162500D01*
X136097000Y-81682000D02*
X137160000Y-82745000D01*
X69150000Y-82745000D02*
X70905000Y-84500000D01*
X138915000Y-84500000D02*
X161500000Y-84500000D01*
%TO.N,Net-(U4-DIG_2)*%
X176544000Y-117587745D02*
X176544000Y-119523100D01*
X100960000Y-114500000D02*
X173456255Y-114500000D01*
X109765000Y-121000000D02*
X107070000Y-118305000D01*
X173456255Y-114500000D02*
X176544000Y-117587745D01*
X175067100Y-121000000D02*
X109765000Y-121000000D01*
X90960000Y-104500000D02*
X100960000Y-114500000D01*
X176544000Y-119523100D02*
X175067100Y-121000000D01*
%TO.N,Net-(U4-DIG_6)*%
X93500000Y-104500000D02*
X103000000Y-114000000D01*
X173523355Y-114000000D02*
X176945000Y-117421645D01*
X175134200Y-121500000D02*
X79965000Y-121500000D01*
X79965000Y-121500000D02*
X76770000Y-118305000D01*
X176945000Y-117421645D02*
X176945000Y-119689200D01*
X176945000Y-119689200D02*
X175134200Y-121500000D01*
X103000000Y-114000000D02*
X173523355Y-114000000D01*
%TO.N,Net-(U4-DIG_7)*%
X96880000Y-115500000D02*
X172275000Y-115500000D01*
X85880000Y-104500000D02*
X96880000Y-115500000D01*
X172275000Y-115500000D02*
X175080000Y-118305000D01*
%TO.N,Net-(U4-SEG_F)*%
X62000000Y-116000000D02*
X65500000Y-119500000D01*
X168805000Y-119500000D02*
X170000000Y-118305000D01*
X71690000Y-118305000D02*
X73495000Y-116500000D01*
X93000000Y-116500000D02*
X96000000Y-119500000D01*
X65500000Y-119500000D02*
X70495000Y-119500000D01*
X100795000Y-119500000D02*
X101990000Y-118305000D01*
X70495000Y-119500000D02*
X71690000Y-118305000D01*
X80800000Y-96880000D02*
X77420000Y-93500000D01*
X139700000Y-118305000D02*
X141505000Y-116500000D01*
X161000000Y-116500000D02*
X164000000Y-119500000D01*
X103795000Y-116500000D02*
X130500000Y-116500000D01*
X62000000Y-96716450D02*
X62000000Y-116000000D01*
X130500000Y-116500000D02*
X133500000Y-119500000D01*
X141505000Y-116500000D02*
X161000000Y-116500000D01*
X65216450Y-93500000D02*
X62000000Y-96716450D01*
X164000000Y-119500000D02*
X168805000Y-119500000D01*
X77420000Y-93500000D02*
X65216450Y-93500000D01*
X96000000Y-119500000D02*
X100795000Y-119500000D01*
X133500000Y-119500000D02*
X138505000Y-119500000D01*
X73495000Y-116500000D02*
X93000000Y-116500000D01*
X101990000Y-118305000D02*
X103795000Y-116500000D01*
X138505000Y-119500000D02*
X139700000Y-118305000D01*
%TO.N,+3.3V*%
X203250000Y-88000000D02*
X209750000Y-88000000D01*
X223250000Y-88000000D02*
X229750000Y-88000000D01*
X203250000Y-88000000D02*
X150985737Y-88000000D01*
X233250000Y-88000000D02*
X239750000Y-88000000D01*
X151975000Y-106000000D02*
X155000000Y-106000000D01*
X219750000Y-92250000D02*
X213250000Y-92250000D01*
X213250000Y-84250000D02*
X219750000Y-84250000D01*
X145500000Y-93485737D02*
X145500000Y-99525000D01*
X213250000Y-91500000D02*
X213250000Y-92250000D01*
X223250000Y-88750000D02*
X223250000Y-88000000D01*
X155000000Y-106000000D02*
X156400000Y-107400000D01*
X155080000Y-110540000D02*
X155040000Y-110540000D01*
X145500000Y-99525000D02*
X151975000Y-106000000D01*
X156400000Y-107400000D02*
X156400000Y-108950000D01*
X155080000Y-110270000D02*
X155080000Y-110540000D01*
X150985737Y-88000000D02*
X145500000Y-93485737D01*
X219750000Y-84250000D02*
X223250000Y-87750000D01*
X223250000Y-87750000D02*
X223250000Y-88000000D01*
X229750000Y-88000000D02*
X233250000Y-88000000D01*
X209750000Y-88000000D02*
X213250000Y-91500000D01*
X219750000Y-92250000D02*
X223250000Y-88750000D01*
X156400000Y-108950000D02*
X155080000Y-110270000D01*
%TD*%
M02*
