%TF.GenerationSoftware,KiCad,Pcbnew,9.0.7*%
%TF.CreationDate,2026-01-05T14:29:03+01:00*%
%TF.ProjectId,display-Schematic,64697370-6c61-4792-9d53-6368656d6174,rev?*%
%TF.SameCoordinates,Original*%
%TF.FileFunction,Legend,Bot*%
%TF.FilePolarity,Positive*%
%FSLAX46Y46*%
G04 Gerber Fmt 4.6, Leading zero omitted, Abs format (unit mm)*
G04 Created by KiCad (PCBNEW 9.0.7) date 2026-01-05 14:29:03*
%MOMM*%
%LPD*%
G01*
G04 APERTURE LIST*
%ADD10C,0.150000*%
%ADD11C,0.120000*%
G04 APERTURE END LIST*
D10*
X185104819Y-97048095D02*
X185914342Y-97048095D01*
X185914342Y-97048095D02*
X186009580Y-97095714D01*
X186009580Y-97095714D02*
X186057200Y-97143333D01*
X186057200Y-97143333D02*
X186104819Y-97238571D01*
X186104819Y-97238571D02*
X186104819Y-97429047D01*
X186104819Y-97429047D02*
X186057200Y-97524285D01*
X186057200Y-97524285D02*
X186009580Y-97571904D01*
X186009580Y-97571904D02*
X185914342Y-97619523D01*
X185914342Y-97619523D02*
X185104819Y-97619523D01*
X186104819Y-98143333D02*
X186104819Y-98333809D01*
X186104819Y-98333809D02*
X186057200Y-98429047D01*
X186057200Y-98429047D02*
X186009580Y-98476666D01*
X186009580Y-98476666D02*
X185866723Y-98571904D01*
X185866723Y-98571904D02*
X185676247Y-98619523D01*
X185676247Y-98619523D02*
X185295295Y-98619523D01*
X185295295Y-98619523D02*
X185200057Y-98571904D01*
X185200057Y-98571904D02*
X185152438Y-98524285D01*
X185152438Y-98524285D02*
X185104819Y-98429047D01*
X185104819Y-98429047D02*
X185104819Y-98238571D01*
X185104819Y-98238571D02*
X185152438Y-98143333D01*
X185152438Y-98143333D02*
X185200057Y-98095714D01*
X185200057Y-98095714D02*
X185295295Y-98048095D01*
X185295295Y-98048095D02*
X185533390Y-98048095D01*
X185533390Y-98048095D02*
X185628628Y-98095714D01*
X185628628Y-98095714D02*
X185676247Y-98143333D01*
X185676247Y-98143333D02*
X185723866Y-98238571D01*
X185723866Y-98238571D02*
X185723866Y-98429047D01*
X185723866Y-98429047D02*
X185676247Y-98524285D01*
X185676247Y-98524285D02*
X185628628Y-98571904D01*
X185628628Y-98571904D02*
X185533390Y-98619523D01*
X145109580Y-96833333D02*
X145157200Y-96785714D01*
X145157200Y-96785714D02*
X145204819Y-96642857D01*
X145204819Y-96642857D02*
X145204819Y-96547619D01*
X145204819Y-96547619D02*
X145157200Y-96404762D01*
X145157200Y-96404762D02*
X145061961Y-96309524D01*
X145061961Y-96309524D02*
X144966723Y-96261905D01*
X144966723Y-96261905D02*
X144776247Y-96214286D01*
X144776247Y-96214286D02*
X144633390Y-96214286D01*
X144633390Y-96214286D02*
X144442914Y-96261905D01*
X144442914Y-96261905D02*
X144347676Y-96309524D01*
X144347676Y-96309524D02*
X144252438Y-96404762D01*
X144252438Y-96404762D02*
X144204819Y-96547619D01*
X144204819Y-96547619D02*
X144204819Y-96642857D01*
X144204819Y-96642857D02*
X144252438Y-96785714D01*
X144252438Y-96785714D02*
X144300057Y-96833333D01*
X144204819Y-97738095D02*
X144204819Y-97261905D01*
X144204819Y-97261905D02*
X144681009Y-97214286D01*
X144681009Y-97214286D02*
X144633390Y-97261905D01*
X144633390Y-97261905D02*
X144585771Y-97357143D01*
X144585771Y-97357143D02*
X144585771Y-97595238D01*
X144585771Y-97595238D02*
X144633390Y-97690476D01*
X144633390Y-97690476D02*
X144681009Y-97738095D01*
X144681009Y-97738095D02*
X144776247Y-97785714D01*
X144776247Y-97785714D02*
X145014342Y-97785714D01*
X145014342Y-97785714D02*
X145109580Y-97738095D01*
X145109580Y-97738095D02*
X145157200Y-97690476D01*
X145157200Y-97690476D02*
X145204819Y-97595238D01*
X145204819Y-97595238D02*
X145204819Y-97357143D01*
X145204819Y-97357143D02*
X145157200Y-97261905D01*
X145157200Y-97261905D02*
X145109580Y-97214286D01*
X62609580Y-100833333D02*
X62657200Y-100785714D01*
X62657200Y-100785714D02*
X62704819Y-100642857D01*
X62704819Y-100642857D02*
X62704819Y-100547619D01*
X62704819Y-100547619D02*
X62657200Y-100404762D01*
X62657200Y-100404762D02*
X62561961Y-100309524D01*
X62561961Y-100309524D02*
X62466723Y-100261905D01*
X62466723Y-100261905D02*
X62276247Y-100214286D01*
X62276247Y-100214286D02*
X62133390Y-100214286D01*
X62133390Y-100214286D02*
X61942914Y-100261905D01*
X61942914Y-100261905D02*
X61847676Y-100309524D01*
X61847676Y-100309524D02*
X61752438Y-100404762D01*
X61752438Y-100404762D02*
X61704819Y-100547619D01*
X61704819Y-100547619D02*
X61704819Y-100642857D01*
X61704819Y-100642857D02*
X61752438Y-100785714D01*
X61752438Y-100785714D02*
X61800057Y-100833333D01*
X62038152Y-101690476D02*
X62704819Y-101690476D01*
X61657200Y-101452381D02*
X62371485Y-101214286D01*
X62371485Y-101214286D02*
X62371485Y-101833333D01*
X149084819Y-96833333D02*
X148608628Y-96500000D01*
X149084819Y-96261905D02*
X148084819Y-96261905D01*
X148084819Y-96261905D02*
X148084819Y-96642857D01*
X148084819Y-96642857D02*
X148132438Y-96738095D01*
X148132438Y-96738095D02*
X148180057Y-96785714D01*
X148180057Y-96785714D02*
X148275295Y-96833333D01*
X148275295Y-96833333D02*
X148418152Y-96833333D01*
X148418152Y-96833333D02*
X148513390Y-96785714D01*
X148513390Y-96785714D02*
X148561009Y-96738095D01*
X148561009Y-96738095D02*
X148608628Y-96642857D01*
X148608628Y-96642857D02*
X148608628Y-96261905D01*
X149084819Y-97785714D02*
X149084819Y-97214286D01*
X149084819Y-97500000D02*
X148084819Y-97500000D01*
X148084819Y-97500000D02*
X148227676Y-97404762D01*
X148227676Y-97404762D02*
X148322914Y-97309524D01*
X148322914Y-97309524D02*
X148370533Y-97214286D01*
X87166666Y-89584819D02*
X87499999Y-89108628D01*
X87738094Y-89584819D02*
X87738094Y-88584819D01*
X87738094Y-88584819D02*
X87357142Y-88584819D01*
X87357142Y-88584819D02*
X87261904Y-88632438D01*
X87261904Y-88632438D02*
X87214285Y-88680057D01*
X87214285Y-88680057D02*
X87166666Y-88775295D01*
X87166666Y-88775295D02*
X87166666Y-88918152D01*
X87166666Y-88918152D02*
X87214285Y-89013390D01*
X87214285Y-89013390D02*
X87261904Y-89061009D01*
X87261904Y-89061009D02*
X87357142Y-89108628D01*
X87357142Y-89108628D02*
X87738094Y-89108628D01*
X86833332Y-88584819D02*
X86214285Y-88584819D01*
X86214285Y-88584819D02*
X86547618Y-88965771D01*
X86547618Y-88965771D02*
X86404761Y-88965771D01*
X86404761Y-88965771D02*
X86309523Y-89013390D01*
X86309523Y-89013390D02*
X86261904Y-89061009D01*
X86261904Y-89061009D02*
X86214285Y-89156247D01*
X86214285Y-89156247D02*
X86214285Y-89394342D01*
X86214285Y-89394342D02*
X86261904Y-89489580D01*
X86261904Y-89489580D02*
X86309523Y-89537200D01*
X86309523Y-89537200D02*
X86404761Y-89584819D01*
X86404761Y-89584819D02*
X86690475Y-89584819D01*
X86690475Y-89584819D02*
X86785713Y-89537200D01*
X86785713Y-89537200D02*
X86833332Y-89489580D01*
X168666666Y-88584819D02*
X168999999Y-88108628D01*
X169238094Y-88584819D02*
X169238094Y-87584819D01*
X169238094Y-87584819D02*
X168857142Y-87584819D01*
X168857142Y-87584819D02*
X168761904Y-87632438D01*
X168761904Y-87632438D02*
X168714285Y-87680057D01*
X168714285Y-87680057D02*
X168666666Y-87775295D01*
X168666666Y-87775295D02*
X168666666Y-87918152D01*
X168666666Y-87918152D02*
X168714285Y-88013390D01*
X168714285Y-88013390D02*
X168761904Y-88061009D01*
X168761904Y-88061009D02*
X168857142Y-88108628D01*
X168857142Y-88108628D02*
X169238094Y-88108628D01*
X167761904Y-87584819D02*
X168238094Y-87584819D01*
X168238094Y-87584819D02*
X168285713Y-88061009D01*
X168285713Y-88061009D02*
X168238094Y-88013390D01*
X168238094Y-88013390D02*
X168142856Y-87965771D01*
X168142856Y-87965771D02*
X167904761Y-87965771D01*
X167904761Y-87965771D02*
X167809523Y-88013390D01*
X167809523Y-88013390D02*
X167761904Y-88061009D01*
X167761904Y-88061009D02*
X167714285Y-88156247D01*
X167714285Y-88156247D02*
X167714285Y-88394342D01*
X167714285Y-88394342D02*
X167761904Y-88489580D01*
X167761904Y-88489580D02*
X167809523Y-88537200D01*
X167809523Y-88537200D02*
X167904761Y-88584819D01*
X167904761Y-88584819D02*
X168142856Y-88584819D01*
X168142856Y-88584819D02*
X168238094Y-88537200D01*
X168238094Y-88537200D02*
X168285713Y-88489580D01*
X143354819Y-108936666D02*
X144069104Y-108936666D01*
X144069104Y-108936666D02*
X144211961Y-108889047D01*
X144211961Y-108889047D02*
X144307200Y-108793809D01*
X144307200Y-108793809D02*
X144354819Y-108650952D01*
X144354819Y-108650952D02*
X144354819Y-108555714D01*
X144354819Y-109936666D02*
X144354819Y-109365238D01*
X144354819Y-109650952D02*
X143354819Y-109650952D01*
X143354819Y-109650952D02*
X143497676Y-109555714D01*
X143497676Y-109555714D02*
X143592914Y-109460476D01*
X143592914Y-109460476D02*
X143640533Y-109365238D01*
X68584819Y-100913333D02*
X68108628Y-100580000D01*
X68584819Y-100341905D02*
X67584819Y-100341905D01*
X67584819Y-100341905D02*
X67584819Y-100722857D01*
X67584819Y-100722857D02*
X67632438Y-100818095D01*
X67632438Y-100818095D02*
X67680057Y-100865714D01*
X67680057Y-100865714D02*
X67775295Y-100913333D01*
X67775295Y-100913333D02*
X67918152Y-100913333D01*
X67918152Y-100913333D02*
X68013390Y-100865714D01*
X68013390Y-100865714D02*
X68061009Y-100818095D01*
X68061009Y-100818095D02*
X68108628Y-100722857D01*
X68108628Y-100722857D02*
X68108628Y-100341905D01*
X67680057Y-101294286D02*
X67632438Y-101341905D01*
X67632438Y-101341905D02*
X67584819Y-101437143D01*
X67584819Y-101437143D02*
X67584819Y-101675238D01*
X67584819Y-101675238D02*
X67632438Y-101770476D01*
X67632438Y-101770476D02*
X67680057Y-101818095D01*
X67680057Y-101818095D02*
X67775295Y-101865714D01*
X67775295Y-101865714D02*
X67870533Y-101865714D01*
X67870533Y-101865714D02*
X68013390Y-101818095D01*
X68013390Y-101818095D02*
X68584819Y-101246667D01*
X68584819Y-101246667D02*
X68584819Y-101865714D01*
X105444819Y-99928095D02*
X106254342Y-99928095D01*
X106254342Y-99928095D02*
X106349580Y-99975714D01*
X106349580Y-99975714D02*
X106397200Y-100023333D01*
X106397200Y-100023333D02*
X106444819Y-100118571D01*
X106444819Y-100118571D02*
X106444819Y-100309047D01*
X106444819Y-100309047D02*
X106397200Y-100404285D01*
X106397200Y-100404285D02*
X106349580Y-100451904D01*
X106349580Y-100451904D02*
X106254342Y-100499523D01*
X106254342Y-100499523D02*
X105444819Y-100499523D01*
X105778152Y-101404285D02*
X106444819Y-101404285D01*
X105397200Y-101166190D02*
X106111485Y-100928095D01*
X106111485Y-100928095D02*
X106111485Y-101547142D01*
D11*
%TO.C,U9*%
X154050000Y-95160000D02*
X184650000Y-95160000D01*
X154050000Y-100460000D02*
X154050000Y-95160000D01*
X184650000Y-95160000D02*
X184650000Y-96810000D01*
X184650000Y-98810000D02*
X184650000Y-100460000D01*
X184650000Y-100460000D02*
X154050000Y-100460000D01*
X184650000Y-98810000D02*
G75*
G02*
X184650000Y-96810000I0J1000000D01*
G01*
%TO.C,C5*%
X145880000Y-93280000D02*
X145880000Y-100720000D01*
X145880000Y-100720000D02*
X149120000Y-100720000D01*
X149120000Y-93280000D02*
X145880000Y-93280000D01*
X149120000Y-100720000D02*
X149120000Y-93280000D01*
%TO.C,C4*%
X63380000Y-97280000D02*
X63380000Y-104720000D01*
X63380000Y-104720000D02*
X66620000Y-104720000D01*
X66620000Y-97280000D02*
X63380000Y-97280000D01*
X66620000Y-104720000D02*
X66620000Y-97280000D01*
%TO.C,R1*%
X151000000Y-92960000D02*
X151000000Y-93730000D01*
X151000000Y-101040000D02*
X151000000Y-100270000D01*
X149630000Y-93730000D02*
X152370000Y-93730000D01*
X152370000Y-100270000D01*
X149630000Y-100270000D01*
X149630000Y-93730000D01*
%TO.C,R3*%
X82960000Y-91500000D02*
X83730000Y-91500000D01*
X91040000Y-91500000D02*
X90270000Y-91500000D01*
X90270000Y-90130000D02*
X83730000Y-90130000D01*
X83730000Y-92870000D01*
X90270000Y-92870000D01*
X90270000Y-90130000D01*
%TO.C,R5*%
X164460000Y-90500000D02*
X165230000Y-90500000D01*
X172540000Y-90500000D02*
X171770000Y-90500000D01*
X171770000Y-89130000D02*
X165230000Y-89130000D01*
X165230000Y-91870000D01*
X171770000Y-91870000D01*
X171770000Y-89130000D01*
%TO.C,J1*%
X144790000Y-104710000D02*
X144790000Y-113830000D01*
X144790000Y-113830000D02*
X167910000Y-113830000D01*
X146090000Y-106020000D02*
X146090000Y-112520000D01*
X146090000Y-112520000D02*
X166610000Y-112520000D01*
X149500000Y-103320000D02*
X150500000Y-103320000D01*
X150000000Y-104320000D02*
X149500000Y-103320000D01*
X150500000Y-103320000D02*
X150000000Y-104320000D01*
X154300000Y-104710000D02*
X154300000Y-106020000D01*
X154300000Y-106020000D02*
X146090000Y-106020000D01*
X158400000Y-106020000D02*
X158400000Y-104710000D01*
X166610000Y-106020000D02*
X158400000Y-106020000D01*
X166610000Y-112520000D02*
X166610000Y-106020000D01*
X167910000Y-104710000D02*
X144790000Y-104710000D01*
X167910000Y-113830000D02*
X167910000Y-104710000D01*
%TO.C,R2*%
X70500000Y-97040000D02*
X70500000Y-97810000D01*
X70500000Y-105120000D02*
X70500000Y-104350000D01*
X69130000Y-97810000D02*
X71870000Y-97810000D01*
X71870000Y-104350000D01*
X69130000Y-104350000D01*
X69130000Y-97810000D01*
%TO.C,U4*%
X74390000Y-98040000D02*
X104990000Y-98040000D01*
X74390000Y-103340000D02*
X74390000Y-98040000D01*
X104990000Y-98040000D02*
X104990000Y-99690000D01*
X104990000Y-101690000D02*
X104990000Y-103340000D01*
X104990000Y-103340000D02*
X74390000Y-103340000D01*
X104990000Y-101690000D02*
G75*
G02*
X104990000Y-99690000I0J1000000D01*
G01*
%TD*%
M02*
