M48
; DRILL file {KiCad 9.0.7} date 2026-01-05T14:29:08+0100
; FORMAT={-:-/ absolute / metric / decimal}
; #@! TF.CreationDate,2026-01-05T14:29:08+01:00
; #@! TF.GenerationSoftware,Kicad,Pcbnew,9.0.7
; #@! TF.FileFunction,Plated,1,2,PTH
FMAT,2
METRIC
; #@! TA.AperFunction,Plated,PTH,ComponentDrill
T1C0.762
; #@! TA.AperFunction,Plated,PTH,ComponentDrill
T2C0.800
; #@! TA.AperFunction,Plated,PTH,ComponentDrill
T3C0.900
; #@! TA.AperFunction,Plated,PTH,ComponentDrill
T4C1.000
; #@! TA.AperFunction,Plated,PTH,ComponentDrill
T5C1.100
%
G90
G05
T1
X66.61Y-82.745
X66.61Y-118.305
X69.15Y-82.745
X69.15Y-118.305
X71.69Y-82.745
X71.69Y-118.305
X74.23Y-82.745
X74.23Y-118.305
X76.77Y-82.745
X76.77Y-118.305
X96.91Y-82.745
X96.91Y-118.305
X99.45Y-82.745
X99.45Y-118.305
X101.99Y-82.745
X101.99Y-118.305
X104.53Y-82.745
X104.53Y-118.305
X107.07Y-82.745
X107.07Y-118.305
X134.62Y-82.745
X134.62Y-118.305
X137.16Y-82.745
X137.16Y-118.305
X139.7Y-82.745
X139.7Y-118.305
X142.24Y-82.745
X142.24Y-118.305
X144.78Y-82.745
X144.78Y-118.305
X164.92Y-82.745
X164.92Y-118.305
X167.46Y-82.745
X167.46Y-118.305
X170.0Y-82.745
X170.0Y-118.305
X172.54Y-82.745
X172.54Y-118.305
X175.08Y-82.745
X175.08Y-118.305
X190.38Y-97.38
X190.38Y-112.62
X192.92Y-97.38
X192.92Y-112.62
X195.46Y-97.38
X195.46Y-112.62
X198.0Y-97.38
X198.0Y-112.62
X200.54Y-97.38
X200.54Y-112.62
X203.96Y-97.38
X203.96Y-112.62
X206.5Y-97.38
X206.5Y-112.62
X209.04Y-97.38
X209.04Y-112.62
X211.58Y-97.38
X211.58Y-112.62
X214.12Y-97.38
X214.12Y-112.62
X218.42Y-97.38
X218.42Y-112.62
X220.96Y-97.38
X220.96Y-112.62
X223.5Y-97.38
X223.5Y-112.62
X226.04Y-97.38
X226.04Y-112.62
X228.58Y-97.38
X228.58Y-112.62
X231.92Y-97.38
X231.92Y-112.62
X234.46Y-97.38
X234.46Y-112.62
X237.0Y-97.38
X237.0Y-112.62
X239.54Y-97.38
X239.54Y-112.62
X242.08Y-97.38
X242.08Y-112.62
T2
X65.0Y-98.5
X65.0Y-103.5
X70.5Y-96.0
X70.5Y-106.16
X75.72Y-96.88
X75.72Y-104.5
X78.26Y-96.88
X78.26Y-104.5
X80.8Y-96.88
X80.8Y-104.5
X81.92Y-91.5
X83.34Y-96.88
X83.34Y-104.5
X85.88Y-96.88
X85.88Y-104.5
X88.42Y-96.88
X88.42Y-104.5
X90.96Y-96.88
X90.96Y-104.5
X92.08Y-91.5
X93.5Y-96.88
X93.5Y-104.5
X96.04Y-96.88
X96.04Y-104.5
X98.58Y-96.88
X98.58Y-104.5
X101.12Y-96.88
X101.12Y-104.5
X103.66Y-96.88
X103.66Y-104.5
X147.5Y-94.5
X147.5Y-99.5
X151.0Y-91.92
X151.0Y-102.08
X155.38Y-94.0
X155.38Y-101.62
X157.92Y-94.0
X157.92Y-101.62
X160.46Y-94.0
X160.46Y-101.62
X163.0Y-94.0
X163.0Y-101.62
X163.42Y-90.5
X165.54Y-94.0
X165.54Y-101.62
X168.08Y-94.0
X168.08Y-101.62
X170.62Y-94.0
X170.62Y-101.62
X173.16Y-94.0
X173.16Y-101.62
X173.58Y-90.5
X175.7Y-94.0
X175.7Y-101.62
X178.24Y-94.0
X178.24Y-101.62
X180.78Y-94.0
X180.78Y-101.62
X183.32Y-94.0
X183.32Y-101.62
T3
X119.46Y-94.0
X119.46Y-105.5
X122.0Y-94.0
X122.0Y-105.5
X191.0Y-118.0
X193.54Y-118.0
X198.225Y-118.0
X200.765Y-118.0
X205.725Y-118.0
X208.265Y-118.0
X213.0Y-118.0
X215.54Y-118.0
X220.5Y-118.0
X223.04Y-118.0
X227.695Y-118.0
X230.235Y-118.0
X234.725Y-118.0
X237.265Y-118.0
T4
X150.0Y-108.0
X150.0Y-110.54
X152.54Y-108.0
X152.54Y-110.54
X155.08Y-108.0
X155.08Y-110.54
X157.62Y-108.0
X157.62Y-110.54
X160.16Y-108.0
X160.16Y-110.54
X162.7Y-108.0
X162.7Y-110.54
T5
X203.25Y-83.5
X203.25Y-88.0
X209.75Y-83.5
X209.75Y-88.0
X213.25Y-79.75
X213.25Y-84.25
X213.25Y-87.75
X213.25Y-92.25
X219.75Y-79.75
X219.75Y-84.25
X219.75Y-87.75
X219.75Y-92.25
X223.25Y-83.5
X223.25Y-88.0
X229.75Y-83.5
X229.75Y-88.0
X233.25Y-83.5
X233.25Y-88.0
X239.75Y-83.5
X239.75Y-88.0
M30
