%TF.GenerationSoftware,KiCad,Pcbnew,9.0.7*%
%TF.CreationDate,2026-01-05T23:13:07+01:00*%
%TF.ProjectId,hardware-Schematic,68617264-7761-4726-952d-536368656d61,rev?*%
%TF.SameCoordinates,Original*%
%TF.FileFunction,Legend,Top*%
%TF.FilePolarity,Positive*%
%FSLAX46Y46*%
G04 Gerber Fmt 4.6, Leading zero omitted, Abs format (unit mm)*
G04 Created by KiCad (PCBNEW 9.0.7) date 2026-01-05 23:13:07*
%MOMM*%
%LPD*%
G01*
G04 APERTURE LIST*
%ADD10C,0.150000*%
%ADD11C,0.100000*%
%ADD12C,0.120000*%
G04 APERTURE END LIST*
D10*
X156333333Y-101954819D02*
X156000000Y-101478628D01*
X155761905Y-101954819D02*
X155761905Y-100954819D01*
X155761905Y-100954819D02*
X156142857Y-100954819D01*
X156142857Y-100954819D02*
X156238095Y-101002438D01*
X156238095Y-101002438D02*
X156285714Y-101050057D01*
X156285714Y-101050057D02*
X156333333Y-101145295D01*
X156333333Y-101145295D02*
X156333333Y-101288152D01*
X156333333Y-101288152D02*
X156285714Y-101383390D01*
X156285714Y-101383390D02*
X156238095Y-101431009D01*
X156238095Y-101431009D02*
X156142857Y-101478628D01*
X156142857Y-101478628D02*
X155761905Y-101478628D01*
X156666667Y-100954819D02*
X157333333Y-100954819D01*
X157333333Y-100954819D02*
X156904762Y-101954819D01*
X156333333Y-98454819D02*
X156000000Y-97978628D01*
X155761905Y-98454819D02*
X155761905Y-97454819D01*
X155761905Y-97454819D02*
X156142857Y-97454819D01*
X156142857Y-97454819D02*
X156238095Y-97502438D01*
X156238095Y-97502438D02*
X156285714Y-97550057D01*
X156285714Y-97550057D02*
X156333333Y-97645295D01*
X156333333Y-97645295D02*
X156333333Y-97788152D01*
X156333333Y-97788152D02*
X156285714Y-97883390D01*
X156285714Y-97883390D02*
X156238095Y-97931009D01*
X156238095Y-97931009D02*
X156142857Y-97978628D01*
X156142857Y-97978628D02*
X155761905Y-97978628D01*
X156904762Y-97883390D02*
X156809524Y-97835771D01*
X156809524Y-97835771D02*
X156761905Y-97788152D01*
X156761905Y-97788152D02*
X156714286Y-97692914D01*
X156714286Y-97692914D02*
X156714286Y-97645295D01*
X156714286Y-97645295D02*
X156761905Y-97550057D01*
X156761905Y-97550057D02*
X156809524Y-97502438D01*
X156809524Y-97502438D02*
X156904762Y-97454819D01*
X156904762Y-97454819D02*
X157095238Y-97454819D01*
X157095238Y-97454819D02*
X157190476Y-97502438D01*
X157190476Y-97502438D02*
X157238095Y-97550057D01*
X157238095Y-97550057D02*
X157285714Y-97645295D01*
X157285714Y-97645295D02*
X157285714Y-97692914D01*
X157285714Y-97692914D02*
X157238095Y-97788152D01*
X157238095Y-97788152D02*
X157190476Y-97835771D01*
X157190476Y-97835771D02*
X157095238Y-97883390D01*
X157095238Y-97883390D02*
X156904762Y-97883390D01*
X156904762Y-97883390D02*
X156809524Y-97931009D01*
X156809524Y-97931009D02*
X156761905Y-97978628D01*
X156761905Y-97978628D02*
X156714286Y-98073866D01*
X156714286Y-98073866D02*
X156714286Y-98264342D01*
X156714286Y-98264342D02*
X156761905Y-98359580D01*
X156761905Y-98359580D02*
X156809524Y-98407200D01*
X156809524Y-98407200D02*
X156904762Y-98454819D01*
X156904762Y-98454819D02*
X157095238Y-98454819D01*
X157095238Y-98454819D02*
X157190476Y-98407200D01*
X157190476Y-98407200D02*
X157238095Y-98359580D01*
X157238095Y-98359580D02*
X157285714Y-98264342D01*
X157285714Y-98264342D02*
X157285714Y-98073866D01*
X157285714Y-98073866D02*
X157238095Y-97978628D01*
X157238095Y-97978628D02*
X157190476Y-97931009D01*
X157190476Y-97931009D02*
X157095238Y-97883390D01*
X135907200Y-115583332D02*
X135954819Y-115440475D01*
X135954819Y-115440475D02*
X135954819Y-115202380D01*
X135954819Y-115202380D02*
X135907200Y-115107142D01*
X135907200Y-115107142D02*
X135859580Y-115059523D01*
X135859580Y-115059523D02*
X135764342Y-115011904D01*
X135764342Y-115011904D02*
X135669104Y-115011904D01*
X135669104Y-115011904D02*
X135573866Y-115059523D01*
X135573866Y-115059523D02*
X135526247Y-115107142D01*
X135526247Y-115107142D02*
X135478628Y-115202380D01*
X135478628Y-115202380D02*
X135431009Y-115392856D01*
X135431009Y-115392856D02*
X135383390Y-115488094D01*
X135383390Y-115488094D02*
X135335771Y-115535713D01*
X135335771Y-115535713D02*
X135240533Y-115583332D01*
X135240533Y-115583332D02*
X135145295Y-115583332D01*
X135145295Y-115583332D02*
X135050057Y-115535713D01*
X135050057Y-115535713D02*
X135002438Y-115488094D01*
X135002438Y-115488094D02*
X134954819Y-115392856D01*
X134954819Y-115392856D02*
X134954819Y-115154761D01*
X134954819Y-115154761D02*
X135002438Y-115011904D01*
X134954819Y-114678570D02*
X135954819Y-114440475D01*
X135954819Y-114440475D02*
X135240533Y-114249999D01*
X135240533Y-114249999D02*
X135954819Y-114059523D01*
X135954819Y-114059523D02*
X134954819Y-113821428D01*
X134954819Y-113535713D02*
X134954819Y-112916666D01*
X134954819Y-112916666D02*
X135335771Y-113249999D01*
X135335771Y-113249999D02*
X135335771Y-113107142D01*
X135335771Y-113107142D02*
X135383390Y-113011904D01*
X135383390Y-113011904D02*
X135431009Y-112964285D01*
X135431009Y-112964285D02*
X135526247Y-112916666D01*
X135526247Y-112916666D02*
X135764342Y-112916666D01*
X135764342Y-112916666D02*
X135859580Y-112964285D01*
X135859580Y-112964285D02*
X135907200Y-113011904D01*
X135907200Y-113011904D02*
X135954819Y-113107142D01*
X135954819Y-113107142D02*
X135954819Y-113392856D01*
X135954819Y-113392856D02*
X135907200Y-113488094D01*
X135907200Y-113488094D02*
X135859580Y-113535713D01*
X214864761Y-94050057D02*
X214769523Y-94002438D01*
X214769523Y-94002438D02*
X214674285Y-93907200D01*
X214674285Y-93907200D02*
X214531428Y-93764342D01*
X214531428Y-93764342D02*
X214436190Y-93716723D01*
X214436190Y-93716723D02*
X214340952Y-93716723D01*
X214388571Y-93954819D02*
X214293333Y-93907200D01*
X214293333Y-93907200D02*
X214198095Y-93811961D01*
X214198095Y-93811961D02*
X214150476Y-93621485D01*
X214150476Y-93621485D02*
X214150476Y-93288152D01*
X214150476Y-93288152D02*
X214198095Y-93097676D01*
X214198095Y-93097676D02*
X214293333Y-93002438D01*
X214293333Y-93002438D02*
X214388571Y-92954819D01*
X214388571Y-92954819D02*
X214579047Y-92954819D01*
X214579047Y-92954819D02*
X214674285Y-93002438D01*
X214674285Y-93002438D02*
X214769523Y-93097676D01*
X214769523Y-93097676D02*
X214817142Y-93288152D01*
X214817142Y-93288152D02*
X214817142Y-93621485D01*
X214817142Y-93621485D02*
X214769523Y-93811961D01*
X214769523Y-93811961D02*
X214674285Y-93907200D01*
X214674285Y-93907200D02*
X214579047Y-93954819D01*
X214579047Y-93954819D02*
X214388571Y-93954819D01*
X215769523Y-93954819D02*
X215198095Y-93954819D01*
X215483809Y-93954819D02*
X215483809Y-92954819D01*
X215483809Y-92954819D02*
X215388571Y-93097676D01*
X215388571Y-93097676D02*
X215293333Y-93192914D01*
X215293333Y-93192914D02*
X215198095Y-93240533D01*
D11*
X91238095Y-87457419D02*
X91238095Y-88266942D01*
X91238095Y-88266942D02*
X91285714Y-88362180D01*
X91285714Y-88362180D02*
X91333333Y-88409800D01*
X91333333Y-88409800D02*
X91428571Y-88457419D01*
X91428571Y-88457419D02*
X91619047Y-88457419D01*
X91619047Y-88457419D02*
X91714285Y-88409800D01*
X91714285Y-88409800D02*
X91761904Y-88362180D01*
X91761904Y-88362180D02*
X91809523Y-88266942D01*
X91809523Y-88266942D02*
X91809523Y-87457419D01*
X92238095Y-87552657D02*
X92285714Y-87505038D01*
X92285714Y-87505038D02*
X92380952Y-87457419D01*
X92380952Y-87457419D02*
X92619047Y-87457419D01*
X92619047Y-87457419D02*
X92714285Y-87505038D01*
X92714285Y-87505038D02*
X92761904Y-87552657D01*
X92761904Y-87552657D02*
X92809523Y-87647895D01*
X92809523Y-87647895D02*
X92809523Y-87743133D01*
X92809523Y-87743133D02*
X92761904Y-87885990D01*
X92761904Y-87885990D02*
X92190476Y-88457419D01*
X92190476Y-88457419D02*
X92809523Y-88457419D01*
D10*
X130578095Y-102654819D02*
X130578095Y-103464342D01*
X130578095Y-103464342D02*
X130625714Y-103559580D01*
X130625714Y-103559580D02*
X130673333Y-103607200D01*
X130673333Y-103607200D02*
X130768571Y-103654819D01*
X130768571Y-103654819D02*
X130959047Y-103654819D01*
X130959047Y-103654819D02*
X131054285Y-103607200D01*
X131054285Y-103607200D02*
X131101904Y-103559580D01*
X131101904Y-103559580D02*
X131149523Y-103464342D01*
X131149523Y-103464342D02*
X131149523Y-102654819D01*
X131530476Y-102654819D02*
X132149523Y-102654819D01*
X132149523Y-102654819D02*
X131816190Y-103035771D01*
X131816190Y-103035771D02*
X131959047Y-103035771D01*
X131959047Y-103035771D02*
X132054285Y-103083390D01*
X132054285Y-103083390D02*
X132101904Y-103131009D01*
X132101904Y-103131009D02*
X132149523Y-103226247D01*
X132149523Y-103226247D02*
X132149523Y-103464342D01*
X132149523Y-103464342D02*
X132101904Y-103559580D01*
X132101904Y-103559580D02*
X132054285Y-103607200D01*
X132054285Y-103607200D02*
X131959047Y-103654819D01*
X131959047Y-103654819D02*
X131673333Y-103654819D01*
X131673333Y-103654819D02*
X131578095Y-103607200D01*
X131578095Y-103607200D02*
X131530476Y-103559580D01*
X190166666Y-85324819D02*
X190166666Y-86039104D01*
X190166666Y-86039104D02*
X190119047Y-86181961D01*
X190119047Y-86181961D02*
X190023809Y-86277200D01*
X190023809Y-86277200D02*
X189880952Y-86324819D01*
X189880952Y-86324819D02*
X189785714Y-86324819D01*
X191071428Y-85658152D02*
X191071428Y-86324819D01*
X190833333Y-85277200D02*
X190595238Y-85991485D01*
X190595238Y-85991485D02*
X191214285Y-85991485D01*
X108333333Y-118349580D02*
X108285714Y-118397200D01*
X108285714Y-118397200D02*
X108142857Y-118444819D01*
X108142857Y-118444819D02*
X108047619Y-118444819D01*
X108047619Y-118444819D02*
X107904762Y-118397200D01*
X107904762Y-118397200D02*
X107809524Y-118301961D01*
X107809524Y-118301961D02*
X107761905Y-118206723D01*
X107761905Y-118206723D02*
X107714286Y-118016247D01*
X107714286Y-118016247D02*
X107714286Y-117873390D01*
X107714286Y-117873390D02*
X107761905Y-117682914D01*
X107761905Y-117682914D02*
X107809524Y-117587676D01*
X107809524Y-117587676D02*
X107904762Y-117492438D01*
X107904762Y-117492438D02*
X108047619Y-117444819D01*
X108047619Y-117444819D02*
X108142857Y-117444819D01*
X108142857Y-117444819D02*
X108285714Y-117492438D01*
X108285714Y-117492438D02*
X108333333Y-117540057D01*
X109285714Y-118444819D02*
X108714286Y-118444819D01*
X109000000Y-118444819D02*
X109000000Y-117444819D01*
X109000000Y-117444819D02*
X108904762Y-117587676D01*
X108904762Y-117587676D02*
X108809524Y-117682914D01*
X108809524Y-117682914D02*
X108714286Y-117730533D01*
X87924819Y-104071904D02*
X88734342Y-104071904D01*
X88734342Y-104071904D02*
X88829580Y-104024285D01*
X88829580Y-104024285D02*
X88877200Y-103976666D01*
X88877200Y-103976666D02*
X88924819Y-103881428D01*
X88924819Y-103881428D02*
X88924819Y-103690952D01*
X88924819Y-103690952D02*
X88877200Y-103595714D01*
X88877200Y-103595714D02*
X88829580Y-103548095D01*
X88829580Y-103548095D02*
X88734342Y-103500476D01*
X88734342Y-103500476D02*
X87924819Y-103500476D01*
X88924819Y-102500476D02*
X88924819Y-103071904D01*
X88924819Y-102786190D02*
X87924819Y-102786190D01*
X87924819Y-102786190D02*
X88067676Y-102881428D01*
X88067676Y-102881428D02*
X88162914Y-102976666D01*
X88162914Y-102976666D02*
X88210533Y-103071904D01*
X184681905Y-105649819D02*
X184681905Y-106459342D01*
X184681905Y-106459342D02*
X184729524Y-106554580D01*
X184729524Y-106554580D02*
X184777143Y-106602200D01*
X184777143Y-106602200D02*
X184872381Y-106649819D01*
X184872381Y-106649819D02*
X185062857Y-106649819D01*
X185062857Y-106649819D02*
X185158095Y-106602200D01*
X185158095Y-106602200D02*
X185205714Y-106554580D01*
X185205714Y-106554580D02*
X185253333Y-106459342D01*
X185253333Y-106459342D02*
X185253333Y-105649819D01*
X186253333Y-106649819D02*
X185681905Y-106649819D01*
X185967619Y-106649819D02*
X185967619Y-105649819D01*
X185967619Y-105649819D02*
X185872381Y-105792676D01*
X185872381Y-105792676D02*
X185777143Y-105887914D01*
X185777143Y-105887914D02*
X185681905Y-105935533D01*
X187158095Y-105649819D02*
X186681905Y-105649819D01*
X186681905Y-105649819D02*
X186634286Y-106126009D01*
X186634286Y-106126009D02*
X186681905Y-106078390D01*
X186681905Y-106078390D02*
X186777143Y-106030771D01*
X186777143Y-106030771D02*
X187015238Y-106030771D01*
X187015238Y-106030771D02*
X187110476Y-106078390D01*
X187110476Y-106078390D02*
X187158095Y-106126009D01*
X187158095Y-106126009D02*
X187205714Y-106221247D01*
X187205714Y-106221247D02*
X187205714Y-106459342D01*
X187205714Y-106459342D02*
X187158095Y-106554580D01*
X187158095Y-106554580D02*
X187110476Y-106602200D01*
X187110476Y-106602200D02*
X187015238Y-106649819D01*
X187015238Y-106649819D02*
X186777143Y-106649819D01*
X186777143Y-106649819D02*
X186681905Y-106602200D01*
X186681905Y-106602200D02*
X186634286Y-106554580D01*
X156333333Y-94954819D02*
X156000000Y-94478628D01*
X155761905Y-94954819D02*
X155761905Y-93954819D01*
X155761905Y-93954819D02*
X156142857Y-93954819D01*
X156142857Y-93954819D02*
X156238095Y-94002438D01*
X156238095Y-94002438D02*
X156285714Y-94050057D01*
X156285714Y-94050057D02*
X156333333Y-94145295D01*
X156333333Y-94145295D02*
X156333333Y-94288152D01*
X156333333Y-94288152D02*
X156285714Y-94383390D01*
X156285714Y-94383390D02*
X156238095Y-94431009D01*
X156238095Y-94431009D02*
X156142857Y-94478628D01*
X156142857Y-94478628D02*
X155761905Y-94478628D01*
X156809524Y-94954819D02*
X157000000Y-94954819D01*
X157000000Y-94954819D02*
X157095238Y-94907200D01*
X157095238Y-94907200D02*
X157142857Y-94859580D01*
X157142857Y-94859580D02*
X157238095Y-94716723D01*
X157238095Y-94716723D02*
X157285714Y-94526247D01*
X157285714Y-94526247D02*
X157285714Y-94145295D01*
X157285714Y-94145295D02*
X157238095Y-94050057D01*
X157238095Y-94050057D02*
X157190476Y-94002438D01*
X157190476Y-94002438D02*
X157095238Y-93954819D01*
X157095238Y-93954819D02*
X156904762Y-93954819D01*
X156904762Y-93954819D02*
X156809524Y-94002438D01*
X156809524Y-94002438D02*
X156761905Y-94050057D01*
X156761905Y-94050057D02*
X156714286Y-94145295D01*
X156714286Y-94145295D02*
X156714286Y-94383390D01*
X156714286Y-94383390D02*
X156761905Y-94478628D01*
X156761905Y-94478628D02*
X156809524Y-94526247D01*
X156809524Y-94526247D02*
X156904762Y-94573866D01*
X156904762Y-94573866D02*
X157095238Y-94573866D01*
X157095238Y-94573866D02*
X157190476Y-94526247D01*
X157190476Y-94526247D02*
X157238095Y-94478628D01*
X157238095Y-94478628D02*
X157285714Y-94383390D01*
X177107142Y-81584819D02*
X176773809Y-81108628D01*
X176535714Y-81584819D02*
X176535714Y-80584819D01*
X176535714Y-80584819D02*
X176916666Y-80584819D01*
X176916666Y-80584819D02*
X177011904Y-80632438D01*
X177011904Y-80632438D02*
X177059523Y-80680057D01*
X177059523Y-80680057D02*
X177107142Y-80775295D01*
X177107142Y-80775295D02*
X177107142Y-80918152D01*
X177107142Y-80918152D02*
X177059523Y-81013390D01*
X177059523Y-81013390D02*
X177011904Y-81061009D01*
X177011904Y-81061009D02*
X176916666Y-81108628D01*
X176916666Y-81108628D02*
X176535714Y-81108628D01*
X178059523Y-81584819D02*
X177488095Y-81584819D01*
X177773809Y-81584819D02*
X177773809Y-80584819D01*
X177773809Y-80584819D02*
X177678571Y-80727676D01*
X177678571Y-80727676D02*
X177583333Y-80822914D01*
X177583333Y-80822914D02*
X177488095Y-80870533D01*
X179011904Y-81584819D02*
X178440476Y-81584819D01*
X178726190Y-81584819D02*
X178726190Y-80584819D01*
X178726190Y-80584819D02*
X178630952Y-80727676D01*
X178630952Y-80727676D02*
X178535714Y-80822914D01*
X178535714Y-80822914D02*
X178440476Y-80870533D01*
X213857142Y-96584819D02*
X213523809Y-96108628D01*
X213285714Y-96584819D02*
X213285714Y-95584819D01*
X213285714Y-95584819D02*
X213666666Y-95584819D01*
X213666666Y-95584819D02*
X213761904Y-95632438D01*
X213761904Y-95632438D02*
X213809523Y-95680057D01*
X213809523Y-95680057D02*
X213857142Y-95775295D01*
X213857142Y-95775295D02*
X213857142Y-95918152D01*
X213857142Y-95918152D02*
X213809523Y-96013390D01*
X213809523Y-96013390D02*
X213761904Y-96061009D01*
X213761904Y-96061009D02*
X213666666Y-96108628D01*
X213666666Y-96108628D02*
X213285714Y-96108628D01*
X214809523Y-96584819D02*
X214238095Y-96584819D01*
X214523809Y-96584819D02*
X214523809Y-95584819D01*
X214523809Y-95584819D02*
X214428571Y-95727676D01*
X214428571Y-95727676D02*
X214333333Y-95822914D01*
X214333333Y-95822914D02*
X214238095Y-95870533D01*
X215142857Y-95584819D02*
X215761904Y-95584819D01*
X215761904Y-95584819D02*
X215428571Y-95965771D01*
X215428571Y-95965771D02*
X215571428Y-95965771D01*
X215571428Y-95965771D02*
X215666666Y-96013390D01*
X215666666Y-96013390D02*
X215714285Y-96061009D01*
X215714285Y-96061009D02*
X215761904Y-96156247D01*
X215761904Y-96156247D02*
X215761904Y-96394342D01*
X215761904Y-96394342D02*
X215714285Y-96489580D01*
X215714285Y-96489580D02*
X215666666Y-96537200D01*
X215666666Y-96537200D02*
X215571428Y-96584819D01*
X215571428Y-96584819D02*
X215285714Y-96584819D01*
X215285714Y-96584819D02*
X215190476Y-96537200D01*
X215190476Y-96537200D02*
X215142857Y-96489580D01*
X156333333Y-105454819D02*
X156000000Y-104978628D01*
X155761905Y-105454819D02*
X155761905Y-104454819D01*
X155761905Y-104454819D02*
X156142857Y-104454819D01*
X156142857Y-104454819D02*
X156238095Y-104502438D01*
X156238095Y-104502438D02*
X156285714Y-104550057D01*
X156285714Y-104550057D02*
X156333333Y-104645295D01*
X156333333Y-104645295D02*
X156333333Y-104788152D01*
X156333333Y-104788152D02*
X156285714Y-104883390D01*
X156285714Y-104883390D02*
X156238095Y-104931009D01*
X156238095Y-104931009D02*
X156142857Y-104978628D01*
X156142857Y-104978628D02*
X155761905Y-104978628D01*
X157190476Y-104454819D02*
X157000000Y-104454819D01*
X157000000Y-104454819D02*
X156904762Y-104502438D01*
X156904762Y-104502438D02*
X156857143Y-104550057D01*
X156857143Y-104550057D02*
X156761905Y-104692914D01*
X156761905Y-104692914D02*
X156714286Y-104883390D01*
X156714286Y-104883390D02*
X156714286Y-105264342D01*
X156714286Y-105264342D02*
X156761905Y-105359580D01*
X156761905Y-105359580D02*
X156809524Y-105407200D01*
X156809524Y-105407200D02*
X156904762Y-105454819D01*
X156904762Y-105454819D02*
X157095238Y-105454819D01*
X157095238Y-105454819D02*
X157190476Y-105407200D01*
X157190476Y-105407200D02*
X157238095Y-105359580D01*
X157238095Y-105359580D02*
X157285714Y-105264342D01*
X157285714Y-105264342D02*
X157285714Y-105026247D01*
X157285714Y-105026247D02*
X157238095Y-104931009D01*
X157238095Y-104931009D02*
X157190476Y-104883390D01*
X157190476Y-104883390D02*
X157095238Y-104835771D01*
X157095238Y-104835771D02*
X156904762Y-104835771D01*
X156904762Y-104835771D02*
X156809524Y-104883390D01*
X156809524Y-104883390D02*
X156761905Y-104931009D01*
X156761905Y-104931009D02*
X156714286Y-105026247D01*
D11*
X61112419Y-108833445D02*
X61826704Y-108833445D01*
X61826704Y-108833445D02*
X61969561Y-108881064D01*
X61969561Y-108881064D02*
X62064800Y-108976302D01*
X62064800Y-108976302D02*
X62112419Y-109119159D01*
X62112419Y-109119159D02*
X62112419Y-109214397D01*
X62112419Y-107833445D02*
X62112419Y-108404873D01*
X62112419Y-108119159D02*
X61112419Y-108119159D01*
X61112419Y-108119159D02*
X61255276Y-108214397D01*
X61255276Y-108214397D02*
X61350514Y-108309635D01*
X61350514Y-108309635D02*
X61398133Y-108404873D01*
D10*
X124666666Y-91954819D02*
X124666666Y-92669104D01*
X124666666Y-92669104D02*
X124619047Y-92811961D01*
X124619047Y-92811961D02*
X124523809Y-92907200D01*
X124523809Y-92907200D02*
X124380952Y-92954819D01*
X124380952Y-92954819D02*
X124285714Y-92954819D01*
X125619047Y-91954819D02*
X125142857Y-91954819D01*
X125142857Y-91954819D02*
X125095238Y-92431009D01*
X125095238Y-92431009D02*
X125142857Y-92383390D01*
X125142857Y-92383390D02*
X125238095Y-92335771D01*
X125238095Y-92335771D02*
X125476190Y-92335771D01*
X125476190Y-92335771D02*
X125571428Y-92383390D01*
X125571428Y-92383390D02*
X125619047Y-92431009D01*
X125619047Y-92431009D02*
X125666666Y-92526247D01*
X125666666Y-92526247D02*
X125666666Y-92764342D01*
X125666666Y-92764342D02*
X125619047Y-92859580D01*
X125619047Y-92859580D02*
X125571428Y-92907200D01*
X125571428Y-92907200D02*
X125476190Y-92954819D01*
X125476190Y-92954819D02*
X125238095Y-92954819D01*
X125238095Y-92954819D02*
X125142857Y-92907200D01*
X125142857Y-92907200D02*
X125095238Y-92859580D01*
X78009580Y-109816666D02*
X78057200Y-109864285D01*
X78057200Y-109864285D02*
X78104819Y-110007142D01*
X78104819Y-110007142D02*
X78104819Y-110102380D01*
X78104819Y-110102380D02*
X78057200Y-110245237D01*
X78057200Y-110245237D02*
X77961961Y-110340475D01*
X77961961Y-110340475D02*
X77866723Y-110388094D01*
X77866723Y-110388094D02*
X77676247Y-110435713D01*
X77676247Y-110435713D02*
X77533390Y-110435713D01*
X77533390Y-110435713D02*
X77342914Y-110388094D01*
X77342914Y-110388094D02*
X77247676Y-110340475D01*
X77247676Y-110340475D02*
X77152438Y-110245237D01*
X77152438Y-110245237D02*
X77104819Y-110102380D01*
X77104819Y-110102380D02*
X77104819Y-110007142D01*
X77104819Y-110007142D02*
X77152438Y-109864285D01*
X77152438Y-109864285D02*
X77200057Y-109816666D01*
X77104819Y-108959523D02*
X77104819Y-109149999D01*
X77104819Y-109149999D02*
X77152438Y-109245237D01*
X77152438Y-109245237D02*
X77200057Y-109292856D01*
X77200057Y-109292856D02*
X77342914Y-109388094D01*
X77342914Y-109388094D02*
X77533390Y-109435713D01*
X77533390Y-109435713D02*
X77914342Y-109435713D01*
X77914342Y-109435713D02*
X78009580Y-109388094D01*
X78009580Y-109388094D02*
X78057200Y-109340475D01*
X78057200Y-109340475D02*
X78104819Y-109245237D01*
X78104819Y-109245237D02*
X78104819Y-109054761D01*
X78104819Y-109054761D02*
X78057200Y-108959523D01*
X78057200Y-108959523D02*
X78009580Y-108911904D01*
X78009580Y-108911904D02*
X77914342Y-108864285D01*
X77914342Y-108864285D02*
X77676247Y-108864285D01*
X77676247Y-108864285D02*
X77581009Y-108911904D01*
X77581009Y-108911904D02*
X77533390Y-108959523D01*
X77533390Y-108959523D02*
X77485771Y-109054761D01*
X77485771Y-109054761D02*
X77485771Y-109245237D01*
X77485771Y-109245237D02*
X77533390Y-109340475D01*
X77533390Y-109340475D02*
X77581009Y-109388094D01*
X77581009Y-109388094D02*
X77676247Y-109435713D01*
D11*
X213987419Y-108953333D02*
X214701704Y-108953333D01*
X214701704Y-108953333D02*
X214844561Y-109000952D01*
X214844561Y-109000952D02*
X214939800Y-109096190D01*
X214939800Y-109096190D02*
X214987419Y-109239047D01*
X214987419Y-109239047D02*
X214987419Y-109334285D01*
X213987419Y-108572380D02*
X213987419Y-107953333D01*
X213987419Y-107953333D02*
X214368371Y-108286666D01*
X214368371Y-108286666D02*
X214368371Y-108143809D01*
X214368371Y-108143809D02*
X214415990Y-108048571D01*
X214415990Y-108048571D02*
X214463609Y-108000952D01*
X214463609Y-108000952D02*
X214558847Y-107953333D01*
X214558847Y-107953333D02*
X214796942Y-107953333D01*
X214796942Y-107953333D02*
X214892180Y-108000952D01*
X214892180Y-108000952D02*
X214939800Y-108048571D01*
X214939800Y-108048571D02*
X214987419Y-108143809D01*
X214987419Y-108143809D02*
X214987419Y-108429523D01*
X214987419Y-108429523D02*
X214939800Y-108524761D01*
X214939800Y-108524761D02*
X214892180Y-108572380D01*
X167761905Y-111957419D02*
X167761905Y-112766942D01*
X167761905Y-112766942D02*
X167809524Y-112862180D01*
X167809524Y-112862180D02*
X167857143Y-112909800D01*
X167857143Y-112909800D02*
X167952381Y-112957419D01*
X167952381Y-112957419D02*
X168142857Y-112957419D01*
X168142857Y-112957419D02*
X168238095Y-112909800D01*
X168238095Y-112909800D02*
X168285714Y-112862180D01*
X168285714Y-112862180D02*
X168333333Y-112766942D01*
X168333333Y-112766942D02*
X168333333Y-111957419D01*
X169333333Y-112957419D02*
X168761905Y-112957419D01*
X169047619Y-112957419D02*
X169047619Y-111957419D01*
X169047619Y-111957419D02*
X168952381Y-112100276D01*
X168952381Y-112100276D02*
X168857143Y-112195514D01*
X168857143Y-112195514D02*
X168761905Y-112243133D01*
X170190476Y-112290752D02*
X170190476Y-112957419D01*
X169952381Y-111909800D02*
X169714286Y-112624085D01*
X169714286Y-112624085D02*
X170333333Y-112624085D01*
D10*
X118333333Y-91859580D02*
X118285714Y-91907200D01*
X118285714Y-91907200D02*
X118142857Y-91954819D01*
X118142857Y-91954819D02*
X118047619Y-91954819D01*
X118047619Y-91954819D02*
X117904762Y-91907200D01*
X117904762Y-91907200D02*
X117809524Y-91811961D01*
X117809524Y-91811961D02*
X117761905Y-91716723D01*
X117761905Y-91716723D02*
X117714286Y-91526247D01*
X117714286Y-91526247D02*
X117714286Y-91383390D01*
X117714286Y-91383390D02*
X117761905Y-91192914D01*
X117761905Y-91192914D02*
X117809524Y-91097676D01*
X117809524Y-91097676D02*
X117904762Y-91002438D01*
X117904762Y-91002438D02*
X118047619Y-90954819D01*
X118047619Y-90954819D02*
X118142857Y-90954819D01*
X118142857Y-90954819D02*
X118285714Y-91002438D01*
X118285714Y-91002438D02*
X118333333Y-91050057D01*
X118714286Y-91050057D02*
X118761905Y-91002438D01*
X118761905Y-91002438D02*
X118857143Y-90954819D01*
X118857143Y-90954819D02*
X119095238Y-90954819D01*
X119095238Y-90954819D02*
X119190476Y-91002438D01*
X119190476Y-91002438D02*
X119238095Y-91050057D01*
X119238095Y-91050057D02*
X119285714Y-91145295D01*
X119285714Y-91145295D02*
X119285714Y-91240533D01*
X119285714Y-91240533D02*
X119238095Y-91383390D01*
X119238095Y-91383390D02*
X118666667Y-91954819D01*
X118666667Y-91954819D02*
X119285714Y-91954819D01*
X127166666Y-87954819D02*
X127166666Y-88669104D01*
X127166666Y-88669104D02*
X127119047Y-88811961D01*
X127119047Y-88811961D02*
X127023809Y-88907200D01*
X127023809Y-88907200D02*
X126880952Y-88954819D01*
X126880952Y-88954819D02*
X126785714Y-88954819D01*
X127785714Y-88383390D02*
X127690476Y-88335771D01*
X127690476Y-88335771D02*
X127642857Y-88288152D01*
X127642857Y-88288152D02*
X127595238Y-88192914D01*
X127595238Y-88192914D02*
X127595238Y-88145295D01*
X127595238Y-88145295D02*
X127642857Y-88050057D01*
X127642857Y-88050057D02*
X127690476Y-88002438D01*
X127690476Y-88002438D02*
X127785714Y-87954819D01*
X127785714Y-87954819D02*
X127976190Y-87954819D01*
X127976190Y-87954819D02*
X128071428Y-88002438D01*
X128071428Y-88002438D02*
X128119047Y-88050057D01*
X128119047Y-88050057D02*
X128166666Y-88145295D01*
X128166666Y-88145295D02*
X128166666Y-88192914D01*
X128166666Y-88192914D02*
X128119047Y-88288152D01*
X128119047Y-88288152D02*
X128071428Y-88335771D01*
X128071428Y-88335771D02*
X127976190Y-88383390D01*
X127976190Y-88383390D02*
X127785714Y-88383390D01*
X127785714Y-88383390D02*
X127690476Y-88431009D01*
X127690476Y-88431009D02*
X127642857Y-88478628D01*
X127642857Y-88478628D02*
X127595238Y-88573866D01*
X127595238Y-88573866D02*
X127595238Y-88764342D01*
X127595238Y-88764342D02*
X127642857Y-88859580D01*
X127642857Y-88859580D02*
X127690476Y-88907200D01*
X127690476Y-88907200D02*
X127785714Y-88954819D01*
X127785714Y-88954819D02*
X127976190Y-88954819D01*
X127976190Y-88954819D02*
X128071428Y-88907200D01*
X128071428Y-88907200D02*
X128119047Y-88859580D01*
X128119047Y-88859580D02*
X128166666Y-88764342D01*
X128166666Y-88764342D02*
X128166666Y-88573866D01*
X128166666Y-88573866D02*
X128119047Y-88478628D01*
X128119047Y-88478628D02*
X128071428Y-88431009D01*
X128071428Y-88431009D02*
X127976190Y-88383390D01*
X211157142Y-105754819D02*
X210823809Y-105278628D01*
X210585714Y-105754819D02*
X210585714Y-104754819D01*
X210585714Y-104754819D02*
X210966666Y-104754819D01*
X210966666Y-104754819D02*
X211061904Y-104802438D01*
X211061904Y-104802438D02*
X211109523Y-104850057D01*
X211109523Y-104850057D02*
X211157142Y-104945295D01*
X211157142Y-104945295D02*
X211157142Y-105088152D01*
X211157142Y-105088152D02*
X211109523Y-105183390D01*
X211109523Y-105183390D02*
X211061904Y-105231009D01*
X211061904Y-105231009D02*
X210966666Y-105278628D01*
X210966666Y-105278628D02*
X210585714Y-105278628D01*
X212109523Y-105754819D02*
X211538095Y-105754819D01*
X211823809Y-105754819D02*
X211823809Y-104754819D01*
X211823809Y-104754819D02*
X211728571Y-104897676D01*
X211728571Y-104897676D02*
X211633333Y-104992914D01*
X211633333Y-104992914D02*
X211538095Y-105040533D01*
X212490476Y-104850057D02*
X212538095Y-104802438D01*
X212538095Y-104802438D02*
X212633333Y-104754819D01*
X212633333Y-104754819D02*
X212871428Y-104754819D01*
X212871428Y-104754819D02*
X212966666Y-104802438D01*
X212966666Y-104802438D02*
X213014285Y-104850057D01*
X213014285Y-104850057D02*
X213061904Y-104945295D01*
X213061904Y-104945295D02*
X213061904Y-105040533D01*
X213061904Y-105040533D02*
X213014285Y-105183390D01*
X213014285Y-105183390D02*
X212442857Y-105754819D01*
X212442857Y-105754819D02*
X213061904Y-105754819D01*
X124166666Y-111454819D02*
X124166666Y-112169104D01*
X124166666Y-112169104D02*
X124119047Y-112311961D01*
X124119047Y-112311961D02*
X124023809Y-112407200D01*
X124023809Y-112407200D02*
X123880952Y-112454819D01*
X123880952Y-112454819D02*
X123785714Y-112454819D01*
X125071428Y-111454819D02*
X124880952Y-111454819D01*
X124880952Y-111454819D02*
X124785714Y-111502438D01*
X124785714Y-111502438D02*
X124738095Y-111550057D01*
X124738095Y-111550057D02*
X124642857Y-111692914D01*
X124642857Y-111692914D02*
X124595238Y-111883390D01*
X124595238Y-111883390D02*
X124595238Y-112264342D01*
X124595238Y-112264342D02*
X124642857Y-112359580D01*
X124642857Y-112359580D02*
X124690476Y-112407200D01*
X124690476Y-112407200D02*
X124785714Y-112454819D01*
X124785714Y-112454819D02*
X124976190Y-112454819D01*
X124976190Y-112454819D02*
X125071428Y-112407200D01*
X125071428Y-112407200D02*
X125119047Y-112359580D01*
X125119047Y-112359580D02*
X125166666Y-112264342D01*
X125166666Y-112264342D02*
X125166666Y-112026247D01*
X125166666Y-112026247D02*
X125119047Y-111931009D01*
X125119047Y-111931009D02*
X125071428Y-111883390D01*
X125071428Y-111883390D02*
X124976190Y-111835771D01*
X124976190Y-111835771D02*
X124785714Y-111835771D01*
X124785714Y-111835771D02*
X124690476Y-111883390D01*
X124690476Y-111883390D02*
X124642857Y-111931009D01*
X124642857Y-111931009D02*
X124595238Y-112026247D01*
X98333333Y-87359580D02*
X98285714Y-87407200D01*
X98285714Y-87407200D02*
X98142857Y-87454819D01*
X98142857Y-87454819D02*
X98047619Y-87454819D01*
X98047619Y-87454819D02*
X97904762Y-87407200D01*
X97904762Y-87407200D02*
X97809524Y-87311961D01*
X97809524Y-87311961D02*
X97761905Y-87216723D01*
X97761905Y-87216723D02*
X97714286Y-87026247D01*
X97714286Y-87026247D02*
X97714286Y-86883390D01*
X97714286Y-86883390D02*
X97761905Y-86692914D01*
X97761905Y-86692914D02*
X97809524Y-86597676D01*
X97809524Y-86597676D02*
X97904762Y-86502438D01*
X97904762Y-86502438D02*
X98047619Y-86454819D01*
X98047619Y-86454819D02*
X98142857Y-86454819D01*
X98142857Y-86454819D02*
X98285714Y-86502438D01*
X98285714Y-86502438D02*
X98333333Y-86550057D01*
X98666667Y-86454819D02*
X99285714Y-86454819D01*
X99285714Y-86454819D02*
X98952381Y-86835771D01*
X98952381Y-86835771D02*
X99095238Y-86835771D01*
X99095238Y-86835771D02*
X99190476Y-86883390D01*
X99190476Y-86883390D02*
X99238095Y-86931009D01*
X99238095Y-86931009D02*
X99285714Y-87026247D01*
X99285714Y-87026247D02*
X99285714Y-87264342D01*
X99285714Y-87264342D02*
X99238095Y-87359580D01*
X99238095Y-87359580D02*
X99190476Y-87407200D01*
X99190476Y-87407200D02*
X99095238Y-87454819D01*
X99095238Y-87454819D02*
X98809524Y-87454819D01*
X98809524Y-87454819D02*
X98714286Y-87407200D01*
X98714286Y-87407200D02*
X98666667Y-87359580D01*
X87666667Y-110157200D02*
X87809524Y-110204819D01*
X87809524Y-110204819D02*
X88047619Y-110204819D01*
X88047619Y-110204819D02*
X88142857Y-110157200D01*
X88142857Y-110157200D02*
X88190476Y-110109580D01*
X88190476Y-110109580D02*
X88238095Y-110014342D01*
X88238095Y-110014342D02*
X88238095Y-109919104D01*
X88238095Y-109919104D02*
X88190476Y-109823866D01*
X88190476Y-109823866D02*
X88142857Y-109776247D01*
X88142857Y-109776247D02*
X88047619Y-109728628D01*
X88047619Y-109728628D02*
X87857143Y-109681009D01*
X87857143Y-109681009D02*
X87761905Y-109633390D01*
X87761905Y-109633390D02*
X87714286Y-109585771D01*
X87714286Y-109585771D02*
X87666667Y-109490533D01*
X87666667Y-109490533D02*
X87666667Y-109395295D01*
X87666667Y-109395295D02*
X87714286Y-109300057D01*
X87714286Y-109300057D02*
X87761905Y-109252438D01*
X87761905Y-109252438D02*
X87857143Y-109204819D01*
X87857143Y-109204819D02*
X88095238Y-109204819D01*
X88095238Y-109204819D02*
X88238095Y-109252438D01*
X88571429Y-109204819D02*
X88809524Y-110204819D01*
X88809524Y-110204819D02*
X89000000Y-109490533D01*
X89000000Y-109490533D02*
X89190476Y-110204819D01*
X89190476Y-110204819D02*
X89428572Y-109204819D01*
X89761905Y-109300057D02*
X89809524Y-109252438D01*
X89809524Y-109252438D02*
X89904762Y-109204819D01*
X89904762Y-109204819D02*
X90142857Y-109204819D01*
X90142857Y-109204819D02*
X90238095Y-109252438D01*
X90238095Y-109252438D02*
X90285714Y-109300057D01*
X90285714Y-109300057D02*
X90333333Y-109395295D01*
X90333333Y-109395295D02*
X90333333Y-109490533D01*
X90333333Y-109490533D02*
X90285714Y-109633390D01*
X90285714Y-109633390D02*
X89714286Y-110204819D01*
X89714286Y-110204819D02*
X90333333Y-110204819D01*
X68803333Y-107259580D02*
X68755714Y-107307200D01*
X68755714Y-107307200D02*
X68612857Y-107354819D01*
X68612857Y-107354819D02*
X68517619Y-107354819D01*
X68517619Y-107354819D02*
X68374762Y-107307200D01*
X68374762Y-107307200D02*
X68279524Y-107211961D01*
X68279524Y-107211961D02*
X68231905Y-107116723D01*
X68231905Y-107116723D02*
X68184286Y-106926247D01*
X68184286Y-106926247D02*
X68184286Y-106783390D01*
X68184286Y-106783390D02*
X68231905Y-106592914D01*
X68231905Y-106592914D02*
X68279524Y-106497676D01*
X68279524Y-106497676D02*
X68374762Y-106402438D01*
X68374762Y-106402438D02*
X68517619Y-106354819D01*
X68517619Y-106354819D02*
X68612857Y-106354819D01*
X68612857Y-106354819D02*
X68755714Y-106402438D01*
X68755714Y-106402438D02*
X68803333Y-106450057D01*
X69136667Y-106354819D02*
X69803333Y-106354819D01*
X69803333Y-106354819D02*
X69374762Y-107354819D01*
X127166666Y-81454819D02*
X127166666Y-82169104D01*
X127166666Y-82169104D02*
X127119047Y-82311961D01*
X127119047Y-82311961D02*
X127023809Y-82407200D01*
X127023809Y-82407200D02*
X126880952Y-82454819D01*
X126880952Y-82454819D02*
X126785714Y-82454819D01*
X127547619Y-81454819D02*
X128214285Y-81454819D01*
X128214285Y-81454819D02*
X127785714Y-82454819D01*
X82584819Y-102166666D02*
X82108628Y-102499999D01*
X82584819Y-102738094D02*
X81584819Y-102738094D01*
X81584819Y-102738094D02*
X81584819Y-102357142D01*
X81584819Y-102357142D02*
X81632438Y-102261904D01*
X81632438Y-102261904D02*
X81680057Y-102214285D01*
X81680057Y-102214285D02*
X81775295Y-102166666D01*
X81775295Y-102166666D02*
X81918152Y-102166666D01*
X81918152Y-102166666D02*
X82013390Y-102214285D01*
X82013390Y-102214285D02*
X82061009Y-102261904D01*
X82061009Y-102261904D02*
X82108628Y-102357142D01*
X82108628Y-102357142D02*
X82108628Y-102738094D01*
X82584819Y-101214285D02*
X82584819Y-101785713D01*
X82584819Y-101499999D02*
X81584819Y-101499999D01*
X81584819Y-101499999D02*
X81727676Y-101595237D01*
X81727676Y-101595237D02*
X81822914Y-101690475D01*
X81822914Y-101690475D02*
X81870533Y-101785713D01*
X156357142Y-91454819D02*
X156023809Y-90978628D01*
X155785714Y-91454819D02*
X155785714Y-90454819D01*
X155785714Y-90454819D02*
X156166666Y-90454819D01*
X156166666Y-90454819D02*
X156261904Y-90502438D01*
X156261904Y-90502438D02*
X156309523Y-90550057D01*
X156309523Y-90550057D02*
X156357142Y-90645295D01*
X156357142Y-90645295D02*
X156357142Y-90788152D01*
X156357142Y-90788152D02*
X156309523Y-90883390D01*
X156309523Y-90883390D02*
X156261904Y-90931009D01*
X156261904Y-90931009D02*
X156166666Y-90978628D01*
X156166666Y-90978628D02*
X155785714Y-90978628D01*
X157309523Y-91454819D02*
X156738095Y-91454819D01*
X157023809Y-91454819D02*
X157023809Y-90454819D01*
X157023809Y-90454819D02*
X156928571Y-90597676D01*
X156928571Y-90597676D02*
X156833333Y-90692914D01*
X156833333Y-90692914D02*
X156738095Y-90740533D01*
X157928571Y-90454819D02*
X158023809Y-90454819D01*
X158023809Y-90454819D02*
X158119047Y-90502438D01*
X158119047Y-90502438D02*
X158166666Y-90550057D01*
X158166666Y-90550057D02*
X158214285Y-90645295D01*
X158214285Y-90645295D02*
X158261904Y-90835771D01*
X158261904Y-90835771D02*
X158261904Y-91073866D01*
X158261904Y-91073866D02*
X158214285Y-91264342D01*
X158214285Y-91264342D02*
X158166666Y-91359580D01*
X158166666Y-91359580D02*
X158119047Y-91407200D01*
X158119047Y-91407200D02*
X158023809Y-91454819D01*
X158023809Y-91454819D02*
X157928571Y-91454819D01*
X157928571Y-91454819D02*
X157833333Y-91407200D01*
X157833333Y-91407200D02*
X157785714Y-91359580D01*
X157785714Y-91359580D02*
X157738095Y-91264342D01*
X157738095Y-91264342D02*
X157690476Y-91073866D01*
X157690476Y-91073866D02*
X157690476Y-90835771D01*
X157690476Y-90835771D02*
X157738095Y-90645295D01*
X157738095Y-90645295D02*
X157785714Y-90550057D01*
X157785714Y-90550057D02*
X157833333Y-90502438D01*
X157833333Y-90502438D02*
X157928571Y-90454819D01*
X155554819Y-84103333D02*
X156269104Y-84103333D01*
X156269104Y-84103333D02*
X156411961Y-84150952D01*
X156411961Y-84150952D02*
X156507200Y-84246190D01*
X156507200Y-84246190D02*
X156554819Y-84389047D01*
X156554819Y-84389047D02*
X156554819Y-84484285D01*
X155650057Y-83674761D02*
X155602438Y-83627142D01*
X155602438Y-83627142D02*
X155554819Y-83531904D01*
X155554819Y-83531904D02*
X155554819Y-83293809D01*
X155554819Y-83293809D02*
X155602438Y-83198571D01*
X155602438Y-83198571D02*
X155650057Y-83150952D01*
X155650057Y-83150952D02*
X155745295Y-83103333D01*
X155745295Y-83103333D02*
X155840533Y-83103333D01*
X155840533Y-83103333D02*
X155983390Y-83150952D01*
X155983390Y-83150952D02*
X156554819Y-83722380D01*
X156554819Y-83722380D02*
X156554819Y-83103333D01*
D11*
X58707419Y-101888094D02*
X59516942Y-101888094D01*
X59516942Y-101888094D02*
X59612180Y-101840475D01*
X59612180Y-101840475D02*
X59659800Y-101792856D01*
X59659800Y-101792856D02*
X59707419Y-101697618D01*
X59707419Y-101697618D02*
X59707419Y-101507142D01*
X59707419Y-101507142D02*
X59659800Y-101411904D01*
X59659800Y-101411904D02*
X59612180Y-101364285D01*
X59612180Y-101364285D02*
X59516942Y-101316666D01*
X59516942Y-101316666D02*
X58707419Y-101316666D01*
X59707419Y-100316666D02*
X59707419Y-100888094D01*
X59707419Y-100602380D02*
X58707419Y-100602380D01*
X58707419Y-100602380D02*
X58850276Y-100697618D01*
X58850276Y-100697618D02*
X58945514Y-100792856D01*
X58945514Y-100792856D02*
X58993133Y-100888094D01*
X58707419Y-99983332D02*
X58707419Y-99316666D01*
X58707419Y-99316666D02*
X59707419Y-99745237D01*
X71872419Y-97780951D02*
X70872419Y-97780951D01*
X70872419Y-97780951D02*
X70872419Y-97542856D01*
X70872419Y-97542856D02*
X70920038Y-97399999D01*
X70920038Y-97399999D02*
X71015276Y-97304761D01*
X71015276Y-97304761D02*
X71110514Y-97257142D01*
X71110514Y-97257142D02*
X71300990Y-97209523D01*
X71300990Y-97209523D02*
X71443847Y-97209523D01*
X71443847Y-97209523D02*
X71634323Y-97257142D01*
X71634323Y-97257142D02*
X71729561Y-97304761D01*
X71729561Y-97304761D02*
X71824800Y-97399999D01*
X71824800Y-97399999D02*
X71872419Y-97542856D01*
X71872419Y-97542856D02*
X71872419Y-97780951D01*
X71777180Y-96209523D02*
X71824800Y-96257142D01*
X71824800Y-96257142D02*
X71872419Y-96399999D01*
X71872419Y-96399999D02*
X71872419Y-96495237D01*
X71872419Y-96495237D02*
X71824800Y-96638094D01*
X71824800Y-96638094D02*
X71729561Y-96733332D01*
X71729561Y-96733332D02*
X71634323Y-96780951D01*
X71634323Y-96780951D02*
X71443847Y-96828570D01*
X71443847Y-96828570D02*
X71300990Y-96828570D01*
X71300990Y-96828570D02*
X71110514Y-96780951D01*
X71110514Y-96780951D02*
X71015276Y-96733332D01*
X71015276Y-96733332D02*
X70920038Y-96638094D01*
X70920038Y-96638094D02*
X70872419Y-96495237D01*
X70872419Y-96495237D02*
X70872419Y-96399999D01*
X70872419Y-96399999D02*
X70920038Y-96257142D01*
X70920038Y-96257142D02*
X70967657Y-96209523D01*
X71491466Y-95780951D02*
X71491466Y-95019047D01*
X71872419Y-94542856D02*
X70872419Y-94542856D01*
X70872419Y-94542856D02*
X70872419Y-94304761D01*
X70872419Y-94304761D02*
X70920038Y-94161904D01*
X70920038Y-94161904D02*
X71015276Y-94066666D01*
X71015276Y-94066666D02*
X71110514Y-94019047D01*
X71110514Y-94019047D02*
X71300990Y-93971428D01*
X71300990Y-93971428D02*
X71443847Y-93971428D01*
X71443847Y-93971428D02*
X71634323Y-94019047D01*
X71634323Y-94019047D02*
X71729561Y-94066666D01*
X71729561Y-94066666D02*
X71824800Y-94161904D01*
X71824800Y-94161904D02*
X71872419Y-94304761D01*
X71872419Y-94304761D02*
X71872419Y-94542856D01*
X71777180Y-92971428D02*
X71824800Y-93019047D01*
X71824800Y-93019047D02*
X71872419Y-93161904D01*
X71872419Y-93161904D02*
X71872419Y-93257142D01*
X71872419Y-93257142D02*
X71824800Y-93399999D01*
X71824800Y-93399999D02*
X71729561Y-93495237D01*
X71729561Y-93495237D02*
X71634323Y-93542856D01*
X71634323Y-93542856D02*
X71443847Y-93590475D01*
X71443847Y-93590475D02*
X71300990Y-93590475D01*
X71300990Y-93590475D02*
X71110514Y-93542856D01*
X71110514Y-93542856D02*
X71015276Y-93495237D01*
X71015276Y-93495237D02*
X70920038Y-93399999D01*
X70920038Y-93399999D02*
X70872419Y-93257142D01*
X70872419Y-93257142D02*
X70872419Y-93161904D01*
X70872419Y-93161904D02*
X70920038Y-93019047D01*
X70920038Y-93019047D02*
X70967657Y-92971428D01*
X73542419Y-98138094D02*
X72542419Y-98138094D01*
X72542419Y-98138094D02*
X73256704Y-97804761D01*
X73256704Y-97804761D02*
X72542419Y-97471428D01*
X72542419Y-97471428D02*
X73542419Y-97471428D01*
X73542419Y-96995237D02*
X72542419Y-96995237D01*
X72542419Y-96995237D02*
X72542419Y-96614285D01*
X72542419Y-96614285D02*
X72590038Y-96519047D01*
X72590038Y-96519047D02*
X72637657Y-96471428D01*
X72637657Y-96471428D02*
X72732895Y-96423809D01*
X72732895Y-96423809D02*
X72875752Y-96423809D01*
X72875752Y-96423809D02*
X72970990Y-96471428D01*
X72970990Y-96471428D02*
X73018609Y-96519047D01*
X73018609Y-96519047D02*
X73066228Y-96614285D01*
X73066228Y-96614285D02*
X73066228Y-96995237D01*
X73542419Y-95471428D02*
X73542419Y-96042856D01*
X73542419Y-95757142D02*
X72542419Y-95757142D01*
X72542419Y-95757142D02*
X72685276Y-95852380D01*
X72685276Y-95852380D02*
X72780514Y-95947618D01*
X72780514Y-95947618D02*
X72828133Y-96042856D01*
X72542419Y-94566666D02*
X72542419Y-95042856D01*
X72542419Y-95042856D02*
X73018609Y-95090475D01*
X73018609Y-95090475D02*
X72970990Y-95042856D01*
X72970990Y-95042856D02*
X72923371Y-94947618D01*
X72923371Y-94947618D02*
X72923371Y-94709523D01*
X72923371Y-94709523D02*
X72970990Y-94614285D01*
X72970990Y-94614285D02*
X73018609Y-94566666D01*
X73018609Y-94566666D02*
X73113847Y-94519047D01*
X73113847Y-94519047D02*
X73351942Y-94519047D01*
X73351942Y-94519047D02*
X73447180Y-94566666D01*
X73447180Y-94566666D02*
X73494800Y-94614285D01*
X73494800Y-94614285D02*
X73542419Y-94709523D01*
X73542419Y-94709523D02*
X73542419Y-94947618D01*
X73542419Y-94947618D02*
X73494800Y-95042856D01*
X73494800Y-95042856D02*
X73447180Y-95090475D01*
X72970990Y-93947618D02*
X72923371Y-94042856D01*
X72923371Y-94042856D02*
X72875752Y-94090475D01*
X72875752Y-94090475D02*
X72780514Y-94138094D01*
X72780514Y-94138094D02*
X72732895Y-94138094D01*
X72732895Y-94138094D02*
X72637657Y-94090475D01*
X72637657Y-94090475D02*
X72590038Y-94042856D01*
X72590038Y-94042856D02*
X72542419Y-93947618D01*
X72542419Y-93947618D02*
X72542419Y-93757142D01*
X72542419Y-93757142D02*
X72590038Y-93661904D01*
X72590038Y-93661904D02*
X72637657Y-93614285D01*
X72637657Y-93614285D02*
X72732895Y-93566666D01*
X72732895Y-93566666D02*
X72780514Y-93566666D01*
X72780514Y-93566666D02*
X72875752Y-93614285D01*
X72875752Y-93614285D02*
X72923371Y-93661904D01*
X72923371Y-93661904D02*
X72970990Y-93757142D01*
X72970990Y-93757142D02*
X72970990Y-93947618D01*
X72970990Y-93947618D02*
X73018609Y-94042856D01*
X73018609Y-94042856D02*
X73066228Y-94090475D01*
X73066228Y-94090475D02*
X73161466Y-94138094D01*
X73161466Y-94138094D02*
X73351942Y-94138094D01*
X73351942Y-94138094D02*
X73447180Y-94090475D01*
X73447180Y-94090475D02*
X73494800Y-94042856D01*
X73494800Y-94042856D02*
X73542419Y-93947618D01*
X73542419Y-93947618D02*
X73542419Y-93757142D01*
X73542419Y-93757142D02*
X73494800Y-93661904D01*
X73494800Y-93661904D02*
X73447180Y-93614285D01*
X73447180Y-93614285D02*
X73351942Y-93566666D01*
X73351942Y-93566666D02*
X73161466Y-93566666D01*
X73161466Y-93566666D02*
X73066228Y-93614285D01*
X73066228Y-93614285D02*
X73018609Y-93661904D01*
X73018609Y-93661904D02*
X72970990Y-93757142D01*
X72875752Y-92709523D02*
X73542419Y-92709523D01*
X72494800Y-92947618D02*
X73209085Y-93185713D01*
X73209085Y-93185713D02*
X73209085Y-92566666D01*
X232261905Y-83947419D02*
X232261905Y-84756942D01*
X232261905Y-84756942D02*
X232309524Y-84852180D01*
X232309524Y-84852180D02*
X232357143Y-84899800D01*
X232357143Y-84899800D02*
X232452381Y-84947419D01*
X232452381Y-84947419D02*
X232642857Y-84947419D01*
X232642857Y-84947419D02*
X232738095Y-84899800D01*
X232738095Y-84899800D02*
X232785714Y-84852180D01*
X232785714Y-84852180D02*
X232833333Y-84756942D01*
X232833333Y-84756942D02*
X232833333Y-83947419D01*
X233833333Y-84947419D02*
X233261905Y-84947419D01*
X233547619Y-84947419D02*
X233547619Y-83947419D01*
X233547619Y-83947419D02*
X233452381Y-84090276D01*
X233452381Y-84090276D02*
X233357143Y-84185514D01*
X233357143Y-84185514D02*
X233261905Y-84233133D01*
X234690476Y-83947419D02*
X234500000Y-83947419D01*
X234500000Y-83947419D02*
X234404762Y-83995038D01*
X234404762Y-83995038D02*
X234357143Y-84042657D01*
X234357143Y-84042657D02*
X234261905Y-84185514D01*
X234261905Y-84185514D02*
X234214286Y-84375990D01*
X234214286Y-84375990D02*
X234214286Y-84756942D01*
X234214286Y-84756942D02*
X234261905Y-84852180D01*
X234261905Y-84852180D02*
X234309524Y-84899800D01*
X234309524Y-84899800D02*
X234404762Y-84947419D01*
X234404762Y-84947419D02*
X234595238Y-84947419D01*
X234595238Y-84947419D02*
X234690476Y-84899800D01*
X234690476Y-84899800D02*
X234738095Y-84852180D01*
X234738095Y-84852180D02*
X234785714Y-84756942D01*
X234785714Y-84756942D02*
X234785714Y-84518847D01*
X234785714Y-84518847D02*
X234738095Y-84423609D01*
X234738095Y-84423609D02*
X234690476Y-84375990D01*
X234690476Y-84375990D02*
X234595238Y-84328371D01*
X234595238Y-84328371D02*
X234404762Y-84328371D01*
X234404762Y-84328371D02*
X234309524Y-84375990D01*
X234309524Y-84375990D02*
X234261905Y-84423609D01*
X234261905Y-84423609D02*
X234214286Y-84518847D01*
D12*
%TO.C,R7*%
X154440000Y-101500000D02*
X155210000Y-101500000D01*
X162520000Y-101500000D02*
X161750000Y-101500000D01*
X161750000Y-102870000D02*
X155210000Y-102870000D01*
X155210000Y-100130000D01*
X161750000Y-100130000D01*
X161750000Y-102870000D01*
%TO.C,R8*%
X154460000Y-98000000D02*
X155230000Y-98000000D01*
X162540000Y-98000000D02*
X161770000Y-98000000D01*
X161770000Y-99370000D02*
X155230000Y-99370000D01*
X155230000Y-96630000D01*
X161770000Y-96630000D01*
X161770000Y-99370000D01*
%TO.C,SW3*%
X136500000Y-112000000D02*
X136500000Y-116500000D01*
X139000000Y-117750000D02*
X140500000Y-117750000D01*
X140500000Y-110750000D02*
X139000000Y-110750000D01*
X143000000Y-116500000D02*
X143000000Y-112000000D01*
%TO.C,Q1*%
X209720000Y-87737000D02*
X220200000Y-87737000D01*
X209720000Y-92657000D02*
X209720000Y-87737000D01*
X211208000Y-90028000D02*
X209720000Y-90027000D01*
X213110000Y-92657000D02*
X213110000Y-90760000D01*
X213748000Y-90028000D02*
X213633000Y-90028000D01*
X216288000Y-90027000D02*
X216173000Y-90028000D01*
X216810000Y-92657000D02*
X216810000Y-90760000D01*
X220200000Y-87737000D02*
X220200000Y-92657000D01*
X220200000Y-90027000D02*
X218712000Y-90027000D01*
X220200000Y-92657000D02*
X209720000Y-92657000D01*
%TO.C,U2*%
D11*
X90880000Y-80230000D02*
X106120000Y-80230000D01*
X106120000Y-81500000D01*
X90880000Y-81500000D01*
X90880000Y-80230000D01*
X90880000Y-81500000D02*
X106120000Y-81500000D01*
X106120000Y-84040000D01*
X90880000Y-84040000D01*
X90880000Y-81500000D01*
X93420000Y-78960000D02*
X103580000Y-78960000D01*
X103580000Y-80230000D01*
X93420000Y-80230000D01*
X93420000Y-78960000D01*
D12*
%TO.C,U3*%
X130050000Y-94040000D02*
X130050000Y-95690000D01*
X130050000Y-97690000D02*
X130050000Y-99340000D01*
X130050000Y-99340000D02*
X147950000Y-99340000D01*
X147950000Y-94040000D02*
X130050000Y-94040000D01*
X147950000Y-99340000D02*
X147950000Y-94040000D01*
X130050000Y-95690000D02*
G75*
G02*
X130050000Y-97690000I0J-1000000D01*
G01*
%TO.C,J4*%
X186460000Y-83500000D02*
X187230000Y-83500000D01*
X194540000Y-83500000D02*
X193770000Y-83500000D01*
X193770000Y-84870000D02*
X187230000Y-84870000D01*
X187230000Y-82130000D01*
X193770000Y-82130000D01*
X193770000Y-84870000D01*
%TO.C,C1*%
X102040000Y-113620000D02*
X102380000Y-113620000D01*
X114960000Y-113620000D02*
X114620000Y-113620000D01*
X114620000Y-116990000D02*
X102380000Y-116990000D01*
X102380000Y-110250000D01*
X114620000Y-110250000D01*
X114620000Y-116990000D01*
%TO.C,U1*%
X89470000Y-100660000D02*
X89470000Y-102310000D01*
X89470000Y-104310000D02*
X89470000Y-105960000D01*
X89470000Y-105960000D02*
X125150000Y-105960000D01*
X125150000Y-100660000D02*
X89470000Y-100660000D01*
X125150000Y-105960000D02*
X125150000Y-100660000D01*
X89470000Y-102310000D02*
G75*
G02*
X89470000Y-104310000I0J-1000000D01*
G01*
%TO.C,U15*%
X184470000Y-96540000D02*
X184470000Y-98190000D01*
X184470000Y-100190000D02*
X184470000Y-101840000D01*
X184470000Y-101840000D02*
X202370000Y-101840000D01*
X202370000Y-96540000D02*
X184470000Y-96540000D01*
X202370000Y-101840000D02*
X202370000Y-96540000D01*
X184470000Y-98190000D02*
G75*
G02*
X184470000Y-100190000I0J-1000000D01*
G01*
%TO.C,R9*%
X154440000Y-94500000D02*
X155210000Y-94500000D01*
X162520000Y-94500000D02*
X161750000Y-94500000D01*
X161750000Y-95870000D02*
X155210000Y-95870000D01*
X155210000Y-93130000D01*
X161750000Y-93130000D01*
X161750000Y-95870000D01*
%TO.C,R11*%
X173710000Y-83500000D02*
X174480000Y-83500000D01*
X181790000Y-83500000D02*
X181020000Y-83500000D01*
X174480000Y-82130000D02*
X181020000Y-82130000D01*
X181020000Y-84870000D01*
X174480000Y-84870000D01*
X174480000Y-82130000D01*
%TO.C,R13*%
X210460000Y-98500000D02*
X211230000Y-98500000D01*
X218540000Y-98500000D02*
X217770000Y-98500000D01*
X211230000Y-97130000D02*
X217770000Y-97130000D01*
X217770000Y-99870000D01*
X211230000Y-99870000D01*
X211230000Y-97130000D01*
%TO.C,R6*%
X154440000Y-105000000D02*
X155210000Y-105000000D01*
X162520000Y-105000000D02*
X161750000Y-105000000D01*
X161750000Y-106370000D02*
X155210000Y-106370000D01*
X155210000Y-103630000D01*
X161750000Y-103630000D01*
X161750000Y-106370000D01*
%TO.C,J1*%
D11*
X55130000Y-111620000D02*
X60630000Y-111620000D01*
X60630000Y-95420000D01*
X55130000Y-95420000D01*
X55130000Y-111620000D01*
X56850000Y-111620000D02*
X57670000Y-111620000D01*
X57670000Y-95420000D01*
X56850000Y-95420000D01*
X56850000Y-111620000D01*
D12*
%TO.C,J5*%
X126550000Y-91550000D02*
X126550000Y-93450000D01*
X126550000Y-93450000D02*
X128400000Y-93450000D01*
X128400000Y-91550000D02*
X126550000Y-91550000D01*
X128400000Y-91600000D02*
X128400000Y-91550000D01*
X128400000Y-93450000D02*
X128400000Y-91600000D01*
%TO.C,C6*%
X72860000Y-109890000D02*
X71331000Y-109890000D01*
X72860000Y-109930000D02*
X71335000Y-109930000D01*
X72860000Y-109970000D02*
X71340000Y-109970000D01*
X72860000Y-110010000D02*
X71345000Y-110010000D01*
X72860000Y-110050000D02*
X71351000Y-110050000D01*
X72860000Y-110090000D02*
X71357000Y-110090000D01*
X72860000Y-110130000D02*
X71364000Y-110130000D01*
X72860000Y-110170000D02*
X71372000Y-110170000D01*
X72860000Y-110210000D02*
X71381000Y-110210000D01*
X72860000Y-110250000D02*
X71390000Y-110250000D01*
X72860000Y-110290000D02*
X71399000Y-110290000D01*
X72860000Y-110330000D02*
X71410000Y-110330000D01*
X72860000Y-110370000D02*
X71421000Y-110370000D01*
X72860000Y-110410000D02*
X71433000Y-110410000D01*
X72860000Y-110450000D02*
X71445000Y-110450000D01*
X72860000Y-110490000D02*
X71458000Y-110490000D01*
X72860000Y-110530000D02*
X71472000Y-110530000D01*
X72860000Y-110570000D02*
X71487000Y-110570000D01*
X72860000Y-110610000D02*
X71502000Y-110610000D01*
X72860000Y-110650000D02*
X71518000Y-110650000D01*
X72860000Y-110690000D02*
X71535000Y-110690000D01*
X72860000Y-110730000D02*
X71553000Y-110730000D01*
X72860000Y-110770000D02*
X71571000Y-110770000D01*
X72860000Y-110810000D02*
X71591000Y-110810000D01*
X72860000Y-110850000D02*
X71611000Y-110850000D01*
X72860000Y-110890000D02*
X71632000Y-110890000D01*
X72860000Y-110930000D02*
X71654000Y-110930000D01*
X72860000Y-110970000D02*
X71677000Y-110970000D01*
X72860000Y-111010000D02*
X71701000Y-111010000D01*
X72860000Y-111050000D02*
X71725000Y-111050000D01*
X72860000Y-111090000D02*
X71751000Y-111090000D01*
X72860000Y-111130000D02*
X71778000Y-111130000D01*
X72860000Y-111170000D02*
X71806000Y-111170000D01*
X72860000Y-111210000D02*
X71835000Y-111210000D01*
X72860000Y-111250000D02*
X71865000Y-111250000D01*
X72860000Y-111290000D02*
X71897000Y-111290000D01*
X72860000Y-111330000D02*
X71930000Y-111330000D01*
X72860000Y-111370000D02*
X71964000Y-111370000D01*
X72860000Y-111410000D02*
X71999000Y-111410000D01*
X72860000Y-111450000D02*
X72036000Y-111450000D01*
X72860000Y-111490000D02*
X72075000Y-111490000D01*
X72860000Y-111530000D02*
X72115000Y-111530000D01*
X72860000Y-111570000D02*
X72157000Y-111570000D01*
X72860000Y-111610000D02*
X72201000Y-111610000D01*
X72860000Y-111650000D02*
X72248000Y-111650000D01*
X72860000Y-111690000D02*
X72296000Y-111690000D01*
X72860000Y-111730000D02*
X72347000Y-111730000D01*
X72860000Y-111770000D02*
X72401000Y-111770000D01*
X72860000Y-111810000D02*
X72457000Y-111810000D01*
X72860000Y-111850000D02*
X72517000Y-111850000D01*
X72860000Y-111890000D02*
X72581000Y-111890000D01*
X72860000Y-111930000D02*
X72649000Y-111930000D01*
X74183000Y-112250000D02*
X73617000Y-112250000D01*
X74417000Y-112210000D02*
X73383000Y-112210000D01*
X74577000Y-112170000D02*
X73223000Y-112170000D01*
X74705000Y-112130000D02*
X73095000Y-112130000D01*
X74814000Y-112090000D02*
X72986000Y-112090000D01*
X74911000Y-112050000D02*
X72889000Y-112050000D01*
X74998000Y-112010000D02*
X72802000Y-112010000D01*
X75077000Y-111970000D02*
X72723000Y-111970000D01*
X75151000Y-111930000D02*
X74940000Y-111930000D01*
X75219000Y-111890000D02*
X74940000Y-111890000D01*
X75283000Y-111850000D02*
X74940000Y-111850000D01*
X75343000Y-111810000D02*
X74940000Y-111810000D01*
X75375000Y-106845225D02*
X75375000Y-107345225D01*
X75399000Y-111770000D02*
X74940000Y-111770000D01*
X75453000Y-111730000D02*
X74940000Y-111730000D01*
X75504000Y-111690000D02*
X74940000Y-111690000D01*
X75552000Y-111650000D02*
X74940000Y-111650000D01*
X75599000Y-111610000D02*
X74940000Y-111610000D01*
X75625000Y-107095225D02*
X75125000Y-107095225D01*
X75643000Y-111570000D02*
X74940000Y-111570000D01*
X75685000Y-111530000D02*
X74940000Y-111530000D01*
X75725000Y-111490000D02*
X74940000Y-111490000D01*
X75764000Y-111450000D02*
X74940000Y-111450000D01*
X75801000Y-111410000D02*
X74940000Y-111410000D01*
X75836000Y-111370000D02*
X74940000Y-111370000D01*
X75870000Y-111330000D02*
X74940000Y-111330000D01*
X75903000Y-111290000D02*
X74940000Y-111290000D01*
X75935000Y-111250000D02*
X74940000Y-111250000D01*
X75965000Y-111210000D02*
X74940000Y-111210000D01*
X75994000Y-111170000D02*
X74940000Y-111170000D01*
X76022000Y-111130000D02*
X74940000Y-111130000D01*
X76049000Y-111090000D02*
X74940000Y-111090000D01*
X76075000Y-111050000D02*
X74940000Y-111050000D01*
X76099000Y-111010000D02*
X74940000Y-111010000D01*
X76123000Y-110970000D02*
X74940000Y-110970000D01*
X76146000Y-110930000D02*
X74940000Y-110930000D01*
X76168000Y-110890000D02*
X74940000Y-110890000D01*
X76189000Y-110850000D02*
X74940000Y-110850000D01*
X76209000Y-110810000D02*
X74940000Y-110810000D01*
X76229000Y-110770000D02*
X74940000Y-110770000D01*
X76247000Y-110730000D02*
X74940000Y-110730000D01*
X76265000Y-110690000D02*
X74940000Y-110690000D01*
X76282000Y-110650000D02*
X74940000Y-110650000D01*
X76298000Y-110610000D02*
X74940000Y-110610000D01*
X76313000Y-110570000D02*
X74940000Y-110570000D01*
X76328000Y-110530000D02*
X74940000Y-110530000D01*
X76342000Y-110490000D02*
X74940000Y-110490000D01*
X76355000Y-110450000D02*
X74940000Y-110450000D01*
X76367000Y-110410000D02*
X74940000Y-110410000D01*
X76379000Y-110370000D02*
X74940000Y-110370000D01*
X76390000Y-110330000D02*
X74940000Y-110330000D01*
X76401000Y-110290000D02*
X74940000Y-110290000D01*
X76410000Y-110250000D02*
X74940000Y-110250000D01*
X76419000Y-110210000D02*
X74940000Y-110210000D01*
X76428000Y-110170000D02*
X74940000Y-110170000D01*
X76436000Y-110130000D02*
X74940000Y-110130000D01*
X76443000Y-110090000D02*
X74940000Y-110090000D01*
X76449000Y-110050000D02*
X74940000Y-110050000D01*
X76455000Y-110010000D02*
X74940000Y-110010000D01*
X76460000Y-109970000D02*
X74940000Y-109970000D01*
X76465000Y-109930000D02*
X74940000Y-109930000D01*
X76469000Y-109890000D02*
X74940000Y-109890000D01*
X76472000Y-109850000D02*
X71328000Y-109850000D01*
X76475000Y-109810000D02*
X71325000Y-109810000D01*
X76477000Y-109770000D02*
X71323000Y-109770000D01*
X76479000Y-109730000D02*
X71321000Y-109730000D01*
X76480000Y-109650000D02*
X71320000Y-109650000D01*
X76480000Y-109690000D02*
X71320000Y-109690000D01*
X76520000Y-109650000D02*
G75*
G02*
X71280000Y-109650000I-2620000J0D01*
G01*
X71280000Y-109650000D02*
G75*
G02*
X76520000Y-109650000I2620000J0D01*
G01*
%TO.C,J3*%
D11*
X219280000Y-111160000D02*
X221820000Y-111160000D01*
X221820000Y-106080000D01*
X219280000Y-106080000D01*
X219280000Y-111160000D01*
%TO.C,U14*%
X151610000Y-114960000D02*
X166850000Y-114960000D01*
X166850000Y-116230000D01*
X151610000Y-116230000D01*
X151610000Y-114960000D01*
X151610000Y-116230000D02*
X166850000Y-116230000D01*
X166850000Y-118770000D01*
X151610000Y-118770000D01*
X151610000Y-116230000D01*
X154150000Y-113690000D02*
X164310000Y-113690000D01*
X164310000Y-114960000D01*
X154150000Y-114960000D01*
X154150000Y-113690000D01*
D12*
%TO.C,C2*%
X102040000Y-93120000D02*
X102380000Y-93120000D01*
X114960000Y-93120000D02*
X114620000Y-93120000D01*
X114620000Y-96490000D02*
X102380000Y-96490000D01*
X102380000Y-89750000D01*
X114620000Y-89750000D01*
X114620000Y-96490000D01*
%TO.C,J8*%
X124050000Y-87450000D02*
X124050000Y-89350000D01*
X124050000Y-89350000D02*
X125900000Y-89350000D01*
X125900000Y-87450000D02*
X124050000Y-87450000D01*
X125900000Y-87500000D02*
X125900000Y-87450000D01*
X125900000Y-89350000D02*
X125900000Y-87500000D01*
%TO.C,R12*%
X210460000Y-101500000D02*
X211230000Y-101500000D01*
X218540000Y-101500000D02*
X217770000Y-101500000D01*
X211230000Y-100130000D02*
X217770000Y-100130000D01*
X217770000Y-102870000D01*
X211230000Y-102870000D01*
X211230000Y-100130000D01*
%TO.C,J6*%
X126550000Y-110550000D02*
X126550000Y-112450000D01*
X126550000Y-112450000D02*
X128400000Y-112450000D01*
X128400000Y-110550000D02*
X126550000Y-110550000D01*
X128400000Y-110600000D02*
X128400000Y-110550000D01*
X128400000Y-112450000D02*
X128400000Y-110600000D01*
%TO.C,C3*%
X101280000Y-84880000D02*
X108720000Y-84880000D01*
X101280000Y-88120000D02*
X101280000Y-84880000D01*
X108720000Y-84880000D02*
X108720000Y-88120000D01*
X108720000Y-88120000D02*
X101280000Y-88120000D01*
%TO.C,SW2*%
X85500000Y-113250000D02*
X85500000Y-114750000D01*
X86750000Y-117250000D02*
X91250000Y-117250000D01*
X91250000Y-110750000D02*
X86750000Y-110750000D01*
X92500000Y-114750000D02*
X92500000Y-113250000D01*
%TO.C,C7*%
X64360000Y-109890000D02*
X62831000Y-109890000D01*
X64360000Y-109930000D02*
X62835000Y-109930000D01*
X64360000Y-109970000D02*
X62840000Y-109970000D01*
X64360000Y-110010000D02*
X62845000Y-110010000D01*
X64360000Y-110050000D02*
X62851000Y-110050000D01*
X64360000Y-110090000D02*
X62857000Y-110090000D01*
X64360000Y-110130000D02*
X62864000Y-110130000D01*
X64360000Y-110170000D02*
X62872000Y-110170000D01*
X64360000Y-110210000D02*
X62881000Y-110210000D01*
X64360000Y-110250000D02*
X62890000Y-110250000D01*
X64360000Y-110290000D02*
X62899000Y-110290000D01*
X64360000Y-110330000D02*
X62910000Y-110330000D01*
X64360000Y-110370000D02*
X62921000Y-110370000D01*
X64360000Y-110410000D02*
X62933000Y-110410000D01*
X64360000Y-110450000D02*
X62945000Y-110450000D01*
X64360000Y-110490000D02*
X62958000Y-110490000D01*
X64360000Y-110530000D02*
X62972000Y-110530000D01*
X64360000Y-110570000D02*
X62987000Y-110570000D01*
X64360000Y-110610000D02*
X63002000Y-110610000D01*
X64360000Y-110650000D02*
X63018000Y-110650000D01*
X64360000Y-110690000D02*
X63035000Y-110690000D01*
X64360000Y-110730000D02*
X63053000Y-110730000D01*
X64360000Y-110770000D02*
X63071000Y-110770000D01*
X64360000Y-110810000D02*
X63091000Y-110810000D01*
X64360000Y-110850000D02*
X63111000Y-110850000D01*
X64360000Y-110890000D02*
X63132000Y-110890000D01*
X64360000Y-110930000D02*
X63154000Y-110930000D01*
X64360000Y-110970000D02*
X63177000Y-110970000D01*
X64360000Y-111010000D02*
X63201000Y-111010000D01*
X64360000Y-111050000D02*
X63225000Y-111050000D01*
X64360000Y-111090000D02*
X63251000Y-111090000D01*
X64360000Y-111130000D02*
X63278000Y-111130000D01*
X64360000Y-111170000D02*
X63306000Y-111170000D01*
X64360000Y-111210000D02*
X63335000Y-111210000D01*
X64360000Y-111250000D02*
X63365000Y-111250000D01*
X64360000Y-111290000D02*
X63397000Y-111290000D01*
X64360000Y-111330000D02*
X63430000Y-111330000D01*
X64360000Y-111370000D02*
X63464000Y-111370000D01*
X64360000Y-111410000D02*
X63499000Y-111410000D01*
X64360000Y-111450000D02*
X63536000Y-111450000D01*
X64360000Y-111490000D02*
X63575000Y-111490000D01*
X64360000Y-111530000D02*
X63615000Y-111530000D01*
X64360000Y-111570000D02*
X63657000Y-111570000D01*
X64360000Y-111610000D02*
X63701000Y-111610000D01*
X64360000Y-111650000D02*
X63748000Y-111650000D01*
X64360000Y-111690000D02*
X63796000Y-111690000D01*
X64360000Y-111730000D02*
X63847000Y-111730000D01*
X64360000Y-111770000D02*
X63901000Y-111770000D01*
X64360000Y-111810000D02*
X63957000Y-111810000D01*
X64360000Y-111850000D02*
X64017000Y-111850000D01*
X64360000Y-111890000D02*
X64081000Y-111890000D01*
X64360000Y-111930000D02*
X64149000Y-111930000D01*
X65683000Y-112250000D02*
X65117000Y-112250000D01*
X65917000Y-112210000D02*
X64883000Y-112210000D01*
X66077000Y-112170000D02*
X64723000Y-112170000D01*
X66205000Y-112130000D02*
X64595000Y-112130000D01*
X66314000Y-112090000D02*
X64486000Y-112090000D01*
X66411000Y-112050000D02*
X64389000Y-112050000D01*
X66498000Y-112010000D02*
X64302000Y-112010000D01*
X66577000Y-111970000D02*
X64223000Y-111970000D01*
X66651000Y-111930000D02*
X66440000Y-111930000D01*
X66719000Y-111890000D02*
X66440000Y-111890000D01*
X66783000Y-111850000D02*
X66440000Y-111850000D01*
X66843000Y-111810000D02*
X66440000Y-111810000D01*
X66875000Y-106845225D02*
X66875000Y-107345225D01*
X66899000Y-111770000D02*
X66440000Y-111770000D01*
X66953000Y-111730000D02*
X66440000Y-111730000D01*
X67004000Y-111690000D02*
X66440000Y-111690000D01*
X67052000Y-111650000D02*
X66440000Y-111650000D01*
X67099000Y-111610000D02*
X66440000Y-111610000D01*
X67125000Y-107095225D02*
X66625000Y-107095225D01*
X67143000Y-111570000D02*
X66440000Y-111570000D01*
X67185000Y-111530000D02*
X66440000Y-111530000D01*
X67225000Y-111490000D02*
X66440000Y-111490000D01*
X67264000Y-111450000D02*
X66440000Y-111450000D01*
X67301000Y-111410000D02*
X66440000Y-111410000D01*
X67336000Y-111370000D02*
X66440000Y-111370000D01*
X67370000Y-111330000D02*
X66440000Y-111330000D01*
X67403000Y-111290000D02*
X66440000Y-111290000D01*
X67435000Y-111250000D02*
X66440000Y-111250000D01*
X67465000Y-111210000D02*
X66440000Y-111210000D01*
X67494000Y-111170000D02*
X66440000Y-111170000D01*
X67522000Y-111130000D02*
X66440000Y-111130000D01*
X67549000Y-111090000D02*
X66440000Y-111090000D01*
X67575000Y-111050000D02*
X66440000Y-111050000D01*
X67599000Y-111010000D02*
X66440000Y-111010000D01*
X67623000Y-110970000D02*
X66440000Y-110970000D01*
X67646000Y-110930000D02*
X66440000Y-110930000D01*
X67668000Y-110890000D02*
X66440000Y-110890000D01*
X67689000Y-110850000D02*
X66440000Y-110850000D01*
X67709000Y-110810000D02*
X66440000Y-110810000D01*
X67729000Y-110770000D02*
X66440000Y-110770000D01*
X67747000Y-110730000D02*
X66440000Y-110730000D01*
X67765000Y-110690000D02*
X66440000Y-110690000D01*
X67782000Y-110650000D02*
X66440000Y-110650000D01*
X67798000Y-110610000D02*
X66440000Y-110610000D01*
X67813000Y-110570000D02*
X66440000Y-110570000D01*
X67828000Y-110530000D02*
X66440000Y-110530000D01*
X67842000Y-110490000D02*
X66440000Y-110490000D01*
X67855000Y-110450000D02*
X66440000Y-110450000D01*
X67867000Y-110410000D02*
X66440000Y-110410000D01*
X67879000Y-110370000D02*
X66440000Y-110370000D01*
X67890000Y-110330000D02*
X66440000Y-110330000D01*
X67901000Y-110290000D02*
X66440000Y-110290000D01*
X67910000Y-110250000D02*
X66440000Y-110250000D01*
X67919000Y-110210000D02*
X66440000Y-110210000D01*
X67928000Y-110170000D02*
X66440000Y-110170000D01*
X67936000Y-110130000D02*
X66440000Y-110130000D01*
X67943000Y-110090000D02*
X66440000Y-110090000D01*
X67949000Y-110050000D02*
X66440000Y-110050000D01*
X67955000Y-110010000D02*
X66440000Y-110010000D01*
X67960000Y-109970000D02*
X66440000Y-109970000D01*
X67965000Y-109930000D02*
X66440000Y-109930000D01*
X67969000Y-109890000D02*
X66440000Y-109890000D01*
X67972000Y-109850000D02*
X62828000Y-109850000D01*
X67975000Y-109810000D02*
X62825000Y-109810000D01*
X67977000Y-109770000D02*
X62823000Y-109770000D01*
X67979000Y-109730000D02*
X62821000Y-109730000D01*
X67980000Y-109650000D02*
X62820000Y-109650000D01*
X67980000Y-109690000D02*
X62820000Y-109690000D01*
X68020000Y-109650000D02*
G75*
G02*
X62780000Y-109650000I-2620000J0D01*
G01*
X62780000Y-109650000D02*
G75*
G02*
X68020000Y-109650000I2620000J0D01*
G01*
%TO.C,J7*%
X124050000Y-81050000D02*
X124050000Y-82950000D01*
X124050000Y-82950000D02*
X125900000Y-82950000D01*
X125900000Y-81050000D02*
X124050000Y-81050000D01*
X125900000Y-81100000D02*
X125900000Y-81050000D01*
X125900000Y-82950000D02*
X125900000Y-81100000D01*
%TO.C,R1*%
X84500000Y-97960000D02*
X84500000Y-98730000D01*
X84500000Y-106040000D02*
X84500000Y-105270000D01*
X83130000Y-105270000D02*
X85870000Y-105270000D01*
X85870000Y-98730000D01*
X83130000Y-98730000D01*
X83130000Y-105270000D01*
%TO.C,R10*%
X154440000Y-91000000D02*
X155210000Y-91000000D01*
X162520000Y-91000000D02*
X161750000Y-91000000D01*
X161750000Y-92370000D02*
X155210000Y-92370000D01*
X155210000Y-89630000D01*
X161750000Y-89630000D01*
X161750000Y-92370000D01*
%TO.C,J2*%
X132090000Y-79210000D02*
X155210000Y-79210000D01*
X132090000Y-88330000D02*
X132090000Y-79210000D01*
X133390000Y-80520000D02*
X141600000Y-80520000D01*
X133390000Y-87020000D02*
X133390000Y-80520000D01*
X141600000Y-80520000D02*
X141600000Y-79210000D01*
X145700000Y-79210000D02*
X145700000Y-80520000D01*
X145700000Y-80520000D02*
X153910000Y-80520000D01*
X149500000Y-77820000D02*
X150000000Y-78820000D01*
X150000000Y-78820000D02*
X150500000Y-77820000D01*
X150500000Y-77820000D02*
X149500000Y-77820000D01*
X153910000Y-80520000D02*
X153910000Y-87020000D01*
X153910000Y-87020000D02*
X133390000Y-87020000D01*
X155210000Y-79210000D02*
X155210000Y-88330000D01*
X155210000Y-88330000D02*
X132090000Y-88330000D01*
%TO.C,U17*%
D11*
X63750000Y-106400000D02*
X80750000Y-106400000D01*
X80750000Y-84400000D01*
X63750000Y-84400000D01*
X63750000Y-106400000D01*
%TO.C,U16*%
X223225000Y-90725000D02*
X243775000Y-90725000D01*
X243775000Y-111275000D01*
X223225000Y-111275000D01*
X223225000Y-90725000D01*
%TD*%
M02*
