%TF.GenerationSoftware,KiCad,Pcbnew,9.0.7*%
%TF.CreationDate,2026-01-05T23:13:08+01:00*%
%TF.ProjectId,hardware-Schematic,68617264-7761-4726-952d-536368656d61,rev?*%
%TF.SameCoordinates,Original*%
%TF.FileFunction,Soldermask,Bot*%
%TF.FilePolarity,Negative*%
%FSLAX46Y46*%
G04 Gerber Fmt 4.6, Leading zero omitted, Abs format (unit mm)*
G04 Created by KiCad (PCBNEW 9.0.7) date 2026-01-05 23:13:08*
%MOMM*%
%LPD*%
G01*
G04 APERTURE LIST*
G04 Aperture macros list*
%AMRoundRect*
0 Rectangle with rounded corners*
0 $1 Rounding radius*
0 $2 $3 $4 $5 $6 $7 $8 $9 X,Y pos of 4 corners*
0 Add a 4 corners polygon primitive as box body*
4,1,4,$2,$3,$4,$5,$6,$7,$8,$9,$2,$3,0*
0 Add four circle primitives for the rounded corners*
1,1,$1+$1,$2,$3*
1,1,$1+$1,$4,$5*
1,1,$1+$1,$6,$7*
1,1,$1+$1,$8,$9*
0 Add four rect primitives between the rounded corners*
20,1,$1+$1,$2,$3,$4,$5,0*
20,1,$1+$1,$4,$5,$6,$7,0*
20,1,$1+$1,$6,$7,$8,$9,0*
20,1,$1+$1,$8,$9,$2,$3,0*%
G04 Aperture macros list end*
%ADD10C,1.600000*%
%ADD11C,2.000000*%
%ADD12R,1.905000X2.000000*%
%ADD13O,1.905000X2.000000*%
%ADD14C,1.524000*%
%ADD15RoundRect,0.250000X0.550000X-0.550000X0.550000X0.550000X-0.550000X0.550000X-0.550000X-0.550000X0*%
%ADD16R,1.524000X1.524000*%
%ADD17C,1.400000*%
%ADD18RoundRect,0.250000X-0.550000X0.550000X-0.550000X-0.550000X0.550000X-0.550000X0.550000X0.550000X0*%
%ADD19RoundRect,0.250000X-0.600000X0.600000X-0.600000X-0.600000X0.600000X-0.600000X0.600000X0.600000X0*%
%ADD20C,1.700000*%
G04 APERTURE END LIST*
D10*
%TO.C,R7*%
X163560000Y-101500000D03*
X153400000Y-101500000D03*
%TD*%
%TO.C,R8*%
X163580000Y-98000000D03*
X153420000Y-98000000D03*
%TD*%
D11*
%TO.C,SW3*%
X137500000Y-117500000D03*
X137500000Y-111000000D03*
X142000000Y-117500000D03*
X142000000Y-111000000D03*
%TD*%
D12*
%TO.C,Q1*%
X217500000Y-89500000D03*
D13*
X214960000Y-89500000D03*
X212420000Y-89500000D03*
%TD*%
D14*
%TO.C,U2*%
X92150000Y-82770000D03*
X94690000Y-82770000D03*
X97230000Y-82770000D03*
X99770000Y-82770000D03*
X102310000Y-82770000D03*
X104850000Y-82770000D03*
%TD*%
D15*
%TO.C,U3*%
X131380000Y-100500000D03*
D10*
X133920000Y-100500000D03*
X136460000Y-100500000D03*
X139000000Y-100500000D03*
X141540000Y-100500000D03*
X144080000Y-100500000D03*
X146620000Y-100500000D03*
X146620000Y-92880000D03*
X144080000Y-92880000D03*
X141540000Y-92880000D03*
X139000000Y-92880000D03*
X136460000Y-92880000D03*
X133920000Y-92880000D03*
X131380000Y-92880000D03*
%TD*%
%TO.C,J4*%
X195580000Y-83500000D03*
X185420000Y-83500000D03*
%TD*%
%TO.C,C1*%
X116000000Y-113620000D03*
X101000000Y-113620000D03*
%TD*%
D15*
%TO.C,U1*%
X90800000Y-107120000D03*
D10*
X93340000Y-107120000D03*
X95880000Y-107120000D03*
X98420000Y-107120000D03*
X100960000Y-107120000D03*
X103500000Y-107120000D03*
X106040000Y-107120000D03*
X108580000Y-107120000D03*
X111120000Y-107120000D03*
X113660000Y-107120000D03*
X116200000Y-107120000D03*
X118740000Y-107120000D03*
X121280000Y-107120000D03*
X123820000Y-107120000D03*
X123820000Y-99500000D03*
X121280000Y-99500000D03*
X118740000Y-99500000D03*
X116200000Y-99500000D03*
X113660000Y-99500000D03*
X111120000Y-99500000D03*
X108580000Y-99500000D03*
X106040000Y-99500000D03*
X103500000Y-99500000D03*
X100960000Y-99500000D03*
X98420000Y-99500000D03*
X95880000Y-99500000D03*
X93340000Y-99500000D03*
X90800000Y-99500000D03*
%TD*%
D15*
%TO.C,U15*%
X185800000Y-103000000D03*
D10*
X188340000Y-103000000D03*
X190880000Y-103000000D03*
X193420000Y-103000000D03*
X195960000Y-103000000D03*
X198500000Y-103000000D03*
X201040000Y-103000000D03*
X201040000Y-95380000D03*
X198500000Y-95380000D03*
X195960000Y-95380000D03*
X193420000Y-95380000D03*
X190880000Y-95380000D03*
X188340000Y-95380000D03*
X185800000Y-95380000D03*
%TD*%
%TO.C,R9*%
X163560000Y-94500000D03*
X153400000Y-94500000D03*
%TD*%
%TO.C,R11*%
X172670000Y-83500000D03*
X182830000Y-83500000D03*
%TD*%
%TO.C,R13*%
X209420000Y-98500000D03*
X219580000Y-98500000D03*
%TD*%
%TO.C,R6*%
X163560000Y-105000000D03*
X153400000Y-105000000D03*
%TD*%
D16*
%TO.C,J1*%
X56400000Y-102250000D03*
D14*
X56400000Y-104790000D03*
%TD*%
D17*
%TO.C,J5*%
X127500000Y-92500000D03*
%TD*%
D18*
%TO.C,C6*%
X73900000Y-108400000D03*
D10*
X73900000Y-110900000D03*
%TD*%
D14*
%TO.C,J3*%
X220550000Y-109890000D03*
X220550000Y-107350000D03*
%TD*%
%TO.C,U14*%
X152880000Y-117500000D03*
X155420000Y-117500000D03*
X157960000Y-117500000D03*
X160500000Y-117500000D03*
X163040000Y-117500000D03*
X165580000Y-117500000D03*
%TD*%
D10*
%TO.C,C2*%
X116000000Y-93120000D03*
X101000000Y-93120000D03*
%TD*%
D17*
%TO.C,J8*%
X125000000Y-88400000D03*
%TD*%
D10*
%TO.C,R12*%
X209420000Y-101500000D03*
X219580000Y-101500000D03*
%TD*%
D17*
%TO.C,J6*%
X127500000Y-111500000D03*
%TD*%
D10*
%TO.C,C3*%
X102500000Y-86500000D03*
X107500000Y-86500000D03*
%TD*%
D11*
%TO.C,SW2*%
X85750000Y-111750000D03*
X92250000Y-111750000D03*
X85750000Y-116250000D03*
X92250000Y-116250000D03*
%TD*%
D18*
%TO.C,C7*%
X65400000Y-108400000D03*
D10*
X65400000Y-110900000D03*
%TD*%
D17*
%TO.C,J7*%
X125000000Y-82000000D03*
%TD*%
D10*
%TO.C,R1*%
X84500000Y-107080000D03*
X84500000Y-96920000D03*
%TD*%
%TO.C,R10*%
X163560000Y-91000000D03*
X153400000Y-91000000D03*
%TD*%
D19*
%TO.C,J2*%
X150000000Y-82500000D03*
D20*
X150000000Y-85040000D03*
X147460000Y-82500000D03*
X147460000Y-85040000D03*
X144920000Y-82500000D03*
X144920000Y-85040000D03*
X142380000Y-82500000D03*
X142380000Y-85040000D03*
X139840000Y-82500000D03*
X139840000Y-85040000D03*
X137300000Y-82500000D03*
X137300000Y-85040000D03*
%TD*%
D14*
%TO.C,U17*%
X65500000Y-104650000D03*
X68000000Y-104650000D03*
X76500000Y-104650000D03*
X79000000Y-104650000D03*
X79000000Y-86150000D03*
X76500000Y-86150000D03*
X68000000Y-86150000D03*
X65500000Y-86150000D03*
%TD*%
D16*
%TO.C,U16*%
X224495000Y-92110000D03*
D14*
X224495000Y-94650000D03*
X224495000Y-97190000D03*
X224495000Y-99730000D03*
X224495000Y-102270000D03*
X224495000Y-104810000D03*
X224495000Y-107350000D03*
X224495000Y-109890000D03*
X242505000Y-109890000D03*
X242505000Y-107350000D03*
X242505000Y-104810000D03*
X242505000Y-102270000D03*
X242505000Y-99730000D03*
X242505000Y-97190000D03*
X242505000Y-94650000D03*
D16*
X242505000Y-92110000D03*
%TD*%
M02*
