M48
; DRILL file {KiCad 9.0.7} date 2026-01-05T23:14:10+0100
; FORMAT={-:-/ absolute / metric / decimal}
; #@! TF.CreationDate,2026-01-05T23:14:10+01:00
; #@! TF.GenerationSoftware,Kicad,Pcbnew,9.0.7
; #@! TF.FileFunction,Plated,1,2,PTH
FMAT,2
METRIC
; #@! TA.AperFunction,Plated,PTH,ComponentDrill
T1C0.700
; #@! TA.AperFunction,Plated,PTH,ComponentDrill
T2C0.762
; #@! TA.AperFunction,Plated,PTH,ComponentDrill
T3C0.800
; #@! TA.AperFunction,Plated,PTH,ComponentDrill
T4C1.000
; #@! TA.AperFunction,Plated,PTH,ComponentDrill
T5C1.100
; #@! TA.AperFunction,Plated,PTH,ComponentDrill
T6C1.200
%
G90
G05
T1
X125.0Y-82.0
X125.0Y-88.4
X127.5Y-92.5
X127.5Y-111.5
T2
X56.4Y-102.25
X56.4Y-104.79
X65.5Y-86.15
X65.5Y-104.65
X68.0Y-86.15
X68.0Y-104.65
X76.5Y-86.15
X76.5Y-104.65
X79.0Y-86.15
X79.0Y-104.65
X92.15Y-82.77
X94.69Y-82.77
X97.23Y-82.77
X99.77Y-82.77
X102.31Y-82.77
X104.85Y-82.77
X152.88Y-117.5
X155.42Y-117.5
X157.96Y-117.5
X160.5Y-117.5
X163.04Y-117.5
X165.58Y-117.5
X220.55Y-107.35
X220.55Y-109.89
X224.495Y-92.11
X224.495Y-94.65
X224.495Y-97.19
X224.495Y-99.73
X224.495Y-102.27
X224.495Y-104.81
X224.495Y-107.35
X224.495Y-109.89
X242.505Y-92.11
X242.505Y-94.65
X242.505Y-97.19
X242.505Y-99.73
X242.505Y-102.27
X242.505Y-104.81
X242.505Y-107.35
X242.505Y-109.89
T3
X65.4Y-108.4
X65.4Y-110.9
X73.9Y-108.4
X73.9Y-110.9
X84.5Y-96.92
X84.5Y-107.08
X90.8Y-99.5
X90.8Y-107.12
X93.34Y-99.5
X93.34Y-107.12
X95.88Y-99.5
X95.88Y-107.12
X98.42Y-99.5
X98.42Y-107.12
X100.96Y-99.5
X100.96Y-107.12
X101.0Y-93.12
X101.0Y-113.62
X102.5Y-86.5
X103.5Y-99.5
X103.5Y-107.12
X106.04Y-99.5
X106.04Y-107.12
X107.5Y-86.5
X108.58Y-99.5
X108.58Y-107.12
X111.12Y-99.5
X111.12Y-107.12
X113.66Y-99.5
X113.66Y-107.12
X116.0Y-93.12
X116.0Y-113.62
X116.2Y-99.5
X116.2Y-107.12
X118.74Y-99.5
X118.74Y-107.12
X121.28Y-99.5
X121.28Y-107.12
X123.82Y-99.5
X123.82Y-107.12
X131.38Y-92.88
X131.38Y-100.5
X133.92Y-92.88
X133.92Y-100.5
X136.46Y-92.88
X136.46Y-100.5
X139.0Y-92.88
X139.0Y-100.5
X141.54Y-92.88
X141.54Y-100.5
X144.08Y-92.88
X144.08Y-100.5
X146.62Y-92.88
X146.62Y-100.5
X153.4Y-91.0
X153.4Y-94.5
X153.4Y-101.5
X153.4Y-105.0
X153.42Y-98.0
X163.56Y-91.0
X163.56Y-94.5
X163.56Y-101.5
X163.56Y-105.0
X163.58Y-98.0
X172.67Y-83.5
X182.83Y-83.5
X185.42Y-83.5
X185.8Y-95.38
X185.8Y-103.0
X188.34Y-95.38
X188.34Y-103.0
X190.88Y-95.38
X190.88Y-103.0
X193.42Y-95.38
X193.42Y-103.0
X195.58Y-83.5
X195.96Y-95.38
X195.96Y-103.0
X198.5Y-95.38
X198.5Y-103.0
X201.04Y-95.38
X201.04Y-103.0
X209.42Y-98.5
X209.42Y-101.5
X219.58Y-98.5
X219.58Y-101.5
T4
X137.3Y-82.5
X137.3Y-85.04
X139.84Y-82.5
X139.84Y-85.04
X142.38Y-82.5
X142.38Y-85.04
X144.92Y-82.5
X144.92Y-85.04
X147.46Y-82.5
X147.46Y-85.04
X150.0Y-82.5
X150.0Y-85.04
T5
X85.75Y-111.75
X85.75Y-116.25
X92.25Y-111.75
X92.25Y-116.25
X137.5Y-111.0
X137.5Y-117.5
X142.0Y-111.0
X142.0Y-117.5
T6
X212.42Y-89.5
X214.96Y-89.5
X217.5Y-89.5
M30
