%TF.GenerationSoftware,KiCad,Pcbnew,9.0.7*%
%TF.CreationDate,2026-01-05T23:13:07+01:00*%
%TF.ProjectId,hardware-Schematic,68617264-7761-4726-952d-536368656d61,rev?*%
%TF.SameCoordinates,Original*%
%TF.FileFunction,Copper,L1,Top*%
%TF.FilePolarity,Positive*%
%FSLAX46Y46*%
G04 Gerber Fmt 4.6, Leading zero omitted, Abs format (unit mm)*
G04 Created by KiCad (PCBNEW 9.0.7) date 2026-01-05 23:13:07*
%MOMM*%
%LPD*%
G01*
G04 APERTURE LIST*
G04 Aperture macros list*
%AMRoundRect*
0 Rectangle with rounded corners*
0 $1 Rounding radius*
0 $2 $3 $4 $5 $6 $7 $8 $9 X,Y pos of 4 corners*
0 Add a 4 corners polygon primitive as box body*
4,1,4,$2,$3,$4,$5,$6,$7,$8,$9,$2,$3,0*
0 Add four circle primitives for the rounded corners*
1,1,$1+$1,$2,$3*
1,1,$1+$1,$4,$5*
1,1,$1+$1,$6,$7*
1,1,$1+$1,$8,$9*
0 Add four rect primitives between the rounded corners*
20,1,$1+$1,$2,$3,$4,$5,0*
20,1,$1+$1,$4,$5,$6,$7,0*
20,1,$1+$1,$6,$7,$8,$9,0*
20,1,$1+$1,$8,$9,$2,$3,0*%
G04 Aperture macros list end*
%TA.AperFunction,ComponentPad*%
%ADD10C,1.600000*%
%TD*%
%TA.AperFunction,ComponentPad*%
%ADD11C,2.000000*%
%TD*%
%TA.AperFunction,ComponentPad*%
%ADD12R,1.905000X2.000000*%
%TD*%
%TA.AperFunction,ComponentPad*%
%ADD13O,1.905000X2.000000*%
%TD*%
%TA.AperFunction,ComponentPad*%
%ADD14C,1.524000*%
%TD*%
%TA.AperFunction,ComponentPad*%
%ADD15RoundRect,0.250000X0.550000X-0.550000X0.550000X0.550000X-0.550000X0.550000X-0.550000X-0.550000X0*%
%TD*%
%TA.AperFunction,ComponentPad*%
%ADD16R,1.524000X1.524000*%
%TD*%
%TA.AperFunction,ComponentPad*%
%ADD17C,1.400000*%
%TD*%
%TA.AperFunction,ComponentPad*%
%ADD18RoundRect,0.250000X-0.550000X0.550000X-0.550000X-0.550000X0.550000X-0.550000X0.550000X0.550000X0*%
%TD*%
%TA.AperFunction,ComponentPad*%
%ADD19RoundRect,0.250000X-0.600000X0.600000X-0.600000X-0.600000X0.600000X-0.600000X0.600000X0.600000X0*%
%TD*%
%TA.AperFunction,ComponentPad*%
%ADD20C,1.700000*%
%TD*%
%TA.AperFunction,Conductor*%
%ADD21C,0.200000*%
%TD*%
G04 APERTURE END LIST*
D10*
%TO.P,R7,1*%
%TO.N,GND*%
X163560000Y-101500000D03*
%TO.P,R7,2*%
%TO.N,Net-(U1-PD2)*%
X153400000Y-101500000D03*
%TD*%
%TO.P,R8,1*%
%TO.N,GND*%
X163580000Y-98000000D03*
%TO.P,R8,2*%
%TO.N,Net-(U1-PD6)*%
X153420000Y-98000000D03*
%TD*%
D11*
%TO.P,SW3,1,C*%
%TO.N,Net-(SW2A-D)*%
X137500000Y-117500000D03*
X137500000Y-111000000D03*
%TO.P,SW3,2,D*%
%TO.N,Net-(SW3A-D)*%
X142000000Y-117500000D03*
X142000000Y-111000000D03*
%TD*%
D12*
%TO.P,Q1,1,D*%
%TO.N,Net-(Q1-D)*%
X217500000Y-89500000D03*
D13*
%TO.P,Q1,2,G*%
%TO.N,Net-(Q1-G)*%
X214960000Y-89500000D03*
%TO.P,Q1,3,S*%
%TO.N,+5V*%
X212420000Y-89500000D03*
%TD*%
D14*
%TO.P,U2,1,32K*%
%TO.N,unconnected-(U2-32K-Pad1)*%
X92150000Y-82770000D03*
%TO.P,U2,2,SQW*%
%TO.N,Net-(U1-PC3)*%
X94690000Y-82770000D03*
%TO.P,U2,3,SCL*%
%TO.N,Net-(U1-PC5)*%
X97230000Y-82770000D03*
%TO.P,U2,4,SDA*%
%TO.N,Net-(U1-PC4)*%
X99770000Y-82770000D03*
%TO.P,U2,5,VCC*%
%TO.N,+3.3V*%
X102310000Y-82770000D03*
%TO.P,U2,6,GND*%
%TO.N,GND*%
X104850000Y-82770000D03*
%TD*%
D15*
%TO.P,U3,1*%
%TO.N,GND*%
X131380000Y-100500000D03*
D10*
%TO.P,U3,2*%
%TO.N,Net-(U1-PB2)*%
X133920000Y-100500000D03*
%TO.P,U3,3*%
%TO.N,Net-(J2-Pad8)*%
X136460000Y-100500000D03*
%TO.P,U3,4*%
%TO.N,GND*%
X139000000Y-100500000D03*
%TO.P,U3,5*%
%TO.N,Net-(U1-PB3)*%
X141540000Y-100500000D03*
%TO.P,U3,6*%
%TO.N,Net-(J2-Pad9)*%
X144080000Y-100500000D03*
%TO.P,U3,7,GND*%
%TO.N,GND*%
X146620000Y-100500000D03*
%TO.P,U3,8*%
%TO.N,Net-(J2-Pad10)*%
X146620000Y-92880000D03*
%TO.P,U3,9*%
%TO.N,Net-(U1-PB4)*%
X144080000Y-92880000D03*
%TO.P,U3,10*%
%TO.N,GND*%
X141540000Y-92880000D03*
%TO.P,U3,11*%
%TO.N,Net-(J2-Pad11)*%
X139000000Y-92880000D03*
%TO.P,U3,12*%
%TO.N,Net-(U1-PB5)*%
X136460000Y-92880000D03*
%TO.P,U3,13*%
%TO.N,GND*%
X133920000Y-92880000D03*
%TO.P,U3,14,VCC*%
%TO.N,+5V*%
X131380000Y-92880000D03*
%TD*%
%TO.P,J4,1,Pin_1*%
%TO.N,+3.3V*%
X195580000Y-83500000D03*
%TO.P,J4,2,Pin_2*%
%TO.N,Net-(J4-Pin_2)*%
X185420000Y-83500000D03*
%TD*%
%TO.P,C1,1*%
%TO.N,GND*%
X116000000Y-113620000D03*
%TO.P,C1,2*%
%TO.N,+3.3V*%
X101000000Y-113620000D03*
%TD*%
D15*
%TO.P,U1,1,~{RESET}/PC6*%
%TO.N,Net-(SW2A-D)*%
X90800000Y-107120000D03*
D10*
%TO.P,U1,2,PD0*%
%TO.N,Net-(U1-PD0)*%
X93340000Y-107120000D03*
%TO.P,U1,3,PD1*%
%TO.N,Net-(U1-PD1)*%
X95880000Y-107120000D03*
%TO.P,U1,4,PD2*%
%TO.N,Net-(U1-PD2)*%
X98420000Y-107120000D03*
%TO.P,U1,5,PD3*%
%TO.N,Net-(U1-PD3)*%
X100960000Y-107120000D03*
%TO.P,U1,6,PD4*%
%TO.N,Net-(J4-Pin_2)*%
X103500000Y-107120000D03*
%TO.P,U1,7,VCC*%
%TO.N,+3.3V*%
X106040000Y-107120000D03*
%TO.P,U1,8,GND*%
%TO.N,GND*%
X108580000Y-107120000D03*
%TO.P,U1,9,XTAL1/PB6*%
%TO.N,Net-(U1-XTAL1{slash}PB6)*%
X111120000Y-107120000D03*
%TO.P,U1,10,XTAL2/PB7*%
%TO.N,unconnected-(U1-XTAL2{slash}PB7-Pad10)*%
X113660000Y-107120000D03*
%TO.P,U1,11,PD5*%
%TO.N,Net-(U1-PD5)*%
X116200000Y-107120000D03*
%TO.P,U1,12,PD6*%
%TO.N,Net-(U1-PD6)*%
X118740000Y-107120000D03*
%TO.P,U1,13,PD7*%
%TO.N,Net-(U1-PD7)*%
X121280000Y-107120000D03*
%TO.P,U1,14,PB0*%
%TO.N,Net-(U1-PB0)*%
X123820000Y-107120000D03*
%TO.P,U1,15,PB1*%
%TO.N,Net-(U1-PB1)*%
X123820000Y-99500000D03*
%TO.P,U1,16,PB2*%
%TO.N,Net-(U1-PB2)*%
X121280000Y-99500000D03*
%TO.P,U1,17,PB3*%
%TO.N,Net-(U1-PB3)*%
X118740000Y-99500000D03*
%TO.P,U1,18,PB4*%
%TO.N,Net-(U1-PB4)*%
X116200000Y-99500000D03*
%TO.P,U1,19,PB5*%
%TO.N,Net-(U1-PB5)*%
X113660000Y-99500000D03*
%TO.P,U1,20,AVCC*%
%TO.N,+3.3V*%
X111120000Y-99500000D03*
%TO.P,U1,21,AREF*%
%TO.N,unconnected-(U1-AREF-Pad21)*%
X108580000Y-99500000D03*
%TO.P,U1,22,GND*%
%TO.N,GND*%
X106040000Y-99500000D03*
%TO.P,U1,23,PC0*%
%TO.N,unconnected-(U1-PC0-Pad23)*%
X103500000Y-99500000D03*
%TO.P,U1,24,PC1*%
%TO.N,unconnected-(U1-PC1-Pad24)*%
X100960000Y-99500000D03*
%TO.P,U1,25,PC2*%
%TO.N,unconnected-(U1-PC2-Pad25)*%
X98420000Y-99500000D03*
%TO.P,U1,26,PC3*%
%TO.N,Net-(U1-PC3)*%
X95880000Y-99500000D03*
%TO.P,U1,27,PC4*%
%TO.N,Net-(U1-PC4)*%
X93340000Y-99500000D03*
%TO.P,U1,28,PC5*%
%TO.N,Net-(U1-PC5)*%
X90800000Y-99500000D03*
%TD*%
D15*
%TO.P,U15,1*%
%TO.N,unconnected-(U15-Pad1)*%
X185800000Y-103000000D03*
D10*
%TO.P,U15,2*%
%TO.N,unconnected-(U15-Pad2)*%
X188340000Y-103000000D03*
%TO.P,U15,3*%
%TO.N,unconnected-(U15-Pad3)*%
X190880000Y-103000000D03*
%TO.P,U15,4*%
%TO.N,unconnected-(U15-Pad4)*%
X193420000Y-103000000D03*
%TO.P,U15,5*%
%TO.N,unconnected-(U15-Pad5)*%
X195960000Y-103000000D03*
%TO.P,U15,6*%
%TO.N,unconnected-(U15-Pad6)*%
X198500000Y-103000000D03*
%TO.P,U15,7,GND*%
%TO.N,GND*%
X201040000Y-103000000D03*
%TO.P,U15,8*%
%TO.N,unconnected-(U15-Pad8)*%
X201040000Y-95380000D03*
%TO.P,U15,9*%
%TO.N,unconnected-(U15-Pad9)*%
X198500000Y-95380000D03*
%TO.P,U15,10*%
%TO.N,unconnected-(U15-Pad10)*%
X195960000Y-95380000D03*
%TO.P,U15,11*%
%TO.N,Net-(Q1-G)*%
X193420000Y-95380000D03*
%TO.P,U15,12*%
%TO.N,Net-(U1-XTAL1{slash}PB6)*%
X190880000Y-95380000D03*
%TO.P,U15,13*%
%TO.N,GND*%
X188340000Y-95380000D03*
%TO.P,U15,14,VCC*%
%TO.N,+5V*%
X185800000Y-95380000D03*
%TD*%
%TO.P,R9,1*%
%TO.N,GND*%
X163560000Y-94500000D03*
%TO.P,R9,2*%
%TO.N,Net-(U1-PD5)*%
X153400000Y-94500000D03*
%TD*%
%TO.P,R11,1*%
%TO.N,GND*%
X172670000Y-83500000D03*
%TO.P,R11,2*%
%TO.N,Net-(J4-Pin_2)*%
X182830000Y-83500000D03*
%TD*%
%TO.P,R13,1*%
%TO.N,Net-(U1-PB1)*%
X209420000Y-98500000D03*
%TO.P,R13,2*%
%TO.N,Net-(U16-RX)*%
X219580000Y-98500000D03*
%TD*%
%TO.P,R6,1*%
%TO.N,GND*%
X163560000Y-105000000D03*
%TO.P,R6,2*%
%TO.N,Net-(U1-PD7)*%
X153400000Y-105000000D03*
%TD*%
D16*
%TO.P,J1,1,Pin_1*%
%TO.N,+5V*%
X56400000Y-102250000D03*
D14*
%TO.P,J1,2,Pin_2*%
%TO.N,GND*%
X56400000Y-104790000D03*
%TD*%
D17*
%TO.P,J5,1,Pin_1*%
%TO.N,+3.3V*%
X127500000Y-92500000D03*
%TD*%
D18*
%TO.P,C6,1*%
%TO.N,+5V*%
X73900000Y-108400000D03*
D10*
%TO.P,C6,2*%
%TO.N,GND*%
X73900000Y-110900000D03*
%TD*%
D14*
%TO.P,J3,1,Pin_1*%
%TO.N,Net-(J3-Pin_1)*%
X220550000Y-109890000D03*
%TO.P,J3,2,Pin_2*%
%TO.N,Net-(J3-Pin_2)*%
X220550000Y-107350000D03*
%TD*%
%TO.P,U14,1,DTR*%
%TO.N,Net-(SW3A-D)*%
X152880000Y-117500000D03*
%TO.P,U14,2,RX*%
%TO.N,Net-(U1-PD1)*%
X155420000Y-117500000D03*
%TO.P,U14,3,TX*%
%TO.N,Net-(U1-PD0)*%
X157960000Y-117500000D03*
%TO.P,U14,4,VCC*%
%TO.N,unconnected-(U14-VCC-Pad4)*%
X160500000Y-117500000D03*
%TO.P,U14,5,CTS*%
%TO.N,unconnected-(U14-CTS-Pad5)*%
X163040000Y-117500000D03*
%TO.P,U14,6,GND*%
%TO.N,GND*%
X165580000Y-117500000D03*
%TD*%
D10*
%TO.P,C2,1*%
%TO.N,+3.3V*%
X116000000Y-93120000D03*
%TO.P,C2,2*%
%TO.N,GND*%
X101000000Y-93120000D03*
%TD*%
D17*
%TO.P,J8,1,Pin_1*%
%TO.N,GND*%
X125000000Y-88400000D03*
%TD*%
D10*
%TO.P,R12,1*%
%TO.N,Net-(U1-PB0)*%
X209420000Y-101500000D03*
%TO.P,R12,2*%
%TO.N,Net-(U16-TX)*%
X219580000Y-101500000D03*
%TD*%
D17*
%TO.P,J6,1,Pin_1*%
%TO.N,+3.3V*%
X127500000Y-111500000D03*
%TD*%
D10*
%TO.P,C3,1*%
%TO.N,+3.3V*%
X102500000Y-86500000D03*
%TO.P,C3,2*%
%TO.N,GND*%
X107500000Y-86500000D03*
%TD*%
D11*
%TO.P,SW2,1,C*%
%TO.N,GND*%
X85750000Y-111750000D03*
X92250000Y-111750000D03*
%TO.P,SW2,2,D*%
%TO.N,Net-(SW2A-D)*%
X85750000Y-116250000D03*
X92250000Y-116250000D03*
%TD*%
D18*
%TO.P,C7,1*%
%TO.N,+5V*%
X65400000Y-108400000D03*
D10*
%TO.P,C7,2*%
%TO.N,GND*%
X65400000Y-110900000D03*
%TD*%
D17*
%TO.P,J7,1,Pin_1*%
%TO.N,GND*%
X125000000Y-82000000D03*
%TD*%
D10*
%TO.P,R1,1*%
%TO.N,Net-(SW2A-D)*%
X84500000Y-107080000D03*
%TO.P,R1,2*%
%TO.N,+3.3V*%
X84500000Y-96920000D03*
%TD*%
%TO.P,R10,1*%
%TO.N,GND*%
X163560000Y-91000000D03*
%TO.P,R10,2*%
%TO.N,Net-(U1-PD3)*%
X153400000Y-91000000D03*
%TD*%
D19*
%TO.P,J2,1*%
%TO.N,Net-(U1-PD6)*%
X150000000Y-82500000D03*
D20*
%TO.P,J2,2*%
%TO.N,Net-(U1-PD5)*%
X150000000Y-85040000D03*
%TO.P,J2,3*%
%TO.N,Net-(U1-PD2)*%
X147460000Y-82500000D03*
%TO.P,J2,4*%
%TO.N,Net-(U1-PD3)*%
X147460000Y-85040000D03*
%TO.P,J2,5*%
%TO.N,Net-(U1-PD7)*%
X144920000Y-82500000D03*
%TO.P,J2,6*%
%TO.N,+3.3V*%
X144920000Y-85040000D03*
%TO.P,J2,7*%
%TO.N,+5V*%
X142380000Y-82500000D03*
%TO.P,J2,8*%
%TO.N,Net-(J2-Pad8)*%
X142380000Y-85040000D03*
%TO.P,J2,9*%
%TO.N,Net-(J2-Pad9)*%
X139840000Y-82500000D03*
%TO.P,J2,10*%
%TO.N,Net-(J2-Pad10)*%
X139840000Y-85040000D03*
%TO.P,J2,11*%
%TO.N,Net-(J2-Pad11)*%
X137300000Y-82500000D03*
%TO.P,J2,12*%
%TO.N,GND*%
X137300000Y-85040000D03*
%TD*%
D14*
%TO.P,U17,1,IN+*%
%TO.N,+5V*%
X65500000Y-104650000D03*
%TO.P,U17,2,IN+*%
%TO.N,unconnected-(U17-IN+-Pad2)*%
X68000000Y-104650000D03*
%TO.P,U17,3,IN-*%
%TO.N,unconnected-(U17-IN--Pad3)*%
X76500000Y-104650000D03*
%TO.P,U17,4,IN-*%
%TO.N,GND*%
X79000000Y-104650000D03*
%TO.P,U17,5,OUT-*%
X79000000Y-86150000D03*
%TO.P,U17,6,OUT-*%
%TO.N,unconnected-(U17-OUT--Pad6)*%
X76500000Y-86150000D03*
%TO.P,U17,7,OUT+*%
%TO.N,unconnected-(U17-OUT+-Pad7)*%
X68000000Y-86150000D03*
%TO.P,U17,8,OUT+*%
%TO.N,+3.3V*%
X65500000Y-86150000D03*
%TD*%
D16*
%TO.P,U16,1,VCC*%
%TO.N,Net-(Q1-D)*%
X224495000Y-92110000D03*
D14*
%TO.P,U16,2,RX*%
%TO.N,Net-(U16-RX)*%
X224495000Y-94650000D03*
%TO.P,U16,3,TX*%
%TO.N,Net-(U16-TX)*%
X224495000Y-97190000D03*
%TO.P,U16,4,DAC_R*%
%TO.N,unconnected-(U16-DAC_R-Pad4)*%
X224495000Y-99730000D03*
%TO.P,U16,5,DAC_L*%
%TO.N,unconnected-(U16-DAC_L-Pad5)*%
X224495000Y-102270000D03*
%TO.P,U16,6,SPK_1*%
%TO.N,Net-(J3-Pin_2)*%
X224495000Y-104810000D03*
%TO.P,U16,7,GND*%
%TO.N,GND*%
X224495000Y-107350000D03*
%TO.P,U16,8,SPK_2*%
%TO.N,Net-(J3-Pin_1)*%
X224495000Y-109890000D03*
%TO.P,U16,9,IO_1*%
%TO.N,unconnected-(U16-IO_1-Pad9)*%
X242505000Y-109890000D03*
%TO.P,U16,10,GND*%
%TO.N,unconnected-(U16-GND-Pad10)*%
X242505000Y-107350000D03*
%TO.P,U16,11,IO_2*%
%TO.N,unconnected-(U16-IO_2-Pad11)*%
X242505000Y-104810000D03*
%TO.P,U16,12,ADKEY_1*%
%TO.N,unconnected-(U16-ADKEY_1-Pad12)*%
X242505000Y-102270000D03*
%TO.P,U16,13,ADKEY_2*%
%TO.N,unconnected-(U16-ADKEY_2-Pad13)*%
X242505000Y-99730000D03*
%TO.P,U16,14,USB+*%
%TO.N,unconnected-(U16-USB+-Pad14)*%
X242505000Y-97190000D03*
%TO.P,U16,15,USB6*%
%TO.N,unconnected-(U16-USB6-Pad15)*%
X242505000Y-94650000D03*
D16*
%TO.P,U16,16,BUSY*%
%TO.N,unconnected-(U16-BUSY-Pad16)*%
X242505000Y-92110000D03*
%TD*%
D21*
%TO.N,+5V*%
X139825000Y-117664892D02*
X141561108Y-119401000D01*
X139825000Y-110825000D02*
X139825000Y-117664892D01*
X142380000Y-82500000D02*
X142380000Y-82855000D01*
X136000000Y-109500000D02*
X138500000Y-109500000D01*
X128500000Y-117000000D02*
X136000000Y-109500000D01*
X97500000Y-117000000D02*
X128500000Y-117000000D01*
X94450000Y-113950000D02*
X97500000Y-117000000D01*
X94450000Y-110202900D02*
X94450000Y-113950000D01*
X100500000Y-101000000D02*
X99500000Y-102000000D01*
X143650000Y-84125000D02*
X143650000Y-85775000D01*
X92100000Y-106100000D02*
X92100000Y-107852900D01*
X138500000Y-109500000D02*
X139825000Y-110825000D01*
X143650000Y-85775000D02*
X149000000Y-91125000D01*
X142380000Y-82855000D02*
X143650000Y-84125000D01*
X126500000Y-98000000D02*
X123350000Y-98000000D01*
X149000000Y-91125000D02*
X149000000Y-101900000D01*
X224425000Y-87000000D02*
X214920000Y-87000000D01*
X99500000Y-102000000D02*
X96200000Y-102000000D01*
X149000000Y-101900000D02*
X147900000Y-103000000D01*
X214920000Y-87000000D02*
X212420000Y-89500000D01*
X96200000Y-102000000D02*
X92100000Y-106100000D01*
X147900000Y-103000000D02*
X131500000Y-103000000D01*
X131500000Y-103000000D02*
X126500000Y-98000000D01*
X92100000Y-107852900D02*
X94450000Y-110202900D01*
X141561108Y-119401000D02*
X222099000Y-119401000D01*
X123350000Y-98000000D02*
X122550000Y-98800000D01*
X222099000Y-119401000D02*
X228425000Y-113075000D01*
X122550000Y-98800000D02*
X122550000Y-100300000D01*
X228425000Y-113075000D02*
X228425000Y-91000000D01*
X122550000Y-100300000D02*
X121850000Y-101000000D01*
X121850000Y-101000000D02*
X100500000Y-101000000D01*
X228425000Y-91000000D02*
X224425000Y-87000000D01*
%TO.N,Net-(U16-TX)*%
X224495000Y-97190000D02*
X220185000Y-101500000D01*
X220185000Y-101500000D02*
X219580000Y-101500000D01*
%TO.N,Net-(U16-RX)*%
X224495000Y-94650000D02*
X220645000Y-98500000D01*
X220645000Y-98500000D02*
X219580000Y-98500000D01*
%TO.N,Net-(Q1-D)*%
X217500000Y-89500000D02*
X221885000Y-89500000D01*
X221885000Y-89500000D02*
X224495000Y-92110000D01*
%TO.N,GND*%
X214400000Y-112523000D02*
X225302000Y-112523000D01*
X225302000Y-112523000D02*
X225900000Y-111925000D01*
X225900000Y-108755000D02*
X224495000Y-107350000D01*
X225900000Y-111925000D02*
X225900000Y-108755000D01*
X210563000Y-112523000D02*
X214400000Y-112523000D01*
%TO.N,Net-(J3-Pin_2)*%
X220550000Y-107350000D02*
X221955000Y-107350000D01*
X221955000Y-107350000D02*
X224495000Y-104810000D01*
%TO.N,Net-(J3-Pin_1)*%
X220550000Y-109890000D02*
X224495000Y-109890000D01*
%TO.N,+5V*%
X63500000Y-101650000D02*
X63500000Y-102250000D01*
X56400000Y-102250000D02*
X63500000Y-102250000D01*
X63500000Y-102250000D02*
X63500000Y-102650000D01*
%TO.N,GND*%
X56400000Y-104790000D02*
X59290000Y-104790000D01*
X59290000Y-104790000D02*
X65400000Y-110900000D01*
%TO.N,+5V*%
X65500000Y-104650000D02*
X65500000Y-108300000D01*
X65500000Y-108300000D02*
X65400000Y-108400000D01*
X63500000Y-85250000D02*
X63500000Y-101650000D01*
X63500000Y-102650000D02*
X65500000Y-104650000D01*
%TO.N,GND*%
X79000000Y-110100000D02*
X84100000Y-110100000D01*
X84100000Y-110100000D02*
X85750000Y-111750000D01*
X73900000Y-110900000D02*
X78200000Y-110900000D01*
X78200000Y-110900000D02*
X79000000Y-110100000D01*
X79000000Y-110100000D02*
X79000000Y-104650000D01*
X79000000Y-104650000D02*
X82150000Y-101500000D01*
X82150000Y-101500000D02*
X98500000Y-101500000D01*
X98500000Y-101500000D02*
X99700000Y-100300000D01*
X99700000Y-100300000D02*
X99700000Y-95760000D01*
X99700000Y-95760000D02*
X101000000Y-94460000D01*
X79000000Y-104650000D02*
X79000000Y-86150000D01*
%TO.N,+5V*%
X197500000Y-81716450D02*
X197500000Y-85500000D01*
X63500000Y-85250000D02*
X69750000Y-79000000D01*
X69750000Y-79000000D02*
X194783550Y-79000000D01*
X194783550Y-79000000D02*
X197500000Y-81716450D01*
X197500000Y-85500000D02*
X193500000Y-89500000D01*
X193500000Y-89500000D02*
X193000000Y-89500000D01*
%TO.N,+3.3V*%
X65500000Y-86125000D02*
X70625000Y-81000000D01*
X70625000Y-81000000D02*
X101020000Y-81000000D01*
X101020000Y-81000000D02*
X102310000Y-82290000D01*
X102310000Y-82290000D02*
X102310000Y-82770000D01*
%TO.N,GND*%
X201040000Y-103000000D02*
X210563000Y-112523000D01*
X197000000Y-85000000D02*
X197000000Y-82000000D01*
X188340000Y-95380000D02*
X187239000Y-96481000D01*
X207675000Y-100000000D02*
X204040000Y-100000000D01*
X207000000Y-99000000D02*
X209000000Y-97000000D01*
X131380000Y-100500000D02*
X132880000Y-102000000D01*
X163560000Y-98440000D02*
X163560000Y-101500000D01*
X138300000Y-94200000D02*
X137750000Y-93650000D01*
X135840000Y-86500000D02*
X127540000Y-86500000D01*
X136100000Y-99000000D02*
X137500000Y-99000000D01*
X103580000Y-79500000D02*
X102580000Y-80500000D01*
X137500000Y-99000000D02*
X139000000Y-100500000D01*
X135200000Y-99900000D02*
X136100000Y-99000000D01*
X135540000Y-91500000D02*
X132540000Y-91500000D01*
X210200000Y-99800000D02*
X207875000Y-99800000D01*
X204040000Y-100000000D02*
X201040000Y-103000000D01*
X132880000Y-102000000D02*
X134500000Y-102000000D01*
X125000000Y-79500000D02*
X125000000Y-82000000D01*
X186716450Y-99000000D02*
X207000000Y-99000000D01*
X137750000Y-92250000D02*
X137000000Y-91500000D01*
X185488525Y-81000000D02*
X171500000Y-81000000D01*
X171500000Y-81000000D02*
X163560000Y-88940000D01*
X141540000Y-92880000D02*
X140220000Y-94200000D01*
X127540000Y-86500000D02*
X125000000Y-86500000D01*
X188500000Y-89000000D02*
X182894315Y-94605685D01*
X192175000Y-94675000D02*
X192175000Y-96156000D01*
X187239000Y-96481000D02*
X184769630Y-96481000D01*
X202250000Y-96750000D02*
X204000000Y-95000000D01*
X214500000Y-98000000D02*
X214500000Y-112523000D01*
X192175000Y-96156000D02*
X192769000Y-96750000D01*
X145350000Y-92310000D02*
X144540000Y-91500000D01*
X125000000Y-79500000D02*
X103580000Y-79500000D01*
X101000000Y-94460000D02*
X106040000Y-99500000D01*
X116000000Y-113620000D02*
X120812900Y-113620000D01*
X142040000Y-102000000D02*
X142800000Y-101240000D01*
X175716450Y-110000000D02*
X186716450Y-99000000D01*
X163580000Y-94580000D02*
X163580000Y-98000000D01*
X125000000Y-86500000D02*
X125000000Y-88400000D01*
X172670000Y-83500000D02*
X172670000Y-84381370D01*
X210000000Y-97000000D02*
X211000000Y-98000000D01*
X135540000Y-91500000D02*
X135300000Y-91500000D01*
X142800000Y-101240000D02*
X142800000Y-99800000D01*
X134500000Y-102000000D02*
X135200000Y-101300000D01*
X65400000Y-110900000D02*
X73900000Y-110900000D01*
X101000000Y-93120000D02*
X101000000Y-94460000D01*
X137300000Y-85040000D02*
X135840000Y-86500000D01*
X214400000Y-112523000D02*
X214500000Y-112523000D01*
X133920000Y-92880000D02*
X127540000Y-86500000D01*
X207875000Y-99800000D02*
X207675000Y-100000000D01*
X126932900Y-107500000D02*
X147155325Y-107500000D01*
X145350000Y-97250000D02*
X145350000Y-92310000D01*
X188340000Y-95380000D02*
X189720000Y-94000000D01*
X163580000Y-98000000D02*
X163580000Y-98420000D01*
X163560000Y-94500000D02*
X163560000Y-94560000D01*
X163580000Y-98420000D02*
X163560000Y-98440000D01*
X149655325Y-110000000D02*
X175716450Y-110000000D01*
X115080000Y-113620000D02*
X116000000Y-113620000D01*
X108580000Y-107120000D02*
X115080000Y-113620000D01*
X188500000Y-84011475D02*
X185488525Y-81000000D01*
X144540000Y-91500000D02*
X143040000Y-91500000D01*
X209000000Y-97000000D02*
X210000000Y-97000000D01*
X137750000Y-93650000D02*
X137750000Y-92250000D01*
X140500000Y-102000000D02*
X142040000Y-102000000D01*
X192769000Y-96750000D02*
X202250000Y-96750000D01*
X145350000Y-99230000D02*
X145350000Y-97250000D01*
X141660000Y-92880000D02*
X141540000Y-92880000D01*
X146620000Y-100500000D02*
X145350000Y-99230000D01*
X194500000Y-79500000D02*
X125000000Y-79500000D01*
X135200000Y-101300000D02*
X135200000Y-99900000D01*
X184769630Y-96481000D02*
X182894315Y-94605685D01*
X163560000Y-101500000D02*
X163560000Y-105000000D01*
X102580000Y-80500000D02*
X104850000Y-82770000D01*
X189720000Y-94000000D02*
X191500000Y-94000000D01*
X186540000Y-117500000D02*
X201040000Y-103000000D01*
X197000000Y-82000000D02*
X194500000Y-79500000D01*
X143040000Y-91500000D02*
X141660000Y-92880000D01*
X145100000Y-97500000D02*
X145350000Y-97250000D01*
X182894315Y-94605685D02*
X172670000Y-84381370D01*
X125000000Y-86500000D02*
X110937050Y-86500000D01*
X147155325Y-107500000D02*
X149655325Y-110000000D01*
X165580000Y-117500000D02*
X186540000Y-117500000D01*
X140220000Y-94200000D02*
X138300000Y-94200000D01*
X193000000Y-89000000D02*
X197000000Y-85000000D01*
X85750000Y-111750000D02*
X92250000Y-111750000D01*
X204000000Y-95000000D02*
X211500000Y-95000000D01*
X142800000Y-99800000D02*
X145100000Y-97500000D01*
X188500000Y-89000000D02*
X193000000Y-89000000D01*
X137000000Y-91500000D02*
X135540000Y-91500000D01*
X120812900Y-113620000D02*
X126932900Y-107500000D01*
X211500000Y-95000000D02*
X214500000Y-98000000D01*
X163560000Y-88940000D02*
X163560000Y-91000000D01*
X163560000Y-91000000D02*
X163560000Y-94500000D01*
X191500000Y-94000000D02*
X192175000Y-94675000D01*
X107500000Y-86500000D02*
X110937050Y-86500000D01*
X139000000Y-100500000D02*
X140500000Y-102000000D01*
X163560000Y-94560000D02*
X163580000Y-94580000D01*
X188500000Y-89000000D02*
X188500000Y-84011475D01*
X211000000Y-99000000D02*
X210200000Y-99800000D01*
X211000000Y-98000000D02*
X211000000Y-99000000D01*
%TO.N,+3.3V*%
X144920000Y-85040000D02*
X144920000Y-84520000D01*
X102500000Y-83500000D02*
X102500000Y-86500000D01*
X132500000Y-85000000D02*
X104000000Y-85000000D01*
X104000000Y-85000000D02*
X102500000Y-86500000D01*
X144920000Y-84520000D02*
X143650000Y-83250000D01*
X102310000Y-82770000D02*
X102310000Y-83310000D01*
X137500000Y-80000000D02*
X132500000Y-85000000D01*
X143650000Y-81350000D02*
X145000000Y-80000000D01*
X102500000Y-86500000D02*
X109120000Y-93120000D01*
X101000000Y-113620000D02*
X102380000Y-115000000D01*
X145000000Y-80000000D02*
X137500000Y-80000000D01*
X111120000Y-99280000D02*
X111120000Y-99500000D01*
X88580000Y-101000000D02*
X96250000Y-101000000D01*
X102310000Y-83310000D02*
X102500000Y-83500000D01*
X106040000Y-107120000D02*
X106040000Y-108580000D01*
X102380000Y-115000000D02*
X124000000Y-115000000D01*
X143650000Y-83250000D02*
X143650000Y-81350000D01*
X84500000Y-96920000D02*
X88580000Y-101000000D01*
X124000000Y-115000000D02*
X127500000Y-111500000D01*
X109120000Y-93120000D02*
X116000000Y-93120000D01*
X192080000Y-80000000D02*
X195580000Y-83500000D01*
X116000000Y-94400000D02*
X111120000Y-99280000D01*
X116000000Y-93120000D02*
X126880000Y-93120000D01*
X106040000Y-108580000D02*
X101000000Y-113620000D01*
X126880000Y-93120000D02*
X127500000Y-92500000D01*
X145000000Y-80000000D02*
X192080000Y-80000000D01*
X96250000Y-101000000D02*
X97150000Y-100100000D01*
X97150000Y-100100000D02*
X97150000Y-91850000D01*
X116000000Y-93120000D02*
X116000000Y-94400000D01*
X97150000Y-91850000D02*
X102500000Y-86500000D01*
%TO.N,+5V*%
X115850000Y-95500000D02*
X112400000Y-98950000D01*
X65400000Y-108400000D02*
X73900000Y-108400000D01*
X112400000Y-98950000D02*
X112400000Y-101000000D01*
X193000000Y-89500000D02*
X191680000Y-89500000D01*
X128760000Y-95500000D02*
X115850000Y-95500000D01*
X191680000Y-89500000D02*
X185800000Y-95380000D01*
X131380000Y-92880000D02*
X128760000Y-95500000D01*
X212420000Y-89500000D02*
X193000000Y-89500000D01*
%TO.N,Net-(J2-Pad10)*%
X139840000Y-86100000D02*
X146620000Y-92880000D01*
X139840000Y-85040000D02*
X139840000Y-86100000D01*
%TO.N,Net-(J2-Pad11)*%
X138575000Y-83775000D02*
X137300000Y-82500000D01*
X138575000Y-86075000D02*
X138575000Y-83775000D01*
X139000000Y-86500000D02*
X138575000Y-86075000D01*
X139000000Y-92880000D02*
X139000000Y-86500000D01*
%TO.N,Net-(J2-Pad8)*%
X136460000Y-100500000D02*
X138460000Y-102500000D01*
X147500000Y-102500000D02*
X148500000Y-101500000D01*
X148500000Y-101500000D02*
X148500000Y-91650000D01*
X142380000Y-85040000D02*
X142380000Y-85187100D01*
X142380000Y-85530000D02*
X142380000Y-85040000D01*
X138460000Y-102500000D02*
X147500000Y-102500000D01*
X148500000Y-91650000D02*
X142380000Y-85530000D01*
%TO.N,Net-(U1-PD5)*%
X116200000Y-107120000D02*
X119820000Y-103500000D01*
X119820000Y-103500000D02*
X129966450Y-103500000D01*
X129966450Y-103500000D02*
X130466450Y-104000000D01*
X151500000Y-96400000D02*
X153400000Y-94500000D01*
X155000000Y-92900000D02*
X155000000Y-90000000D01*
X148700000Y-104000000D02*
X151500000Y-101200000D01*
X154960000Y-90000000D02*
X155000000Y-90000000D01*
X150000000Y-85040000D02*
X154960000Y-90000000D01*
X130466450Y-104000000D02*
X148700000Y-104000000D01*
X153400000Y-94500000D02*
X155000000Y-92900000D01*
X151500000Y-101200000D02*
X151500000Y-96400000D01*
%TO.N,Net-(U1-PD2)*%
X114925000Y-106150000D02*
X114925000Y-107740050D01*
X103700000Y-105000000D02*
X113775000Y-105000000D01*
X156000000Y-98900000D02*
X156000000Y-84500000D01*
X152500000Y-81000000D02*
X148960000Y-81000000D01*
X153400000Y-101500000D02*
X156000000Y-98900000D01*
X98420000Y-107120000D02*
X99800000Y-108500000D01*
X148960000Y-81000000D02*
X147460000Y-82500000D01*
X122950000Y-104500000D02*
X129500000Y-104500000D01*
X115806950Y-108622000D02*
X119078000Y-108622000D01*
X120000000Y-106427100D02*
X120713550Y-105713550D01*
X130000000Y-105000000D02*
X149900000Y-105000000D01*
X149900000Y-105000000D02*
X153400000Y-101500000D01*
X101475050Y-108500000D02*
X102250000Y-107725050D01*
X114925000Y-107740050D02*
X115806950Y-108622000D01*
X119078000Y-108622000D02*
X120000000Y-107700000D01*
X120713550Y-105713550D02*
X121736450Y-105713550D01*
X113775000Y-105000000D02*
X114925000Y-106150000D01*
X129500000Y-104500000D02*
X130000000Y-105000000D01*
X120000000Y-107700000D02*
X120000000Y-106427100D01*
X102250000Y-107725050D02*
X102250000Y-106450000D01*
X99800000Y-108500000D02*
X101475050Y-108500000D01*
X102250000Y-106450000D02*
X103700000Y-105000000D01*
X121736450Y-105713550D02*
X122950000Y-104500000D01*
X156000000Y-84500000D02*
X152500000Y-81000000D01*
%TO.N,Net-(J2-Pad9)*%
X141100000Y-85850000D02*
X141100000Y-83760000D01*
X141775000Y-86525000D02*
X141100000Y-85850000D01*
X148000000Y-101150000D02*
X148000000Y-92250000D01*
X144080000Y-100500000D02*
X145580000Y-102000000D01*
X142275000Y-86525000D02*
X141775000Y-86525000D01*
X147150000Y-102000000D02*
X148000000Y-101150000D01*
X145580000Y-102000000D02*
X147150000Y-102000000D01*
X148000000Y-92250000D02*
X142275000Y-86525000D01*
X141100000Y-83760000D02*
X139840000Y-82500000D01*
%TO.N,Net-(U1-PD3)*%
X117500000Y-104500000D02*
X102700000Y-104500000D01*
X151000000Y-100800000D02*
X148300000Y-103500000D01*
X130750000Y-103500000D02*
X130250000Y-103000000D01*
X151000000Y-93400000D02*
X151000000Y-100800000D01*
X100960000Y-106240000D02*
X100960000Y-107120000D01*
X151000000Y-88580000D02*
X147460000Y-85040000D01*
X148300000Y-103500000D02*
X130750000Y-103500000D01*
X119000000Y-103000000D02*
X117500000Y-104500000D01*
X151000000Y-93400000D02*
X153400000Y-91000000D01*
X151000000Y-93400000D02*
X151000000Y-88580000D01*
X130250000Y-103000000D02*
X119000000Y-103000000D01*
X102700000Y-104500000D02*
X100960000Y-106240000D01*
%TO.N,Net-(U1-PD6)*%
X130250000Y-104500000D02*
X149100000Y-104500000D01*
X152000000Y-101600000D02*
X152000000Y-99500000D01*
X118740000Y-107120000D02*
X118740000Y-106815000D01*
X149100000Y-104500000D02*
X152000000Y-101600000D01*
X129750000Y-104000000D02*
X130250000Y-104500000D01*
X118740000Y-106815000D02*
X121555000Y-104000000D01*
X153420000Y-98000000D02*
X155500000Y-95920000D01*
X121555000Y-104000000D02*
X129750000Y-104000000D01*
X153420000Y-98080000D02*
X153420000Y-98000000D01*
X152000000Y-99500000D02*
X153420000Y-98080000D01*
X150000000Y-82500000D02*
X155500000Y-88000000D01*
X155500000Y-95920000D02*
X155500000Y-88000000D01*
%TO.N,Net-(U1-PD7)*%
X121280000Y-107120000D02*
X121280000Y-106970000D01*
X146920000Y-80500000D02*
X144920000Y-82500000D01*
X153400000Y-105000000D02*
X156500000Y-101900000D01*
X121280000Y-106970000D02*
X123250000Y-105000000D01*
X129750000Y-105500000D02*
X152900000Y-105500000D01*
X123250000Y-105000000D02*
X129250000Y-105000000D01*
X152900000Y-105500000D02*
X153400000Y-105000000D01*
X156500000Y-84000000D02*
X153000000Y-80500000D01*
X129250000Y-105000000D02*
X129750000Y-105500000D01*
X153000000Y-80500000D02*
X146920000Y-80500000D01*
X156500000Y-101900000D02*
X156500000Y-84000000D01*
%TO.N,Net-(Q1-G)*%
X214960000Y-89500000D02*
X215000000Y-89540000D01*
X214960000Y-89500000D02*
X210460000Y-94000000D01*
X194800000Y-94000000D02*
X193420000Y-95380000D01*
X210460000Y-94000000D02*
X194800000Y-94000000D01*
%TO.N,Net-(SW2A-D)*%
X85750000Y-116250000D02*
X92250000Y-116250000D01*
X90800000Y-107120000D02*
X90800000Y-107900000D01*
X84500000Y-107080000D02*
X90760000Y-107080000D01*
X93800000Y-110900000D02*
X93800000Y-114300000D01*
X97000000Y-117500000D02*
X94000000Y-114500000D01*
X93800000Y-114300000D02*
X94000000Y-114500000D01*
X90800000Y-107900000D02*
X93800000Y-110900000D01*
X137500000Y-111000000D02*
X137500000Y-117500000D01*
X137500000Y-117500000D02*
X97000000Y-117500000D01*
X94000000Y-114500000D02*
X93551000Y-114949000D01*
X90760000Y-107080000D02*
X90800000Y-107120000D01*
X93551000Y-114949000D02*
X92250000Y-116250000D01*
%TO.N,Net-(J4-Pin_2)*%
X121300000Y-109500000D02*
X122550000Y-108250000D01*
X175500000Y-81500000D02*
X177500000Y-83500000D01*
X182830000Y-83500000D02*
X185420000Y-83500000D01*
X111450000Y-105500000D02*
X112400000Y-106450000D01*
X105120000Y-105500000D02*
X111450000Y-105500000D01*
X129000000Y-105500000D02*
X129500000Y-106000000D01*
X150000000Y-106000000D02*
X151000000Y-107000000D01*
X123547760Y-105500000D02*
X129000000Y-105500000D01*
X129500000Y-106000000D02*
X150000000Y-106000000D01*
X177500000Y-83500000D02*
X182830000Y-83500000D01*
X151000000Y-107000000D02*
X168000000Y-107000000D01*
X169500000Y-84000000D02*
X172000000Y-81500000D01*
X112400000Y-107755050D02*
X114144950Y-109500000D01*
X168000000Y-107000000D02*
X169500000Y-105500000D01*
X112400000Y-106450000D02*
X112400000Y-107755050D01*
X169500000Y-105500000D02*
X169500000Y-84000000D01*
X103500000Y-107120000D02*
X105120000Y-105500000D01*
X122550000Y-106497760D02*
X123547760Y-105500000D01*
X114144950Y-109500000D02*
X121300000Y-109500000D01*
X172000000Y-81500000D02*
X175500000Y-81500000D01*
X122550000Y-108250000D02*
X122550000Y-106497760D01*
%TO.N,Net-(U1-PB0)*%
X148000000Y-106500000D02*
X150500000Y-109000000D01*
X175275000Y-109000000D02*
X186275000Y-98000000D01*
X210567100Y-96000000D02*
X212000000Y-97432900D01*
X150500000Y-109000000D02*
X175275000Y-109000000D01*
X124440000Y-106500000D02*
X148000000Y-106500000D01*
X212000000Y-97432900D02*
X212000000Y-99650000D01*
X212000000Y-99650000D02*
X210150000Y-101500000D01*
X123820000Y-107120000D02*
X124440000Y-106500000D01*
X208000000Y-96000000D02*
X210567100Y-96000000D01*
X210150000Y-101500000D02*
X209420000Y-101500000D01*
X206000000Y-98000000D02*
X208000000Y-96000000D01*
X186275000Y-98000000D02*
X206000000Y-98000000D01*
%TO.N,Net-(U1-PB1)*%
X97150000Y-113150000D02*
X99500000Y-115500000D01*
X122500000Y-101500000D02*
X102200000Y-101500000D01*
X123820000Y-100180000D02*
X122500000Y-101500000D01*
X149243550Y-110500000D02*
X176000000Y-110500000D01*
X146743550Y-108000000D02*
X149243550Y-110500000D01*
X123820000Y-99500000D02*
X123820000Y-100180000D01*
X127000000Y-115500000D02*
X134500000Y-108000000D01*
X207375000Y-99500000D02*
X208375000Y-98500000D01*
X97150000Y-106550000D02*
X97150000Y-113150000D01*
X99500000Y-115500000D02*
X127000000Y-115500000D01*
X134500000Y-108000000D02*
X146743550Y-108000000D01*
X187000000Y-99500000D02*
X207375000Y-99500000D01*
X208375000Y-98500000D02*
X209420000Y-98500000D01*
X102200000Y-101500000D02*
X97150000Y-106550000D01*
X176000000Y-110500000D02*
X187000000Y-99500000D01*
%TO.N,Net-(SW3A-D)*%
X142000000Y-117500000D02*
X142000000Y-111000000D01*
X152880000Y-117500000D02*
X142000000Y-117500000D01*
%TO.N,Net-(U1-PD1)*%
X98500000Y-116000000D02*
X127500000Y-116000000D01*
X146375000Y-108500000D02*
X148875000Y-111000000D01*
X95880000Y-113380000D02*
X98500000Y-116000000D01*
X150100000Y-111000000D02*
X155420000Y-116320000D01*
X127500000Y-116000000D02*
X135000000Y-108500000D01*
X148875000Y-111000000D02*
X150100000Y-111000000D01*
X155420000Y-116320000D02*
X155420000Y-117500000D01*
X95880000Y-107120000D02*
X95880000Y-113380000D01*
X135000000Y-108500000D02*
X146375000Y-108500000D01*
%TO.N,Net-(U1-PB3)*%
X118740000Y-99500000D02*
X121240000Y-97000000D01*
X121240000Y-97000000D02*
X138040000Y-97000000D01*
X138040000Y-97000000D02*
X141540000Y-100500000D01*
%TO.N,Net-(U1-PD0)*%
X98000000Y-116500000D02*
X128000000Y-116500000D01*
X148525000Y-111525000D02*
X149775000Y-111525000D01*
X135500000Y-109000000D02*
X146000000Y-109000000D01*
X95000000Y-113500000D02*
X98000000Y-116500000D01*
X154150000Y-115900000D02*
X154150000Y-118191655D01*
X154958345Y-119000000D02*
X156460000Y-119000000D01*
X149775000Y-111525000D02*
X154150000Y-115900000D01*
X93340000Y-107120000D02*
X95000000Y-108780000D01*
X146000000Y-109000000D02*
X148525000Y-111525000D01*
X128000000Y-116500000D02*
X135500000Y-109000000D01*
X154150000Y-118191655D02*
X154958345Y-119000000D01*
X156460000Y-119000000D02*
X157960000Y-117500000D01*
X95000000Y-108780000D02*
X95000000Y-113500000D01*
%TO.N,Net-(U1-PC4)*%
X93340000Y-99500000D02*
X93340000Y-89200000D01*
X93340000Y-89200000D02*
X99770000Y-82770000D01*
%TO.N,Net-(U1-PB5)*%
X133340000Y-96000000D02*
X136460000Y-92880000D01*
X113660000Y-99500000D02*
X117160000Y-96000000D01*
X117160000Y-96000000D02*
X133340000Y-96000000D01*
%TO.N,Net-(U1-PC3)*%
X95960000Y-81500000D02*
X100472900Y-81500000D01*
X94690000Y-82770000D02*
X95960000Y-81500000D01*
X95880000Y-89120000D02*
X95880000Y-99500000D01*
X101000000Y-82027100D02*
X101000000Y-84000000D01*
X101000000Y-84000000D02*
X95880000Y-89120000D01*
X100472900Y-81500000D02*
X101000000Y-82027100D01*
%TO.N,Net-(U1-PB2)*%
X133920000Y-100880000D02*
X133920000Y-100500000D01*
X121280000Y-98870000D02*
X122650000Y-97500000D01*
X130920000Y-97500000D02*
X133920000Y-100500000D01*
X121280000Y-99500000D02*
X121280000Y-98870000D01*
X122650000Y-97500000D02*
X130920000Y-97500000D01*
X133920000Y-100880000D02*
X134040000Y-101000000D01*
%TO.N,Net-(U1-PC5)*%
X90800000Y-89200000D02*
X97230000Y-82770000D01*
X90800000Y-99500000D02*
X90800000Y-89200000D01*
%TO.N,Net-(U1-PB4)*%
X116200000Y-99500000D02*
X119200000Y-96500000D01*
X140460000Y-96500000D02*
X144080000Y-92880000D01*
X119200000Y-96500000D02*
X140460000Y-96500000D01*
%TO.N,Net-(U1-XTAL1{slash}PB6)*%
X150000000Y-109500000D02*
X175500000Y-109500000D01*
X115000000Y-111500000D02*
X122000000Y-111500000D01*
X122000000Y-111500000D02*
X126500000Y-107000000D01*
X207932900Y-95500000D02*
X205966450Y-97466450D01*
X192466450Y-97466450D02*
X190880000Y-95880000D01*
X208000000Y-101000000D02*
X208000000Y-102000000D01*
X210575000Y-100225000D02*
X208775000Y-100225000D01*
X190880000Y-95880000D02*
X190880000Y-95380000D01*
X210250000Y-96500000D02*
X211500000Y-97750000D01*
X211500000Y-97750000D02*
X211500000Y-99300000D01*
X206500000Y-98500000D02*
X208500000Y-96500000D01*
X208875000Y-102875000D02*
X210125000Y-102875000D01*
X208775000Y-100225000D02*
X208000000Y-101000000D01*
X211500000Y-99300000D02*
X210575000Y-100225000D01*
X212500000Y-100500000D02*
X212500000Y-97067100D01*
X111120000Y-107120000D02*
X111120000Y-107620000D01*
X126500000Y-107000000D02*
X147500000Y-107000000D01*
X147500000Y-107000000D02*
X150000000Y-109500000D01*
X208000000Y-102000000D02*
X208875000Y-102875000D01*
X212500000Y-97067100D02*
X210932900Y-95500000D01*
X186500000Y-98500000D02*
X206500000Y-98500000D01*
X210932900Y-95500000D02*
X207932900Y-95500000D01*
X175500000Y-109500000D02*
X186500000Y-98500000D01*
X111120000Y-107620000D02*
X115000000Y-111500000D01*
X205966450Y-97466450D02*
X192466450Y-97466450D01*
X210125000Y-102875000D02*
X212500000Y-100500000D01*
X208500000Y-96500000D02*
X210250000Y-96500000D01*
%TO.N,GND*%
X64181000Y-87156000D02*
X64181000Y-85494000D01*
X64181000Y-85494000D02*
X69175000Y-80500000D01*
X64725000Y-87700000D02*
X64181000Y-87156000D01*
X69175000Y-80500000D02*
X102580000Y-80500000D01*
X77450000Y-87700000D02*
X79000000Y-86150000D01*
X64725000Y-87700000D02*
X77450000Y-87700000D01*
%TD*%
M02*
